<?xml version="1.0" encoding="UTF-8"?>
<svg id="Layer_2" data-name="Layer 2" xmlns="http://www.w3.org/2000/svg" viewBox="0 0 101.46 13.01">
  <defs>
    <style>
      .cls-1 {
        fill: #121212;
      }
    </style>
  </defs>
  <g id="Capa_1" data-name="Capa 1">
    <path class="cls-1" d="M95.19,13.01c3.4-.12,6.21-2.99,6.27-6.39.03-1.76-.63-3.42-1.87-4.67-1.23-1.25-2.88-1.94-4.64-1.94-3.21,0-5.95,2.39-6.43,5.53H0v1.95h88.52c.49,3.25,3.38,5.64,6.67,5.53ZM91.73,3.29c.86-.86,2-1.33,3.22-1.33s2.36.47,3.22,1.33c.86.86,1.33,2,1.33,3.22s-.47,2.36-1.33,3.22c-.86.86-2,1.33-3.22,1.33s-2.36-.47-3.22-1.33c-.86-.86-1.33-2-1.33-3.22s.47-2.36,1.33-3.22Z"/>
  </g>
</svg>