<?xml version="1.0" encoding="UTF-8"?>
<svg id="Capa_1" data-name="Capa 1" xmlns="http://www.w3.org/2000/svg" viewBox="0 0 243.43 237.41">
  <defs>
    <style>
      .cls-1 {
        stroke: #007a38;
        stroke-miterlimit: 10;
        stroke-width: 2px;
      }

      .cls-1, .cls-2 {
        fill: #fff;
      }

      .cls-3 {
        fill: none;
      }

      .cls-4 {
        fill: #007a38;
      }
    </style>
  </defs>
  <g>
    <path class="cls-3" d="M245.05,163.12c-1.76.07-3.38.93-4.58,2.28-1.2,1.35-1.99,3.16-2.06,5.14-.06,1.98.61,3.73,1.74,4.97,1.12,1.23,2.7,1.95,4.46,1.86,1.76-.09,3.37-.96,4.56-2.3,1.19-1.34,1.94-3.14,2-5.1.06-1.96-.59-3.7-1.7-4.94-1.11-1.24-2.66-1.98-4.42-1.91Z"/>
    <path class="cls-3" d="M-6.25,38.35c1.78-.1,3.44-.98,4.72-2.3,1.28-1.33,2.11-3.11,2.21-5.03.09-1.92-.57-3.61-1.72-4.8-1.15-1.18-2.73-1.85-4.52-1.73-1.79.12-3.43,1-4.65,2.32-1.22,1.32-2.02,3.09-2.11,4.99-.09,1.91.54,3.59,1.63,4.78,1.1,1.19,2.66,1.87,4.44,1.77Z"/>
    <path class="cls-3" d="M244.03,191.71c-1.77.11-3.41.98-4.64,2.32-1.23,1.33-2.05,3.12-2.15,5.04-.1,1.92.55,3.6,1.66,4.78,1.11,1.17,2.68,1.83,4.45,1.71,1.77-.12,3.4-1,4.62-2.32,1.21-1.32,2-3.09,2.09-4.99.09-1.91-.53-3.58-1.62-4.77-1.09-1.18-2.64-1.86-4.41-1.76Z"/>
    <path class="cls-3" d="M42.19,241.15c-.1-1.77-.98-3.42-2.31-4.65-1.34-1.23-3.11-2.08-5.04-2.17-1.92-.09-3.62.58-4.8,1.69-1.18,1.11-1.84,2.68-1.72,4.46.12,1.78,1,3.41,2.32,4.63,1.33,1.21,3.09,2.01,5,2.1,1.91.09,3.59-.54,4.78-1.63,1.19-1.09,1.87-2.65,1.77-4.42Z"/>
    <path class="cls-3" d="M70.82,242.16c-.07-1.76-.93-3.39-2.28-4.59s-3.16-2.04-5.14-2.1c-1.98-.06-3.74.66-4.98,1.78-1.24,1.12-1.96,2.7-1.87,4.47.09,1.77.96,3.38,2.3,4.56,1.34,1.19,3.14,1.94,5.1,2,1.96.06,3.71-.59,4.95-1.7,1.25-1.11,1.98-2.67,1.92-4.43Z"/>
    <path class="cls-3" d="M245.63,100.52c1.75.02,3.32-.77,4.45-2.06,1.13-1.29,1.8-3.08,1.78-5.08-.02-1.99-.75-3.81-1.9-5.14-1.16-1.33-2.74-2.18-4.5-2.22-1.76-.04-3.34.73-4.48,2.02-1.14,1.29-1.86,3.1-1.83,5.11.03,2.01.78,3.85,1.96,5.18,1.18,1.34,2.78,2.17,4.53,2.19Z"/>
    <path class="cls-3" d="M145.76,247.02c1.33-1.16,2.18-2.75,2.23-4.51.04-1.76-.73-3.35-2.01-4.49-1.29-1.14-3.1-1.9-5.11-1.88-2.02.03-3.85.84-5.18,2.01-1.34,1.18-2.17,2.78-2.2,4.54-.02,1.76.77,3.33,2.06,4.45,1.29,1.13,3.08,1.81,5.08,1.78,1.99-.03,3.81-.75,5.14-1.91Z"/>
    <path class="cls-1" d="M219.49,218.11c3.32-67.33,3.36-134.72.18-202.06-67.43-3.2-134.91-3.22-202.34-.11-3.11,67.41-3.07,134.87.18,202.27,67.31,3.23,134.68,3.21,201.99-.11ZM189.18,176.42c-.13,6.53-1.57,12.25-4.29,17.17-2.73,4.93-6.57,8.78-11.55,11.58-4.98,2.8-10.93,4.26-17.89,4.37-6.97.11-12.95-1.16-17.93-3.82-4.98-2.66-8.81-6.44-11.49-11.34-2.67-4.91-4.02-10.66-4.01-17.26,0-6.61,1.37-12.46,4.09-17.53,2.72-5.06,6.63-9.03,11.72-11.87,5.09-2.85,11.2-4.29,18.3-4.32,7.09-.03,13.12,1.35,18.09,4.13,4.97,2.78,8.73,6.66,11.3,11.63,2.57,4.97,3.78,10.74,3.65,17.27ZM50.8,27.5c20.08-.55,40.17-.78,60.27-.87-.02,7.32-.03,11.03-.04,18.5-12.49.02-24.98.12-37.47.29-.08,5.84-.12,8.79-.18,14.71,11.29-.1,22.57-.17,33.86-.22-.02,7.56-.03,11.37-.04,19.02-11.33.03-22.66.08-33.98.14-.06,11.4-.11,22.79-.12,34.19-9.45,0-14.16,0-23.45.01.07-28.59.44-57.18,1.16-85.76ZM110.76,197.99c-2.81,3.83-6.83,6.72-12.03,8.66-5.2,1.94-11.43,2.86-18.68,2.74-7.45-.12-13.91-1.32-19.43-3.57-5.52-2.26-9.83-5.65-12.94-10.2-3.11-4.55-4.77-10.34-4.95-17.43,8.68.18,13.08.26,21.93.39.18,2.61.87,4.81,2.07,6.6,1.2,1.79,2.88,3.15,5.03,4.09,2.15.94,4.71,1.43,7.69,1.47,2.5.03,4.59-.25,6.27-.84s2.96-1.42,3.83-2.49c.86-1.07,1.34-2.33,1.32-3.69-.01-1.28-.48-2.46-1.32-3.45-.84-1-2.22-1.9-4.12-2.71-1.9-.81-4.46-1.58-7.68-2.31-3.46-.77-5.19-1.16-8.63-1.94-7.65-1.74-13.65-4.59-18.05-8.52-4.4-3.94-6.58-9.3-6.66-16.02-.06-5.47,1.32-10.3,4.23-14.44,2.91-4.13,6.99-7.37,12.25-9.69,5.27-2.32,11.35-3.49,18.26-3.48,7.05,0,13.18,1.2,18.36,3.58,5.18,2.38,9.19,5.73,12.02,10.04,2.83,4.31,4.25,9.33,4.29,15.06-9.14,0-13.71-.01-22.8-.05-.24-2.84-1.31-5.07-3.21-6.67-1.9-1.6-4.77-2.41-8.6-2.43-2.44-.01-4.43.27-5.97.85-1.54.58-2.67,1.36-3.4,2.35-.73.99-1.08,2.15-1.12,3.4-.03,1.03.15,1.99.59,2.83.44.84,1.15,1.59,2.11,2.27.97.67,2.2,1.28,3.7,1.83,1.5.55,3.29,1.04,5.36,1.48,2.86.63,4.29.94,7.16,1.57,4.84,1.05,8.99,2.41,12.45,4.09,3.46,1.68,6.29,3.65,8.49,5.89,2.2,2.25,3.82,4.76,4.86,7.54,1.04,2.78,1.6,5.82,1.61,9.06.01,5.58-1.46,10.34-4.27,14.17ZM115.97,47.79c9.41,0,14.12.01,23.51.07.08,12.18.14,24.37.17,36.55.04,3.25.88,5.81,2.52,7.67,1.65,1.86,3.95,2.79,6.92,2.8,1.96,0,3.66-.41,5.09-1.25,1.43-.84,2.54-2.03,3.31-3.58.77-1.55,1.14-3.4,1.1-5.56-.07-12.15-.17-24.31-.32-36.46,9.31.11,13.94.18,23.1.36.38,21.62.58,43.24.63,64.87-8.78,0-13.22,0-22.14-.01,0-5.01,0-7.51-.02-12.51-.27,0-.41,0-.68,0-1.41,4.19-3.89,7.47-7.45,9.83-3.56,2.36-7.8,3.54-12.72,3.54-4.61,0-8.64-1.06-12.1-3.18s-6.14-5.05-8.05-8.78c-1.91-3.73-2.87-7.99-2.9-12.79,0-13.85,0-27.7.01-41.56Z"/>
    <path class="cls-2" d="M161.32,162.35c-1.43-1.31-3.13-1.96-5.11-1.95-2.1.02-3.9.69-5.41,2.03-1.51,1.34-2.67,3.23-3.48,5.67-.81,2.44-1.23,5.36-1.25,8.74-.03,3.36.35,6.23,1.11,8.64.77,2.41,1.89,4.25,3.37,5.52,1.48,1.28,3.25,1.91,5.33,1.88,1.96-.03,3.67-.7,5.11-2.01,1.44-1.31,2.58-3.18,3.4-5.59.82-2.42,1.25-5.29,1.29-8.64.04-3.37-.31-6.27-1.07-8.69-.76-2.42-1.86-4.29-3.28-5.6Z"/>
    <path class="cls-4" d="M73.22,79.06c11.33-.07,22.66-.11,33.98-.14.01-7.65.02-11.46.04-19.02-11.29.04-22.57.12-33.86.22.06-5.92.1-8.86.18-14.71,12.49-.17,24.98-.26,37.47-.29.01-7.47.02-11.18.04-18.5-20.09.09-40.18.32-60.27.87-.72,28.59-1.09,57.17-1.16,85.76,9.29,0,13.99,0,23.45-.01.02-11.4.06-22.79.12-34.19Z"/>
    <path class="cls-4" d="M126.9,110.92c3.46,2.12,7.49,3.18,12.1,3.18,4.92,0,9.16-1.18,12.72-3.54,3.56-2.36,6.04-5.64,7.45-9.83.27,0,.41,0,.68,0,.01,5,.02,7.51.02,12.51,8.92,0,13.36,0,22.14.01-.05-21.63-.25-43.24-.63-64.87-9.16-.18-13.79-.25-23.1-.36.15,12.15.25,24.3.32,36.46.04,2.16-.33,4.02-1.1,5.56-.77,1.55-1.88,2.74-3.31,3.58-1.43.84-3.13,1.25-5.09,1.25-2.97,0-5.27-.94-6.92-2.8-1.65-1.86-2.49-4.42-2.52-7.67-.04-12.18-.09-24.37-.17-36.55-9.38-.06-14.1-.07-23.51-.07,0,13.85,0,27.7-.01,41.56.03,4.8.99,9.07,2.9,12.79,1.91,3.73,4.59,6.65,8.05,8.78Z"/>
    <path class="cls-4" d="M108.56,167.22c-2.2-2.25-5.03-4.21-8.49-5.89-3.45-1.68-7.61-3.04-12.45-4.09-2.87-.63-4.3-.94-7.16-1.57-2.07-.44-3.86-.93-5.36-1.48-1.5-.55-2.74-1.16-3.7-1.83-.97-.67-1.67-1.43-2.11-2.27-.44-.84-.62-1.8-.59-2.83.04-1.25.39-2.41,1.12-3.4.73-.99,1.86-1.77,3.4-2.35,1.54-.58,3.53-.86,5.97-.85,3.83.02,6.7.82,8.6,2.43,1.9,1.6,2.97,3.83,3.21,6.67,9.1.03,13.67.04,22.8.05-.03-5.72-1.46-10.75-4.29-15.06-2.83-4.31-6.83-7.66-12.02-10.04-5.18-2.38-11.31-3.57-18.36-3.58-6.91,0-12.99,1.16-18.26,3.48-5.27,2.32-9.34,5.56-12.25,9.69-2.91,4.14-4.29,8.97-4.23,14.44.07,6.73,2.26,12.09,6.66,16.02,4.39,3.94,10.4,6.78,18.05,8.52,3.44.78,5.17,1.17,8.63,1.94,3.22.73,5.79,1.5,7.68,2.31,1.9.81,3.28,1.72,4.12,2.71.84.99,1.31,2.18,1.32,3.45.01,1.36-.46,2.62-1.32,3.69-.87,1.07-2.14,1.9-3.83,2.49s-3.77.87-6.27.84c-2.98-.04-5.54-.53-7.69-1.47-2.15-.94-3.83-2.3-5.03-4.09-1.2-1.79-1.89-3.98-2.07-6.6-8.85-.13-13.25-.21-21.93-.39.18,7.1,1.83,12.89,4.95,17.43,3.11,4.55,7.42,7.94,12.94,10.2,5.52,2.26,11.99,3.46,19.43,3.57,7.25.11,13.48-.8,18.68-2.74,5.2-1.94,9.21-4.83,12.03-8.66,2.82-3.83,4.29-8.59,4.27-14.17,0-3.24-.57-6.28-1.61-9.06-1.04-2.78-2.66-5.29-4.86-7.54Z"/>
    <path class="cls-4" d="M174.23,147.52c-4.97-2.78-11-4.16-18.09-4.13-7.1.03-13.21,1.47-18.3,4.32-5.09,2.85-9,6.81-11.72,11.87-2.72,5.06-4.08,10.92-4.09,17.53,0,6.61,1.33,12.36,4.01,17.26,2.67,4.91,6.51,8.68,11.49,11.34,4.98,2.66,10.96,3.94,17.93,3.82,6.97-.11,12.92-1.57,17.89-4.37,4.98-2.8,8.82-6.65,11.55-11.58,2.72-4.93,4.16-10.64,4.29-17.17.13-6.53-1.09-12.3-3.65-17.27-2.57-4.97-6.33-8.86-11.3-11.63ZM164.38,185.28c-.82,2.42-1.95,4.28-3.4,5.59-1.45,1.31-3.15,1.98-5.11,2.01-2.08.03-3.85-.6-5.33-1.88-1.48-1.28-2.6-3.12-3.37-5.52-.77-2.41-1.14-5.28-1.11-8.64.03-3.38.44-6.3,1.25-8.74.81-2.44,1.97-4.33,3.48-5.67,1.51-1.34,3.32-2.01,5.41-2.03,1.98-.01,3.69.63,5.11,1.95,1.42,1.31,2.52,3.18,3.28,5.6.76,2.42,1.12,5.32,1.07,8.69-.04,3.34-.48,6.22-1.29,8.64Z"/>
  </g>
  <path class="cls-3" d="M-239.97,433.54c-.15-.05-.22-.1-.2-.16.12-.32,2.72-.76,5.92-.81,8.57-37.19,5.44-79.95,6.29-117.67-4.41-.25-7.85-3.41-7.8-7.38.05-4.17,3.98-7.79,8.76-7.85,4.79-.06,8.58,3.45,8.47,7.63-.11,3.98-3.66,7.23-8.08,7.59-.89,37.56,2.37,80.72-6.66,117.69,1.79.02,3.29.17,4.22.35,3-.24,5.99-.54,8.96-.88,1.15-1.89,1.9-4.85,3.09-11.24-3.52-.09-6.13-1.36-5.9-3.09.24-1.82,3.62-3.48,7.54-3.52,3.92-.04,6.81,1.56,6.44,3.39-.35,1.74-3.43,3.05-7,3.2-1.2,6.27-1.97,9.22-3.13,11.12,9.36-1.12,18.57-2.73,27.59-4.84.87-1.91,1.73-4.39,2.81-7.85.21-.67-.17-1.33-1.07-1.81-6.24-3.38-9.54-5.27-16.46-9.44-.99-.6-1.48-1.43-1.36-2.33,4.16-30.24,5.56-60.83,7.01-91.29-4.34-.18-7.67-3.3-7.53-7.28.15-4.23,4.18-7.93,8.96-7.99,4.46-.06,8.07,3.26,8.04,7.22-.03,4.11-3.67,7.58-8.13,8.01-1.48,30.38-2.93,60.89-7.15,91.04-.13.9.36,1.74,1.35,2.34,6.9,4.19,10.19,6.09,16.43,9.49.18.1.31.2.45.31,6.19-21.33,8.11-44.01,10.39-65.99-4.08-.12-7.09-2.84-6.81-6.39.3-3.73,4.18-6.96,8.64-7.14,4.46-.17,7.77,2.8,7.4,6.54-.35,3.56-3.85,6.52-7.97,6.94-2.18,20.44-1.54,55.21-13.66,75.29,7.35-1.76,14.58-3.83,21.67-6.21-.03-.22-.02-.46.08-.71.66-1.75,4.33-3.4,8.13-3.49,1-.02,1.9.07,2.68.24,14.55-5.66,28.44-12.62,41.54-20.74-5.94,1.16-11.88,2.3-17.82,3.41-.99,2.41-4.34,4.66-7.76,5.26-3.59.62-5.93-.78-5.21-3.29.71-2.51,4.26-5.21,7.91-5.87,3.47-.63,5.74.83,5.28,3.17,6.42-1.2,12.84-2.43,19.25-3.7,12.66-7.98,24.57-17.04,35.59-27.07-23.76,6.06-48.05,10.84-72.21,13.24-.84,2.88-4.43,5.16-8.31,5.31-4.08.15-7-2.1-6.5-5.17.5-3.06,4.29-5.79,8.45-5.96,3.96-.16,6.76,2.06,6.53,4.94,24.52-2.42,49.18-7.3,73.27-13.5,9.46-8.72,18.24-18.16,26.28-28.22-23.79,6.82-48.07,11.5-72.43,15.77-.84,3.34-4.25,6.36-7.93,6.98-3.9.65-6.64-1.69-6.05-5.32.56-3.39,4.08-6.8,7.82-7.5,3.88-.72,6.61,1.49,6.33,4.83,24.4-4.25,48.72-8.92,72.55-15.74.24-.07.48-.17.72-.29,10.53-13.36,19.74-27.8,27.45-43.14-1.99-3.56-3.44-6.29-7.42-11.62-.65-.87-1.58-1.22-2.58-.96-13.06,3.32-26.28,5.53-39.58,7.61-1.08.16-2.15.71-3.08,1.58-6.23,5.84-9.99,8.47-16.96,14.08-1.04.83-2.22,1.37-3.38,1.53-1.75.24-2.63.35-4.4.58-.04.2-.07.39-.12.59-.73,2.71-2.84,5.29-5.63,6.52h0c-.76.34-1.52.55-2.26.65-3.02.4-5.63-1.2-6.27-4.21-.16-.73-.18-1.49-.09-2.25.36-3.14,2.69-6.31,5.91-7.67.78-.33,1.56-.53,2.31-.61,3.08-.33,5.64,1.35,6.2,4.33.11.58.12,1.19.07,1.79,1.67-.21,2.5-.32,4.14-.54,1.17-.15,2.35-.69,3.39-1.52,6.98-5.61,10.66-8.29,16.9-14.13.93-.87,2.01-1.42,3.08-1.57,13.45-2.09,26.84-4.31,40.04-7.66,1-.26,1.92.09,2.57.96,4,5.38,5.51,8.17,7.54,11.77,6.32-12.67,11.61-25.95,15.75-39.72-.72.32-1.5.65-2.36,1.01-.22,3.43-1.51,6.6-3.18,7.25-1.8.7-3.34-1.84-3.27-5.66.08-3.83,1.73-7.41,3.52-8,1.73-.57,2.95,1.8,2.96,5.34,1-.41,1.88-.78,2.69-1.14,2.79-9.42,5.04-19.06,6.73-28.9-2.08,1.33-5.28,2.34-11.26,3.82-.66.16-1.32.9-1.83,2.06-3.52,8.08-5.52,12.25-9.96,20.72-.64,1.22-1.5,2.02-2.4,2.23-30.05,6.75-61.02,9.06-91.66,11.39-.51,4.23-3.9,7.76-7.91,8.04-4.26.3-7.6-3.22-7.29-7.86.28-4.32,3.85-8.18,7.82-8.57,4.13-.41,7.34,2.79,7.44,7.09,30.53-2.29,61.38-4.58,91.34-11.17.91-.2,1.77-1.01,2.41-2.22,4.46-8.47,6.46-12.64,10.01-20.7.22-.51.48-.91.75-1.25-7.49,1.74-12.34,2.54-23.66,4.01-.27,3.89-2.43,7.23-5.14,7.6-2.84.38-5.19-2.74-5.1-6.98.09-4.24,2.56-7.92,5.39-8.21,2.69-.27,4.74,2.56,4.86,6.4,11.12-1.65,26.39-2.02,36.53-8.52.81-4.97,1.49-9.99,2-15.06-.3.08-.69-2.1-.72-5.11-16.31,5.09-34.67,4.64-51.52,5.68-1.17.06-2.32.78-3.18,2.01-6.01,8.55-9.19,12.93-15.91,21.79-.96,1.27-2.26,2.05-3.6,2.15-14.46,1.1-28.94,1.91-43.43,2.66-.43,4.35-3.75,7.91-7.74,8.12-4.23.22-7.64-3.49-7.42-8.26.21-4.45,3.71-8.34,7.67-8.65,4.11-.32,7.35,3.04,7.53,7.46,14.34-.73,28.68-1.51,43-2.57,1.35-.1,2.65-.87,3.61-2.14,6.72-8.86,9.92-13.24,15.93-21.78.86-1.23,2.01-1.94,3.19-2,16.99-.99,35.38-.54,51.87-5.43.04-3.2.46-5.83.77-5.99.03-.02.06,0,.09.03-.02,3.84-.04,7.68-.08,11.52.83-8.34,1.26-16.8,1.26-25.36,0-9.78-.57-19.43-1.65-28.92-1.75-1.52-4.47-2.29-11.91-3.66-.09,3.52-1.34,6.13-3.06,5.9-1.8-.24-3.44-3.6-3.48-7.52-.04-3.92,1.55-6.8,3.36-6.45,1.72.34,3.02,3.41,3.16,6.97,7.26,1.38,10,2.16,11.79,3.67-1.11-9.42-2.73-18.69-4.84-27.77-1.97-.99-4.6-1.92-8.48-3.13-.66-.21-1.32.17-1.79,1.07-3.35,6.25-5.22,9.55-9.36,16.47-.59.99-1.42,1.49-2.31,1.36-30.12-4.09-60.58-5.46-90.92-6.88-.18,4.34-3.3,7.67-7.27,7.54-4.22-.15-7.87-4.18-7.93-8.96-.06-4.46,3.22-8.07,7.17-8.04,4.1.03,7.56,3.66,7.99,8.13,30.25,1.46,60.63,2.87,90.66,7.02.9.13,1.73-.36,2.32-1.35,4.15-6.91,6.04-10.2,9.41-16.44.09-.18.2-.32.31-.45-21.31-5.99-43.66-8.01-65.6-10.28-.12,4.08-2.83,7.1-6.37,6.82-3.72-.3-6.94-4.18-7.11-8.64-.17-4.46,2.79-7.77,6.52-7.41,3.55.34,6.5,3.84,6.91,7.97,20.37,2.16,55.92,1.41,75.55,14.01-1.8-7.57-3.93-15.02-6.4-22.31-.36.23-.76.28-1.19.11-1.73-.66-3.36-4.32-3.45-8.12-.03-1.35.14-2.53.45-3.44-5.67-14.41-12.63-28.17-20.72-41.15,1.18,6.04,2.33,12.1,3.45,18.15,2.4.99,4.63,4.34,5.22,7.76.62,3.59-.77,5.93-3.27,5.22-2.49-.71-5.17-4.26-5.83-7.91-.63-3.48.83-5.74,3.15-5.29-1.22-6.53-2.46-13.05-3.74-19.57-7.92-12.49-16.9-24.25-26.82-35.14,6.05,23.74,10.85,48.03,13,72.16,2.86.83,5.13,4.42,5.27,8.31.15,4.08-2.1,7-5.14,6.5-3.05-.5-5.76-4.29-5.93-8.45-.16-3.96,2.06-6.76,4.92-6.53-2.18-24.49-7.08-49.14-13.26-73.22-8.7-9.42-18.1-18.17-28.12-26.18,6.73,23.74,11.39,47.94,15.64,72.22,3.33.84,6.35,4.25,6.96,7.93.65,3.9-1.69,6.66-5.31,6.06-3.37-.56-6.78-4.08-7.48-7.82-.72-3.89,1.49-6.62,4.81-6.34-4.26-24.46-8.93-48.85-15.73-72.76-.02-.08-.07-.17-.1-.25-13.56-10.7-28.24-20.04-43.83-27.83-3.29,1.84-5.98,3.3-11.04,7.11-.87.66-1.22,1.59-.96,2.6,3.32,13.14,5.53,26.45,7.62,39.83.16,1.08.71,2.17,1.57,3.1,5.83,6.26,8.43,10.09,14.04,17.07.83,1.04,1.37,2.22,1.53,3.39.24,1.75.35,2.64.58,4.42.2.04.39.07.59.12,2.71.73,5.28,2.84,6.52,5.64h0c.34.77.55,1.53.65,2.26.4,3.03-1.2,5.64-4.2,6.29-.73.16-1.49.18-2.25.1-3.14-.36-6.3-2.69-7.67-5.92-.33-.78-.53-1.56-.61-2.31-.34-3.08,1.35-5.65,4.32-6.22.58-.11,1.19-.12,1.79-.07-.21-1.67-.32-2.5-.54-4.15-.16-1.17-.69-2.35-1.52-3.39-5.61-6.99-8.25-10.75-14.09-17.01-.87-.93-1.42-2.02-1.57-3.1-2.1-13.54-4.31-27-7.67-40.3-.26-1.01.09-1.94.96-2.6,5.1-3.83,7.85-5.35,11.19-7.22-13.01-6.44-26.64-11.8-40.8-15.96.3.72.62,1.5.95,2.35,3.45.22,6.61,1.55,7.25,3.27.68,1.84-1.88,3.42-5.72,3.34-3.84-.08-7.42-1.77-8-3.6-.56-1.77,1.84-3.03,5.4-3.04-.38-.98-.74-1.86-1.08-2.68-9.33-2.69-18.88-4.85-28.62-6.46,1.1,2.21,2.04,5.51,3.33,11.04.16.68.89,1.35,2.05,1.87,8.09,3.61,12.26,5.65,20.74,10.17,1.22.65,2.02,1.52,2.22,2.44,6.55,30.36,8.84,61.57,11.11,92.48,4.25.51,7.77,3.91,8.04,7.94.29,4.27-3.26,7.69-7.91,7.39-4.33-.28-8.18-3.92-8.56-7.91-.4-4.15,2.82-7.37,7.13-7.48-2.24-30.8-4.49-61.88-10.89-92.16-.2-.92-1-1.8-2.21-2.45-8.48-4.54-12.65-6.58-20.73-10.21-.51-.23-.92-.49-1.25-.77,1.69,7.68,2.47,12.62,3.89,24.09,3.91.27,7.25,2.46,7.6,5.2.37,2.88-2.77,5.25-7.03,5.16-4.26-.09-7.94-2.59-8.21-5.46-.26-2.73,2.59-4.8,6.45-4.93-1.58-11.11-1.89-26.26-7.89-36.77-6.02-.95-12.12-1.67-18.28-2.19-.7.06-1.49.11-2.36.12,4.7,16.88,4.38,35.4,5.37,52.73.06,1.18.78,2.34,2.01,3.21,8.56,6.07,12.95,9.28,21.82,16.05,1.27.97,2.05,2.28,2.15,3.63,1.06,14.56,1.84,29.13,2.57,43.7,4.36.43,7.93,3.77,8.13,7.77.21,4.25-3.53,7.77-8.31,7.55-4.46-.2-8.34-3.82-8.64-7.79-.32-4.13,3.06-7.39,7.49-7.57-.7-14.43-1.46-28.86-2.48-43.27-.1-1.36-.87-2.67-2.14-3.64-8.87-6.78-13.25-10-21.81-16.07-1.23-.87-1.94-2.03-2-3.22-.95-17.47-.62-36.03-5.13-53.08-2.78-.04-5.13-.39-5.81-.72-3.43-.16-6.87-.25-10.34-.27.07.03.12.06.14.1.16.36-2.37.84-5.64.88-.18,5.18-.3,10.37-.39,15.56h0c-.09,6.56-.15,13.12-.21,19.67-.03,5.79-.05,11.59-.1,17.38,0,1.18.65,2.33,1.83,3.19,8.27,5.96,12.53,9.11,21.22,15.74,1.25.95,1.97,2.24,2.02,3.59.46,14.51.8,29.03,1.12,43.55,4.42.36,7.98,3.62,8.08,7.6.11,4.23-3.78,7.85-8.64,7.72-4.53-.13-8.4-3.7-8.61-7.65-.22-4.11,3.29-7.43,7.81-7.69-.29-14.38-.61-28.75-1.04-43.12-.04-1.36-.77-2.65-2.01-3.6-8.68-6.64-12.94-9.8-21.2-15.77-.24-.17-.44-.36-.63-.56-.07,11.92-.13,23.84-.18,35.76,4.18.37,7.45,3.27,7.47,6.88.02,3.87-3.77,7.08-8.46,7.09-4.69.01-8.45-3.18-8.39-7.05.05-3.76,3.63-6.76,8.07-6.94.16-25.26.29-50.53.75-75.79h.03c.18-9.35.27-12.66.48-15.56-2.98-.04-5.29-.44-5.5-.79-.51.02-1.02.03-1.53.06-.6.33-2.97.69-5.8.73-9.04,37.35-5.45,80.69-6.3,118.67,4.41.25,7.86,3.42,7.81,7.4-.05,4.19-3.98,7.88-8.77,7.94-4.79.06-8.59-3.52-8.48-7.71.11-3.99,3.66-7.25,8.09-7.61.89-37.82-2.84-81.57,6.67-118.68-.96-.01-1.83-.06-2.58-.14-3.64.3-7.27.67-10.87,1.12-1.03,2-1.76,5.04-2.86,11.09,3.53.1,6.15,1.38,5.91,3.14-.24,1.85-3.63,3.53-7.56,3.56-3.93.04-6.82-1.58-6.46-3.44.35-1.77,3.44-3.1,7.01-3.25,1.12-5.93,1.86-8.95,2.89-10.96-9.4,1.22-18.64,2.97-27.69,5.19-.78,1.86-1.57,4.21-2.54,7.35-.21.68.17,1.35,1.07,1.84,6.26,3.43,9.57,5.35,16.5,9.56.99.6,1.49,1.45,1.36,2.36-4.13,30.41-5.54,61.16-6.99,91.79,4.34.18,7.68,3.31,7.54,7.3-.15,4.24-4.17,8.01-8.96,8.07-4.46.06-8.09-3.33-8.06-7.29.03-4.13,3.67-7.6,8.13-8.04,1.48-30.54,2.93-61.21,7.13-91.53.13-.91-.36-1.76-1.35-2.37-6.92-4.23-10.22-6.16-16.47-9.61-.18-.1-.32-.21-.45-.32-5.99,21.63-8.07,44.25-10.35,66.49,4.08.12,7.1,2.85,6.82,6.41-.3,3.75-4.18,6.99-8.65,7.17-4.47.17-7.77-2.8-7.41-6.56.34-3.58,3.85-6.55,7.98-6.97,2.19-20.71,1.62-54.71,13.26-75.31-7.28,1.83-14.43,3.99-21.44,6.44-.7,1.76-4.34,3.42-8.12,3.51-.45.01-.87,0-1.28-.03-14.08,5.55-27.53,12.34-40.24,20.21,5.03-.98,10.07-1.95,15.12-2.9.98-2.44,4.34-4.7,7.76-5.3,3.59-.63,5.94.79,5.23,3.33-.71,2.54-4.26,5.25-7.91,5.92-3.48.63-5.75-.84-5.29-3.2-5.52,1.04-11.03,2.1-16.54,3.18-12.72,8.01-24.68,17.11-35.74,27.18,22.96-5.75,46.34-10.35,69.69-12.7.83-2.9,4.43-5.2,8.32-5.34,4.09-.15,7.01,2.12,6.51,5.2-.5,3.08-4.29,5.83-8.46,6-3.96.16-6.77-2.08-6.54-4.97-23.72,2.37-47.46,7.08-70.76,12.95-9.43,8.7-18.2,18.11-26.22,28.15,22.97-6.42,46.37-10.92,69.85-15.02.84-3.35,4.25-6.39,7.93-7,3.9-.65,6.66,1.71,6.06,5.36-.55,3.4-4.08,6.82-7.82,7.52-3.89.72-6.62-1.51-6.34-4.86-23.74,4.12-47.41,8.64-70.62,15.17-11.2,14.18-20.91,29.59-28.91,45.99,1.57,2.76,3.18,5.4,6.4,9.73.65.87,1.57,1.22,2.58.97,13.04-3.3,26.25-5.49,39.53-7.56,1.07-.16,2.15-.71,3.08-1.57,6.22-5.84,9.88-8.53,16.85-14.14,1.04-.83,2.22-1.37,3.38-1.52,1.75-.23,2.63-.35,4.41-.57.04-.2.07-.4.12-.59.73-2.72,2.83-5.29,5.63-6.53h0c.76-.34,1.52-.55,2.26-.64,3.03-.39,5.64,1.21,6.28,4.23.16.73.18,1.5.1,2.26-.36,3.15-2.69,6.32-5.91,7.68-.78.33-1.56.53-2.31.61-3.08.33-5.65-1.36-6.21-4.35-.11-.59-.12-1.19-.07-1.79-1.67.21-2.5.32-4.15.53-1.17.15-2.35.69-3.39,1.52-6.98,5.61-10.57,8.34-16.79,14.18-.93.87-2,1.42-3.08,1.57-13.43,2.08-26.8,4.27-39.99,7.6-1,.26-1.92-.1-2.57-.97-3.25-4.39-4.91-7.08-6.52-9.89-5.45,11.28-10.1,23.02-13.86,35.15.23-.09.46-.19.71-.28.23-3.45,1.57-6.62,3.31-7.27,1.87-.69,3.46,1.86,3.38,5.7-.08,3.84-1.79,7.44-3.64,8.03-1.79.57-3.06-1.82-3.08-5.38-.36.14-.7.28-1.04.41-2.85,9.38-5.19,18.99-6.95,28.8,2.21-.9,5.3-1.74,9.9-2.84.68-.16,1.37-.9,1.89-2.07,3.65-8.11,5.71-12.3,10.27-20.81.65-1.22,1.54-2.03,2.46-2.23,30.5-6.59,61.83-8.99,92.88-11.28.51-4.24,3.93-7.76,7.97-8.04,4.29-.29,7.72,3.25,7.42,7.89-.28,4.32-3.96,8.16-7.96,8.55-4.16.4-7.39-2.81-7.49-7.11-30.94,2.27-62.16,4.57-92.56,11.06-.93.2-1.81,1.01-2.47,2.22-4.58,8.5-6.65,12.68-10.31,20.79-.23.51-.5.92-.78,1.25,7.77-1.74,12.74-2.53,24.28-4,.28-3.91,2.48-7.26,5.24-7.62,2.89-.38,5.28,2.76,5.19,7.01-.09,4.26-2.61,7.95-5.49,8.23-2.74.27-4.83-2.57-4.96-6.43-10.76,1.56-25.28,1.96-35.82,7.36-1.2,6.99-2.11,14.08-2.72,21.26,16.53-4.76,35.58-4.47,52.49-5.5,1.19-.06,2.35-.79,3.23-2.02,6.1-8.58,9.33-12.98,16.13-21.86.98-1.27,2.29-2.05,3.65-2.15,14.6-1.09,29.21-1.89,43.83-2.64.44-4.36,3.78-7.93,7.8-8.13,4.26-.21,7.82,3.52,7.6,8.3-.21,4.45-3.88,8.33-7.85,8.64-4.14.32-7.4-3.05-7.58-7.48-14.48.72-28.94,1.5-43.4,2.55-1.37.1-2.68.87-3.65,2.15-6.81,8.88-10.05,13.28-16.16,21.85-.88,1.23-2.04,1.95-3.24,2.01-17.09.99-36.2.67-52.93,5.29-.51,6.33-.79,12.72-.83,19.18.08.8.14,1.71.15,2.7,8.4.14,16.8.21,25.2.25.71,0,1.42,0,2.13.01,8.59.03,17.19.04,25.78.07,1.19,0,2.34-.66,3.2-1.85,5.99-8.3,9.16-12.57,15.82-21.28.96-1.25,2.25-1.98,3.61-2.03,14.55-.49,29.11-.86,43.67-1.2.36-4.42,3.63-7.99,7.63-8.09,4.24-.11,7.91,3.77,7.77,8.64-.13,4.53-3.76,8.4-7.72,8.61-4.12.22-7.44-3.28-7.69-7.8-14.42.32-28.83.66-43.25,1.12-1.36.04-2.66.77-3.61,2.02-6.67,8.7-9.84,12.98-15.85,21.27-.17.24-.37.44-.56.63,11.96.04,23.92.06,35.89.09.38-4.18,3.29-7.46,6.91-7.49,3.88-.02,7.1,3.76,7.1,8.46,0,4.7-3.2,8.46-7.08,8.42-3.77-.05-6.78-3.62-6.96-8.06-25.39-.1-50.78-.18-76.17-.47v-.03c-9.44-.11-12.81-.17-15.82-.3-.01.84-.05,1.62-.11,2.33.06,3.55.19,7.08.4,10.59,38.17,7.6,80.52,4.93,119.08,5.72.25-4.42,3.43-7.87,7.42-7.83,4.19.05,7.94,3.97,8,8.76.06,4.8-3.59,8.61-7.79,8.51-3.99-.1-7.26-3.66-7.62-8.08-38.42-.83-81.07,1.97-119.04-6.07.28,4.57.69,9.12,1.21,13.62,2.06.86,5.12,1.53,10.74,2.49.1-3.54,1.4-6.17,3.17-5.95,1.87.23,3.56,3.61,3.59,7.55.04,3.94-1.6,6.85-3.47,6.5-1.79-.33-3.13-3.42-3.28-7-5.52-.99-8.56-1.66-10.62-2.53,1.12,9.32,2.75,18.49,4.86,27.48,1.88.75,4.22,1.51,7.36,2.44.69.2,1.36-.18,1.86-1.09,3.46-6.31,5.4-9.63,9.64-16.6.61-1,1.46-1.5,2.37-1.38,30.53,3.96,61.38,5.33,92.12,6.72.19-4.35,3.32-7.7,7.32-7.57,4.25.14,8.06,4.16,8.12,8.95.05,4.47-3.38,8.11-7.36,8.09-4.13-.02-7.61-3.66-8.04-8.14-30.65-1.43-61.41-2.83-91.85-6.86-.92-.12-1.77.37-2.38,1.37-4.26,6.96-6.21,10.28-9.69,16.57-.1.18-.21.32-.32.45,21.67,5.98,44.55,7.87,66.82,10.09.12-4.09,2.86-7.13,6.44-6.85,3.76.29,7.01,4.17,7.18,8.65.17,4.48-2.82,7.8-6.59,7.45-3.59-.34-6.57-3.84-6.98-7.98-21.05-2.16-54.67-1.52-75.65-12.88,1.74,7.23,3.78,14.34,6.13,21.31.09.02.18.04.27.07,1.79.65,3.48,4.31,3.57,8.13.02.75-.03,1.43-.13,2.06,5.61,14.55,12.52,28.45,20.59,41.56-1.12-5.71-2.21-11.42-3.28-17.14-2.45-.98-4.72-4.33-5.32-7.76-.63-3.6.86-5.99,3.41-5.29,2.55.7,5.22,4.28,5.88,7.94.63,3.49-.86,5.77-3.23,5.33,1.16,6.2,2.35,12.39,3.57,18.57,8.06,12.86,17.22,24.95,27.38,36.12-6.05-23.8-10.91-48.12-12.99-72.34-2.91-.83-5.22-4.42-5.36-8.32-.15-4.1,2.13-7.04,5.23-6.55,3.1.49,5.85,4.28,6.02,8.46.16,3.97-2.09,6.8-4.99,6.58,2.1,24.59,7.08,49.27,13.25,73.42,8.74,9.48,18.19,18.29,28.27,26.34-6.72-23.83-11.34-48.14-15.53-72.53-3.36-.83-6.41-4.25-7.02-7.94-.65-3.92,1.78-6.72,5.44-6.13,3.41.55,6.81,4.1,7.49,7.85.72,3.9-1.53,6.66-4.9,6.39,4.2,24.53,8.81,48.99,15.58,72.96.04.12.1.25.15.38,13.52,10.67,28.15,19.98,43.69,27.75,3.47-2,6.29-3.62,11.51-7.53.88-.66,1.23-1.59.98-2.61-3.25-13.16-5.4-26.48-7.45-39.87-.15-1.08-.7-2.17-1.57-3.1-5.84-6.26-8.57-9.86-14.18-16.86-.83-1.04-1.37-2.23-1.52-3.4-.23-1.76-.34-2.65-.56-4.43-.2-.04-.4-.07-.59-.12-2.73-.73-5.31-2.84-6.54-5.65-.34-.77-.55-1.53-.64-2.27-.39-3.04,1.23-5.67,4.27-6.33.74-.16,1.5-.19,2.27-.1,3.16.35,6.34,2.68,7.69,5.92.33.79.53,1.57.61,2.32.32,3.1-1.38,5.69-4.39,6.27-.59.11-1.19.12-1.8.08.21,1.68.31,2.51.52,4.17.15,1.17.68,2.36,1.52,3.41,5.62,7.01,8.38,10.54,14.22,16.81.87.93,1.42,2.02,1.57,3.1,2.05,13.54,4.21,27.02,7.49,40.33.25,1.01-.1,1.94-.98,2.6-5.27,3.93-8.15,5.62-11.66,7.65,12.25,6.08,25.06,11.19,38.34,15.25-.19-.46-.39-.93-.59-1.44-3.44-.22-6.6-1.52-7.24-3.22-.69-1.82,1.86-3.38,5.69-3.3,3.83.08,7.41,1.75,8,3.55.57,1.75-1.82,2.98-5.37,3,.25.63.49,1.21.72,1.77,9.37,2.81,18.97,5.1,28.76,6.82-1.04-2.14-1.95-5.29-3.19-10.46-.16-.67-.89-1.33-2.05-1.84-8.07-3.56-12.24-5.57-20.72-10.04-1.22-.64-2.02-1.51-2.22-2.42-6.62-30.18-8.91-61.24-11.2-91.99-4.24-.5-7.77-3.9-8.04-7.92-.29-4.26,3.24-7.64,7.89-7.34,4.33.28,8.18,3.87,8.57,7.86.4,4.14-2.81,7.35-7.11,7.46,2.26,30.64,4.51,61.57,10.98,91.67.2.91,1,1.78,2.22,2.42,8.47,4.49,12.63,6.51,20.7,10.09.51.22.91.48,1.24.76-1.7-7.57-2.48-12.46-3.92-23.84-3.9-.27-7.24-2.44-7.6-5.16-.37-2.86,2.76-5.21,7.01-5.13,4.25.09,7.93,2.57,8.2,5.42.26,2.71-2.58,4.76-6.43,4.89,1.56,10.85,1.92,25.62,7.75,35.92,6.16,1.03,12.4,1.83,18.71,2.41.62-.05,1.31-.08,2.06-.09-4.9-16.25-4.45-35.33-5.43-52.02-.06-1.18-.78-2.33-2-3.19-8.55-6.03-12.93-9.23-21.79-15.96-1.27-.97-2.04-2.26-2.15-3.62-1.07-14.5-1.86-29.02-2.6-43.54-4.35-.43-7.92-3.76-8.12-7.75-.21-4.24,3.51-7.7,8.29-7.48,4.45.21,8.34,3.76,8.65,7.72.32,4.12-3.05,7.37-7.48,7.55.71,14.38,1.47,28.75,2.5,43.11.1,1.35.87,2.65,2.14,3.62,8.86,6.74,13.24,9.94,21.78,15.98,1.23.87,1.94,2.02,2,3.2.94,16.85.47,35.93,5.18,52.38,3.02.04,5.53.43,5.93.75,4.74.26,9.52.41,14.33.41,3.13,0,6.24-.08,9.35-.19h0ZM-122.44,149.47c3.97.1,7.21,3.65,7.57,8.07,37.15.84,80.49-3.08,116.95,6.35.04-3.16.46-5.46.76-5.2.01.01.03.03.04.06.03,3.97.05,7.95.06,11.95-.03.06-.06.08-.1.07-.3-.11-.72-2.7-.76-5.89-36.71-8.93-79.6-5.18-116.93-5.97-.25,4.41-3.41,7.85-7.37,7.8-4.17-.05-7.72-3.97-7.78-8.76-.06-4.79,3.4-8.58,7.57-8.47ZM-122.52,195.28c4.09-.22,7.39,3.28,7.64,7.78,14.28-.32,28.57-.66,42.85-1.12,1.34-.04,2.63-.77,3.57-2.01,6.59-8.67,9.72-12.93,15.63-21.18.17-.24.36-.44.55-.63-11.82-.05-23.63-.08-35.45-.11-.37,4.17-3.26,7.44-6.84,7.46-3.85.02-7.04-3.75-7.04-8.44,0-4.68,3.17-8.44,7.02-8.39,3.74.05,6.72,3.62,6.89,8.04,24.95.12,49.91.21,74.86.55v.03c9.12.13,12.31.2,14.93.35.04-3.18.46-5.6.76-5.5.04.01.07.07.11.16,0,.33,0,.67,0,1-.03-.11-.07-.19-.11-.2-.13-.04-.29.5-.41,1.41-.12.91-.21,2.2-.21,3.63,0,1.43.09,2.72.21,3.65.12.93.27,1.48.41,1.47.04,0,.08-.09.11-.2,0,.33,0,.66,0,.99-.03.08-.06.14-.09.16-.3.17-.74-2.33-.78-5.58-6.19-.14-12.39-.22-18.58-.27-3.79-.03-7.58-.05-11.36-.08-7.15-.03-14.3-.04-21.45-.08-1.17,0-2.31.65-3.15,1.84-5.9,8.26-9.02,12.52-15.6,21.19-.94,1.24-2.22,1.97-3.56,2.02-14.42.49-28.84.86-43.27,1.2-.36,4.41-3.6,7.97-7.57,8.08-4.21.11-7.7-3.75-7.56-8.61.13-4.52,3.57-8.39,7.51-8.61ZM-126.68,92.79c.78-.22,1.57-.3,2.36-.25.9.06,1.78.3,2.61.68.78.35,1.52.83,2.18,1.42,6.84-7.35,13.71-14.67,20.62-21.96,1-1.05,1.5-2.56,1.4-4.19-1.87-16.63-4.23-33.21-7.2-49.68-.2-1.1-.75-2.23-1.57-3.23-6.04-7.34-9.08-10.95-15.16-17.92-.42-2.17-.63-3.23-1.06-5.34-.18-.04-.37-.08-.55-.14-2.55-.77-5.07-2.68-6.35-5.02h0c-.35-.64-.58-1.26-.71-1.85-.51-2.43.84-4.27,3.5-4.5.65-.06,1.32-.01,2.01.12,2.82.54,5.77,2.52,7.23,5.09.36.62.6,1.24.73,1.83.55,2.42-.73,4.38-3.42,4.66-.53.06-1.08.02-1.64-.05.41,2.01.62,3.03,1.02,5.1,6.08,6.97,9.12,10.57,15.15,17.91.82,1,1.37,2.12,1.57,3.22,3.03,16.67,5.45,33.43,7.31,50.26.1,1.63-.4,3.14-1.39,4.19-6.96,7.36-13.89,14.75-20.78,22.17.86.95,1.56,2.09,2,3.4.29.86.45,1.73.49,2.58.16,3.49-1.72,6.63-4.88,7.59-.77.23-1.56.32-2.34.28-3.22-.18-6.36-2.61-7.62-6.2h0c-.31-.87-.47-1.75-.51-2.61-.17-3.52,1.81-6.66,5.01-7.58ZM-371.29,267.25c-.78.23-1.58.3-2.37.25-.9-.06-1.79-.3-2.63-.68-.79-.35-1.53-.83-2.2-1.42-6.89,7.39-13.82,14.75-20.78,22.07-1.01,1.06-1.51,2.57-1.41,4.21,1.79,16.72,4.16,33.33,7.02,49.9.19,1.1.74,2.23,1.56,3.23,6.05,7.36,9.1,10.97,15.18,17.96.41,2.17.62,3.24,1.04,5.35.19.04.37.08.56.14,2.57.76,5.09,2.68,6.37,5.02.35.64.58,1.26.7,1.85.5,2.43-.87,4.29-3.54,4.52-.65.06-1.33.01-2.02-.12-2.83-.53-5.79-2.51-7.25-5.09-.36-.63-.6-1.24-.73-1.83-.54-2.42.76-4.4,3.46-4.69.53-.06,1.09-.03,1.65.05-.41-2.02-.61-3.04-1-5.12-6.09-6.98-9.13-10.59-15.18-17.94-.82-1-1.37-2.13-1.57-3.23-2.92-16.76-5.34-33.57-7.14-50.49-.1-1.64.4-3.15,1.4-4.21,7.02-7.39,13.99-14.82,20.94-22.28-.87-.95-1.57-2.1-2.01-3.4-.29-.86-.45-1.74-.49-2.59-.16-3.5,1.73-6.65,4.92-7.62.77-.24,1.57-.33,2.35-.28,3.24.18,6.5,2.58,7.77,6.18h0c.31.87.47,1.75.51,2.61.16,3.53-1.92,6.7-5.14,7.62ZM-137.61,332.23c16.59-1.96,33.13-4.28,49.56-7.26,1.1-.2,2.22-.75,3.22-1.57,7.33-6.04,10.92-9.08,17.87-15.17,2.16-.42,3.22-.63,5.31-1.06.04-.18.08-.37.14-.55.77-2.55,2.67-5.07,5-6.35h0c.64-.35,1.25-.58,1.84-.71,2.41-.51,4.25.84,4.47,3.5.05.65,0,1.32-.12,2.01-.53,2.82-2.51,5.77-5.07,7.24-.62.36-1.23.6-1.82.73-2.41.55-4.36-.73-4.64-3.42-.05-.53-.02-1.08.05-1.64-2,.41-3.02.62-5.08,1.02-6.94,6.08-10.53,9.12-17.85,15.16-1,.82-2.12,1.37-3.21,1.57-16.63,3.03-33.36,5.41-50.14,7.37-1.63.1-3.14-.4-4.19-1.39-7.34-6.98-14.73-13.91-22.14-20.82-.94.86-2.09,1.56-3.4,2-.86.29-1.73.45-2.58.49-3.49.16-6.62-1.72-7.58-4.89-.23-.77-.32-1.56-.28-2.34.18-3.23,2.6-6.4,6.2-7.67.87-.31,1.75-.48,2.6-.52,3.52-.17,6.65,1.84,7.57,5.04.22.78.3,1.57.25,2.36-.06.9-.31,1.78-.68,2.62-.35.78-.83,1.52-1.42,2.19,7.34,6.85,14.65,13.74,21.93,20.66,1.05,1,2.56,1.5,4.19,1.4ZM-359.33,30.61c-1.05-1-2.56-1.5-4.19-1.4-16.61,1.95-33.13,4.31-49.6,7.21-1.1.2-2.22.74-3.22,1.57-7.33,6.05-10.92,9.09-17.87,15.18-2.16.41-3.22.63-5.31,1.05-.04.18-.08.37-.14.55-.76,2.56-2.67,5.08-4.99,6.36-.63.35-1.25.58-1.84.7-2.41.5-4.25-.85-4.47-3.51-.05-.65-.01-1.33.12-2.01.53-2.82,2.5-5.78,5.06-7.24.62-.36,1.23-.6,1.82-.73,2.41-.55,4.36.74,4.64,3.44.05.53.02,1.08-.05,1.64,2-.41,3.02-.61,5.08-1.01,6.94-6.08,10.53-9.13,17.85-15.17,1-.82,2.12-1.37,3.21-1.57,16.66-2.95,33.38-5.37,50.19-7.33,1.63-.1,3.14.4,4.19,1.4,7.35,7,14.74,13.96,22.17,20.88.94-.87,2.09-1.57,3.4-2.01.86-.29,1.73-.45,2.58-.49,3.49-.16,6.62,1.72,7.59,4.9.23.77.32,1.56.28,2.35-.18,3.24-2.59,6.46-6.19,7.73-.87.31-1.75.48-2.61.52-3.52.17-6.67-1.88-7.59-5.09-.22-.78-.3-1.58-.25-2.37.06-.9.3-1.79.68-2.63.35-.79.83-1.53,1.42-2.2-7.35-6.87-14.67-13.78-21.96-20.72ZM-350.37,283.03c-3.25-67.4-3.29-134.87-.18-202.27,67.43-3.11,134.92-3.09,202.34.11,3.18,67.33,3.14,134.73-.18,202.06-67.31,3.32-134.68,3.34-201.99.11ZM-241.87,433.54c-.35,0-.69,0-1.03,0,.25-.05.4-.11.42-.17.04-.14-.49-.31-1.41-.43-.91-.13-2.2-.22-3.63-.22-1.43,0-2.73.09-3.66.22-.93.13-1.49.29-1.48.43,0,.07.15.13.41.18-.34,0-.67,0-1.01,0-.2-.04-.32-.1-.35-.16-.16-.33,2.35-.78,5.62-.82.19-5.06.3-10.13.39-15.19h-.02c.09-7.18.16-14.36.22-21.54.02-5.06.04-10.12.08-15.18,0-1.17-.65-2.32-1.83-3.17-8.26-5.92-12.51-9.06-21.19-15.66-1.24-.95-1.97-2.23-2.02-3.58-.47-14.46-.81-28.92-1.13-43.38-4.42-.36-7.97-3.61-8.08-7.58-.11-4.22,3.77-7.77,8.63-7.63,4.53.13,8.4,3.62,8.6,7.57.22,4.1-3.29,7.41-7.8,7.66.3,14.32.62,28.64,1.05,42.96.04,1.35.77,2.64,2.01,3.58,8.67,6.61,12.92,9.75,21.17,15.68.24.17.44.36.63.55.07-11.86.13-23.72.18-35.58-4.17-.37-7.44-3.26-7.46-6.86-.02-3.86,3.77-7.06,8.45-7.07,4.69,0,8.44,3.17,8.38,7.03-.05,3.75-3.63,6.74-8.06,6.92-.15,25.08-.27,50.17-.73,75.25h-.03c-.17,9.22-.27,12.46-.47,15.19,3.18.04,5.6.47,5.5.8-.02.07-.14.12-.35.17Z"/>
</svg>