<?xml version="1.0" encoding="utf-8"?>
<!-- Generator: Adobe Illustrator 23.1.1, SVG Export Plug-In . SVG Version: 6.00 Build 0)  -->
<svg version="1.1" id="Capa_1" xmlns="http://www.w3.org/2000/svg" xmlns:xlink="http://www.w3.org/1999/xlink" x="0px" y="0px"
	 viewBox="0 0 595.28 595.28" style="enable-background:new 0 0 595.28 595.28;" xml:space="preserve">
<style type="text/css">
	.st0{fill:#17793E;}
	.st1{enable-background:new    ;}
	.st2{clip-path:url(#SVGID_2_);}
	.st3{fill:#FFFFFF;}
	.st4{clip-path:url(#SVGID_6_);}
</style>
<g>
	<g>
		<g class="st1">
			<g class="st1">
				<defs>
					<path id="SVGID_5_" class="st1" d="M170.26,520.67c36.42,20.69,80.01,29.71,126.88,23.41
						C250.27,550.38,206.68,541.36,170.26,520.67c-6.99-4.15-16.35-9.69-22.83-14.6c-5.46-4.14-12.74-9.68-17.98-14.1
						c-4.3-3.63-9.9-8.64-13.78-12.71c-4.6-4.83-10.76-11.26-15.1-16.32c-3.79-4.41-8.56-10.53-11.98-15.23
						c-3.87-5.33-8.71-12.66-12.14-18.28c-3.09-5.06-7.03-11.94-9.57-17.3c-2.82-5.95-6.56-13.89-9.03-19.99
						c-2.27-5.6-4.89-13.23-6.76-18.98c-3.39-10.48-6.79-24.84-8.4-35.73c-1.84-12.42-3.35-29.17-3.28-41.73
						c0.04-6.89,0.46-16.09,1.05-22.96c0.53-6.21,1.83-14.42,2.69-20.59c0.93-6.69,3.09-15.46,4.78-21.99
						c1.52-5.88,3.93-13.62,5.93-19.36c2.22-6.35,5.59-14.66,8.32-20.81c2.42-5.44,6.19-12.43,8.86-17.75
						c3.06-6.11,8.05-13.76,11.82-19.46c3.21-4.86,7.97-11.01,11.4-15.72c4.21-5.78,10.67-12.85,15.56-18.07
						c3.85-4.12,9.18-9.44,13.39-13.19c5.91-5.26,14.08-11.96,20.33-16.81c4.15-3.22,9.98-7.14,14.4-9.99
						c4.41-2.84,10.47-6.33,15.01-8.96c7.68-4.46,18.41-9.6,26.69-12.82c5.4-2.1,12.62-4.84,18.12-6.63
						c5.61-1.81,13.18-3.95,18.91-5.35c5.37-1.31,12.59-2.86,18.04-3.74c2.56-0.42,5.97-0.98,8.55-1.3
						c3.95-0.5,9.22-1.05,13.19-1.43c0.3-0.03,7.37-0.69,17.55-0.84c7.26-0.11,13.7,0.18,16.8,0.32c3.7,0.17,12.26,0.82,18.06,1.56
						c5.75,0.74,5.75,0.74,13.82,2.06c2.22,0.36,5.15,0.99,7.36,1.41c7.37,1.42,21.86,5.23,30.86,8.43
						c5.33,1.9,12.4,4.58,17.62,6.75c4.03,1.68,9.33,4.11,13.22,6.08c5.63,2.85,13.03,6.87,18.47,10.08
						c4.53,2.67,10.46,6.44,14.72,9.52c8.73,6.3,18.62,13.45,31.07,25.38c13.63,13.06,23,24.8,27.37,30.64
						c6.64,8.87,13.95,19.23,22.33,34.87c5.66,10.56,11.69,25.41,15.96,36.6c2.38,6.23,4.7,14.83,6.35,21.29
						c1.52,5.96,2.95,14.05,4.2,20.07c1.39,6.65,2.34,15.69,2.77,22.47c0.48,7.71,1.18,18.03,0.76,25.74
						c-0.34,6.3-0.6,14.71-1.26,20.99c-0.71,6.8-1.78,15.87-3.28,22.54c-1.35,5.98-2.98,14-4.63,19.91
						c-1.83,6.55-4.59,15.19-6.96,21.56c-2.09,5.62-5.14,13.01-7.7,18.44c-2.95,6.26-7.09,14.54-10.65,20.48
						c-6,10.01-14.93,22.79-21.95,32.11c-4.32,5.74-11,12.65-15.81,17.99c-3.76,4.18-9.25,9.32-13.49,13.01
						c-6.02,5.24-14.39,11.84-20.69,16.74c-4.91,3.82-11.87,8.36-17.22,11.51c-7.69,4.52-18.2,10.14-26.23,14.03
						c-5.69,2.76-13.53,5.87-19.46,8.06c-5.56,2.05-13.09,4.49-18.81,6.05c-11.37,3.1-16.51,4.19-27.17,6.12
						c-4.86,0.88-14.54,2.17-21.7,2.72c-5.08,0.39-9.08,0.63-11.87,0.7c-8.36,0.22-8.68,0.21-16.85,0.05
						c-1.09-0.02-11.03-0.25-23.66-1.79c-7.49-0.91-13.76-2.05-13.82-2.06c-6.38-1.17-6.38-1.17-16.62-3.51
						c-7.9-1.81-17.5-4.98-21.6-6.33c-5.38-1.78-12.46-4.43-17.62-6.75C188.62,530.12,178.08,524.81,170.26,520.67z"/>
				</defs>
				<clipPath id="SVGID_2_">
					<use xlink:href="#SVGID_5_"  style="overflow:visible;"/>
				</clipPath>
				<g class="st2">
					<path class="st0" d="M353.23,179.05c0.58,3.64,5.53,5.91,7.98,2.71c0.74-0.96,0.81-1.96,0.78-2.47
						c-0.46-4.54-5.73-5.92-8.02-3.06C353.6,176.69,353.01,177.67,353.23,179.05 M326.45,177.75c0.48,3.69,5.48,5.74,8.09,2.36
						c0.56-0.73,0.84-1.57,0.81-2.5c-0.36-4.47-5.86-5.71-8.15-2.77C326.84,175.31,326.26,176.31,326.45,177.75 M304.09,118.59
						C304.09,118.6,304.09,118.6,304.09,118.59c0,0.01,0,0.01,0,0.01s0,0,0,0.01s0,0,0,0.01s0,0,0,0.01s0,0,0,0.01s0,0,0,0.01
						c0.28,3.65,5.5,4.44,7.62,1.91c0.64-0.76,0.66-1.4,0.67-1.79c-0.12-2.68-4.59-5.03-7.36-2.25
						C304.16,117.37,304.11,118.19,304.09,118.59C304.09,118.59,304.09,118.59,304.09,118.59 M257.06,177.57
						c-0.1,3.11,4.56,5.85,7.81,2.64c1.25-1.24,1.35-2.5,1.4-3.05c0,0,0-0.01,0-0.01c0,0,0-0.01,0-0.01c0,0,0-0.01,0-0.01
						c0,0,0-0.01,0-0.01c0,0,0-0.01,0-0.01c0,0,0-0.01,0-0.01c0,0,0-0.01,0-0.01c0,0,0-0.01,0-0.01c-0.17-4.4-5.25-5.15-8-2.16
						C257.92,175.32,257.1,176.34,257.06,177.57 M336.93,114.59c-0.33-1.79-0.52-4.21-0.73-6.01c-1.41-12.05-4.2-29.41-7.77-41.99
						c-0.19-0.66-0.53-1.53-0.52-2.21c0.11-6.07,11.06-3.46,9.26-9.42c-0.04-0.15-4.7-14.91-23.19-16.53
						c0.24,0.01,0.55,0.03,0.78,0.05l1.22,0.1c3.75,0.38,4.55,0.55,5.66,0.8c0.67,0.19,0.68,0.19,0.68,0.19s0,0,0.01,0
						c0,0,0,0,0.01,0c0,0,0,0,0.01,0c0,0,0,0,0.01,0s0,0,0.01,0s0,0,0.01,0c0,0,0,0,0.01,0c10.89,4.08,16.83,15.73,16.86,15.84
						c1.79,6.41-9.8,4.59-8.67,11.15c1.76,10.29,5.31,20.18,6.76,30.54c2.23,15.87,2.23,15.87,14.89,29
						c1.65,1.72,2.65,2.75,5.22,39.08c0.02,0.24,0.03,0.48,0.05,0.73c0.02,0.24,0.03,0.48,0.05,0.73c0.02,0.24,0.03,0.48,0.05,0.72
						c0.02,0.24,0.03,0.47,0.05,0.71c0.02,0.23,0.03,0.47,0.05,0.7c0.01,0.23,0.03,0.45,0.04,0.68c0.01,0.22,0.03,0.44,0.04,0.66
						c0.01,0.21,0.03,0.43,0.04,0.64c12.38,8.14,5.86,14.66,2.8,15.32c-8.42,1.81-12.55-7.61-9.72-11.25
						c2.98-3.84,2.98-3.84,1.86-31.46c-0.35-8.64-0.51-12.59-5.06-17.85C344.33,121.63,338.05,120.65,336.93,114.59 M318.65,102.69
						c0,0,0-0.01,0-0.01c-0.4-6.81-2.45-13.48-1.7-20.39c0.15-1.41,1.18-2.09,1.73-2.45c2.51-1.64,2.66-1.74,0.16-14.78
						c-0.99-5.18-1.76-8.29-2.93-11.89c-1.28-3.93,0.45-5.08,2.32-5.93c1.24-0.56,0.88-1.33,0.64-1.84
						c-2.94-6.3-6.17-6.65-12.62-7.34c0.18,0,0.43,0,0.61,0l0.1,0c5.66,0.44,7.1,1.04,7.64,1.27c0,0,0,0,0,0s0,0,0,0c0,0,0,0,0,0
						s0,0,0,0c0,0,0,0,0,0c0,0,0,0,0,0c0,0,0,0,0,0s0,0,0,0c4.43,2.87,6.38,7.15,6.4,7.19c-0.9,1.88-4,1.96-3.85,4.7
						c0.15,0.53,0.15,0.53,0.15,0.54c0,0,0,0.01,0,0.01c0,0,0,0.01,0,0.01c0,0,0,0.01,0,0.01c0,0,0,0.01,0,0.01c0,0,0,0.01,0,0.01
						c0,0,0,0.01,0,0.01c0,0,0,0.01,0,0.01c3.76,10.9,5.79,25.39,5.81,25.53c0.04,0.33,0.06,0.78-0.03,1.09
						c-0.55,2-2.95,2.54-3.54,4.5c-0.17,0.58-0.17,0.58,0.45,5.76c0.69,5.69,0.96,10.03,1.09,12.12c0.22,3.58,1.68,4.78,3.56,5.99
						c4.52,2.9,5,3.21,7.15,56.07c0.01,0.27,0.02,0.54,0.03,0.81c0.01,0.27,0.02,0.54,0.03,0.81c0.01,0.27,0.02,0.54,0.03,0.81
						c0.01,0.27,0.02,0.54,0.03,0.81c0.01,0.27,0.02,0.54,0.03,0.81c0.01,0.27,0.02,0.54,0.03,0.82c0.01,0.27,0.02,0.55,0.03,0.82
						c0.01,0.28,0.02,0.55,0.03,0.83c14.36,10.56,0.8,15.23,0.63,15.26c-6.84,1.04-12.25-6.25-8.39-11.3
						c5.44-7.13,5.44-7.13,2.15-57.59c0-0.01,0-0.02,0-0.03c0-0.01,0-0.02,0-0.03c0-0.01,0-0.02,0-0.03c0-0.01,0-0.02,0-0.03
						c0-0.01,0-0.02,0-0.03c0-0.01,0-0.02,0-0.03c0-0.01,0-0.02,0-0.03c0-0.01,0-0.02,0-0.03c-0.63-5.46-6.82-7.53-7.8-12.78
						c0,0,0-0.01,0-0.01c0,0,0-0.01,0-0.01c0,0,0-0.01,0-0.01c0,0,0-0.01,0-0.01c0,0,0-0.01,0-0.01c0,0,0-0.01,0-0.01
						C318.65,102.7,318.65,102.69,318.65,102.69 M300.95,118.98c-0.35-2.79,1.75-4.08,2.54-4.57c2.82-1.73,3.05-2.95,2.99-5.97
						c-0.02-0.57-0.03-1.13-0.05-1.69c-0.02-0.56-0.03-1.12-0.05-1.67c-0.02-0.55-0.03-1.11-0.05-1.66
						c-0.02-0.55-0.03-1.09-0.05-1.64c-0.02-0.54-0.03-1.08-0.05-1.62c-0.02-0.54-0.03-1.07-0.05-1.6
						c-0.02-0.53-0.03-1.06-0.05-1.58c-0.02-0.52-0.03-1.04-0.05-1.56c-0.1-3.93-0.29-7.86-0.43-11.79
						c-0.12-3.14,3.63-4.62,3.38-7.82c-0.6-7.71-1.71-22.07-3.63-31.26c-0.39-1.88-2.49-1.61-3.47-2.75
						c-0.05-0.17-0.05-0.17-0.05-0.17c0,0,0,0,0,0c0,0,0,0,0,0c0,0,0,0,0,0c0,0,0,0,0,0c0,0,0,0,0,0c0,0,0,0,0,0s0,0,0,0
						c-0.49-2.79-0.75-3.12-1.19-3.67c0.25-0.01,0.59-0.02,0.84-0.02l0.02,0c0.13,0.07,0.33,0.12,0.43,0.24
						c0.92,1.05,0.69,2.6,1.58,3.66c0.82,0.98,2.61,0.4,3.09,1.93c1.27,4.12,2.52,11.76,3.71,22.68c0.01,0.1,1.08,10.69,0.97,11.64
						c-0.22,1.9-2.32,2.57-2.81,4.3c-0.06,0.22-0.06,0.22,0.63,19.61c0.37,10.29,0.37,10.29,2.65,12.06c3.03,2.34,3.5,2.7,3.52,4.65
						c0.04,3.87-3.36,5.21-4.41,5.53C306.4,125.59,301.46,123,300.95,118.98 M286.28,49.17c0.02-0.2,0.83-3.26,2.1-6.78
						c0.24-0.61,0.24-0.61,0.24-0.61c0,0,0,0,0,0c0,0,0,0,0,0c0,0,0,0,0,0c0,0,0,0,0,0c0,0,0,0,0,0c0,0,0,0,0,0c0,0,0,0,0,0
						c0.66-0.68,1.28-1.33,9.99-3.86l0,0c0,0.22,0,0.52-0.01,0.75c-10.9,4.74-10.9,4.74-10.52,10c0.08,1.15,0.79,1.55,2.5,2.5
						c9.08,5.07,9.09,5.11,9.47,7.4c0,0,0,0.01,0,0.01c0,0,0,0.01,0,0.01c0,0,0,0.01,0,0.01c0,0,0,0.01,0,0.01c0,0,0,0.01,0,0.01
						c0,0,0,0.01,0,0.01c0,0,0,0.01,0,0.01c0,0,0,0.01,0,0.01c0,3.14,0,10.49,0.27,20.41c0.15,5.28-6.08,7.27-6.37,12.32
						c0,0.01,0,0.01,0,0.02s0,0.01,0,0.02c0,0.01,0,0.01,0,0.02s0,0.01,0,0.02c0,0.01,0,0.02,0,0.02c0,0.01,0,0.02,0,0.02
						c0,0.01,0,0.02,0,0.02c0,0.01,0,0.02,0,0.02c-0.34,46.16-0.34,46.16,7.24,51.38c2.96,2.04,6.65,4.58,9.2,9.78
						c0.33,0.68,0.66,1.64,0.88,2.36c1.3,4.27-0.62,8.67,0.51,12.95c0.95,3.57,5.53,4.66,5.92,8.62c0.51,5.28-7.52,10.55-12.8,4.91
						c-0.84-0.9-1.45-2.02-1.88-3.43c-0.41-1.35-0.73-3.87,1.68-5.5c3.86-2.61,3.86-2.61,3.86-15.99
						c0-12.48-17.83-11.11-18.15-23.35c0-0.01,0-0.01,0-0.02c0-0.01,0-0.01,0-0.02c0-0.01,0-0.01,0-0.02c0-0.01,0-0.01,0-0.02
						s0-0.01,0-0.02s0-0.01,0-0.02s0-0.01,0-0.02s0-0.01,0-0.02c0.42-14.57-0.89-29.18,1.17-43.7c0.57-4,5.3-5,6.29-8.71
						c0.04-0.73,0.04-0.73,0.04-0.73c0,0,0-0.01,0-0.01s0-0.01,0-0.01s0-0.01,0-0.01c0,0,0-0.01,0-0.01c0,0,0-0.01,0-0.01
						c0,0,0-0.01,0-0.01c0,0,0-0.01,0-0.01c-0.09-7.61-0.06-13.64,0.1-20.82c0,0,0-0.01,0-0.01c0,0,0-0.01,0-0.01s0-0.01,0-0.01
						c0,0,0-0.01,0-0.01c0,0,0-0.01,0-0.01s0-0.01,0-0.01c0,0,0-0.01,0-0.01c0,0,0-0.01,0-0.01
						C297.04,52.21,286.79,56.38,286.28,49.17 M271.62,53.17C271.62,53.16,271.62,53.16,271.62,53.17
						c6.79-14.8,10.57-14.92,18.86-15.18l-1.01,0.04c-15.19,1.09-16.61,16.07-15.09,17.33c10.56,8.8,10.56,8.8,10.55,10.08
						c0,0,0,0.01,0,0.01c0,0,0,0.01,0,0.01c0,0,0,0.01,0,0.01c0,0,0,0.01,0,0.01c0,0,0,0.01,0,0.01c0,0,0,0.01,0,0.01
						c0,0,0,0.01,0,0.01c0,0,0,0.01,0,0.01c-2.08,15.25,0.15,30.89-4.12,45.95c-2.11,7.46-10.97,9.37-13.55,16.44
						c-0.12,0.34-7.37,37.86,0.88,44.98c0.6,0.52,2.43,2.1,1.55,5.53c-1.66,6.43-11.3,8.47-14.74,3.13
						c-3.95-6.14,3.01-10.35,6.35-12.38c0.01-0.3,1.74-34.23,1.74-34.25c0.54-6.09,1.86-8.31,3.98-11.25
						c2.51-3.49,6.84-4.71,9.69-7.78c1.15-1.24,1.15-1.24,2.45-17.53c2.84-35.69,2.84-35.69,2.05-36.25
						c-10.1-7.1-10.1-7.1-9.59-8.92c0,0,0-0.01,0-0.01c0,0,0-0.01,0-0.01c0,0,0-0.01,0-0.01c0,0,0-0.01,0-0.01c0,0,0-0.01,0-0.01
						C271.61,53.18,271.61,53.18,271.62,53.17C271.61,53.17,271.61,53.17,271.62,53.17"/>
					<path class="st0" d="M347.05,351.87c-0.04,3.4,3.36,6.28,6.44,3.18c0.58-0.59,1.32-1.6,1.52-3.08
						c0.37-4.46-3.78-5.71-6.22-3.71C347.2,349.57,347.06,351.35,347.05,351.87 M323,350.13C323,350.13,323,350.13,323,350.13
						c0,0.01,0,0.01,0,0.02s0,0.01,0,0.01s0,0.01,0,0.01c0,0,0,0.01,0,0.01s0,0.01,0,0.01s0,0.01,0,0.01
						c-0.04,4.2,3.71,6.32,6.48,3.66c0.64-0.61,1.43-1.68,1.55-3.3c0.14-4.63-4.28-5.75-6.63-3.53
						C323.23,348.13,323.08,349.47,323,350.13C323,350.12,323,350.13,323,350.13 M302.06,416.19c0.19,3.4,3.57,4.8,5.66,2.35
						c0.36-0.43,0.99-1.34,1.06-2.66c0.01-3.33-3.11-5.7-5.49-3.21C302.78,413.2,301.96,414.35,302.06,416.19 M260.59,350.56
						c0.22,2.76,4.27,6.2,7.04,3.14c1.26-1.4,1.24-3.03,1.24-3.56c-0.32-4.47-4.97-5.59-7.27-2.72
						C260.57,348.7,260.55,350.04,260.59,350.56 M326.87,431.46c1.82-11.56,4.95-15.82,10.86-20.5c3.5-2.77,3.5-2.77,6.02-19.62
						c4.7-31.38,4.7-31.38,1.51-35.43c-1.86-2.35-1.09-5.22-0.8-6.04c2.21-6.43,8.47-7.64,11.72-3.88
						c2.37,2.74,4.79,8.29-5.65,14.61c-0.03,0.28-0.07,0.55-0.1,0.83c-0.04,0.28-0.07,0.56-0.11,0.84
						c-0.04,0.28-0.07,0.57-0.11,0.85c-0.04,0.29-0.07,0.58-0.11,0.86c-0.04,0.29-0.08,0.58-0.11,0.87
						c-0.04,0.29-0.08,0.58-0.11,0.88c-0.04,0.29-0.08,0.59-0.12,0.88c-0.04,0.3-0.08,0.59-0.12,0.89
						c-3.05,22.33-5.94,38.62-5.95,38.71c-0.73,3.48-1.74,4.43-9.57,11.81c-3.06,2.89-3.06,2.89-6.28,21.83
						c-3.97,23.39-7.82,39.56-8.55,42.57c-1.79,7.37-1.79,7.37-1.52,8.93c0.87,5.01,4.26,9.58,2.64,15.03
						c-0.05,0.17-6.16,18.34-23.25,37.7l0.37-0.46c15.09-17.8,21.32-35.81,21.57-36.57c2.36-6.93-3.73-12.78-2.48-19.57
						c0-0.01,0-0.01,0-0.02c0-0.01,0-0.01,0-0.02c0-0.01,0-0.01,0-0.02c0-0.01,0-0.01,0-0.02c0-0.01,0-0.01,0-0.02
						c0-0.01,0-0.01,0-0.02s0-0.01,0-0.02c0-0.01,0-0.01,0-0.02C322.36,462.61,323.68,453.49,326.87,431.46 M312.91,437.78
						c0.45-4.75,1.59-6.55,3.82-8.59c2.67-2.44,3.89-3.56,8.35-69.91c-11.9-13.26,1.2-16.83,2.67-16.72c4.33,0.32,10.9,7,1.34,15.46
						c-0.42,0.37-0.99,0.83-1.42,1.18c-2.82,37.54-5.93,64.6-5.95,64.73c-0.77,4.75-5.36,7.45-6.43,12.03
						c-0.24,1.02-0.33,2.06-0.46,3.63c-0.4,4.75-0.94,9.96-1.64,15.91c-0.62,5.31,1.99,10.33,1.33,15.64l-6.78,49.07
						c-0.16,0.97-0.16,0.97-10.61,23.87l0.12-0.31c7.36-16.54,7.36-16.54,14.59-65.53c1.08-7.32-1.36-14.55-0.58-21.86
						c1.02-9.5,1.34-14.06,1.58-17.92C312.87,438.26,312.89,437.99,312.91,437.78 M299.5,416.47c-0.51-6.27,5.49-9.55,9.3-6.54
						c1.74,1.38,2.68,4.14,2.29,6.72c-0.47,3.06-3.43,4.62-4.44,7.35c-0.12,0.32-0.12,0.32-2.13,35.27c0,0.01,0,0.02,0,0.03
						c0,0.01,0,0.02,0,0.03s0,0.02,0,0.03s0,0.02,0,0.03s0,0.02,0,0.03c0,0.01,0,0.02,0,0.03c0,0.01,0,0.02,0,0.03
						c0,0.01,0,0.02,0,0.03c-0.03,1.03-0.12,3.45,0.78,5.21c1.32,2.58,1.32,2.58-0.05,18.26c-1.69,19.42-1.69,19.42-8.1,61.09
						c-0.01,0.04-0.01,0.04-0.01,0.04l0.05-0.46c7.43-70.02,7.43-70.02,7.48-73c0.05-2.97-0.67-4.24-1.31-5.35
						c-0.95-1.65-0.95-1.65,0.15-30.09c0.45-11.66,0.45-11.66-1.94-14.22C300.96,420.31,299.7,418.96,299.5,416.47 M293.59,529.64
						C293.59,529.63,293.59,529.63,293.59,529.64c-3.59-18.51-3.59-18.51,1.2-26.58c1.3-2.2,2.09-3.52,2.12-7.09
						c0-0.51-0.01-1.19-0.02-1.7c-0.05-5.15-0.1-12.24-0.06-21.35c0.04-7.36-4.09-13.79-4.68-21c0-0.01,0-0.02,0-0.02
						c0-0.01,0-0.02,0-0.02c0-0.01,0-0.02,0-0.02c0-0.01,0-0.02,0-0.02c0-0.01,0-0.02,0-0.03c0-0.01,0-0.02,0-0.03
						c0-0.01,0-0.02,0-0.03s0-0.02,0-0.03c-1.21-52.73-1.21-52.73-0.52-56.23c2.24-11.36,16.07-16.81,15.17-29.77
						c-0.45-6.46-7.58-11.32-4.46-18.63c2.33-5.47,8.27-5.29,10.91-2.27c1.55,1.77,2.14,4.01,1.77,6.68
						c-0.5,3.52-4.39,4.85-5.23,8.15c-1.33,5.21,0.22,10.58-0.89,15.8c-0.54,2.56-2.53,4.64-3.28,5.43
						c-11.54,12.11-11.67,12.87-12.29,16.53c-2.97,17.44,0.47,34.81,0.59,52.21c0.05,6.79,4.73,12.47,4.61,19.31
						c-0.12,6.51-0.27,17.21-0.38,27.28c-0.09,8.29-6.85,14.99-5.58,23.6c1.2,8.12,4.69,15.81,4.58,24.18
						c-0.01-0.12-0.01-0.28-0.02-0.41c-0.1-3.22-0.1-3.22-3.32-12.99c-0.21-0.88-0.21-0.88-0.21-0.89c0,0,0-0.01,0-0.01
						c0,0,0-0.01,0-0.01c0,0,0-0.01,0-0.01c0,0,0-0.01,0-0.01C293.59,529.65,293.59,529.65,293.59,529.64
						C293.59,529.64,293.59,529.64,293.59,529.64 M294.77,540.14l-0.22-0.4c-8.11-15.32-12.93-33.93-12.94-34.05
						c-0.98-8.41,5.75-15.27,4.77-23.68c-1.99-17.15-4.46-45.49-4.64-51.77c-0.26-9.55-0.26-9.55-9.88-19.49
						c-3.41-3.46-3.85-3.91-7.14-51.84c-12.82-7.45-4.54-15.37-2.35-16.12c6.31-2.16,12.15,5.52,8.68,11.42
						c-1.5,2.55-11.4,39.27,9.62,62.22c0.51,0.58,0.51,0.58,7.76,71.27c0,0,0,0.01,0,0.01c0,0,0,0.01,0,0.01c0,0,0,0.01,0,0.01
						c0,0,0,0.01,0,0.01c0,0,0,0.01,0,0.01c0,0,0,0.01,0,0.01s0,0.01,0,0.01c0,0,0,0.01,0,0.01c0.29,6.83-6.56,11.56-5.46,18.63
						c1.48,9.59,4.68,16.66,14.17,37.64l-0.01-0.02C296.4,542.72,295.54,541.46,294.77,540.14"/>
					<path class="st0" d="M224.76,207.91C224.76,207.91,224.76,207.91,224.76,207.91c0,0.01,0,0.01,0,0.02c0,0,0,0.01,0,0.01
						c0,0,0,0.01,0,0.01c0,0,0,0.01,0,0.01c0,0,0,0.01,0,0.01c0,0,0,0.01,0,0.01c0.17,3.79,4.64,5.81,7.81,2.46
						c1.34-1.42,1.44-2.7,1.49-3.25c0,0,0-0.01,0-0.01c0,0,0,0,0-0.01c0,0,0,0,0-0.01c0,0,0,0,0-0.01c0,0,0,0,0-0.01c0,0,0,0,0-0.01
						c0,0,0,0,0-0.01c0,0,0,0,0-0.01c-0.3-4.26-5.42-5.62-8.18-2.17C224.89,206.19,224.8,207.34,224.76,207.91
						C224.76,207.9,224.76,207.9,224.76,207.91 M74.29,206.72c2.74-14.34,13.3-44.25,19.16-52.11c0.3-0.4,32.18-42.43,47.31-58.02
						c3.15-3.24,19.74-19.9,37.56-29.45l-0.3,0.16c-11.29,6.06-35.64,29.24-35.83,29.45c-2.71,2.91-6.8,7.3-11.43,13.12
						c-0.34,0.43-34.76,43.99-37.24,48.09c-4.61,7.63-14.69,37.08-15.87,46.35c-0.25,1.94,5.17,15.57,7.97,15.9
						c0.27,0.03,32.7-5.88,39.45-16.17c7.7-11.73,51.24-13.61,51.65-13.57c11.14,0.95,13.81,14.55,24.4,16.32
						c0.15,0.03,17.3,0.68,23.62-4.96c2.61-2.33,4.67-2.55,6.97-2.15c0.42,0.07,0.95,0.31,1.35,0.47c4.62,1.84,6.03,8.99,1.2,13.22
						c-5.65,4.95-10.53-1.42-15.85-1.57c-6.81-0.2-13.4,1.89-20.19,1.94c-0.52,0-1.23,0.03-1.73-0.11
						c-8.4-2.28-11.25-11.02-17.89-15.35c-3.92-2.56-45.36,1.45-52.16,11.73c-1.21,1.83-2.86,4.33-5.69,5.49
						c-0.3,0.12-0.73,0.24-1.04,0.34c-6.15,2-12.5,3.33-18.65,5.33c-5.88,1.91-10.76,6.57-17.41,6.4
						c-3.84-0.1-9.66-18.19-9.66-18.37C74.01,208.45,74.15,207.45,74.29,206.72"/>
					<path class="st0" d="M384.32,210.14c0.5,3.95,5.39,6.4,7.92,2.94c0.71-0.98,0.76-1.86,0.79-2.39c0,0,0-0.01,0-0.01
						c0,0,0,0,0-0.01c0,0,0,0,0-0.01c0,0,0,0,0-0.01c0,0,0,0,0-0.01c0,0,0,0,0-0.01c0,0,0,0,0-0.01c0,0,0-0.01,0-0.01
						c-0.34-4.07-4.93-7-7.71-3.82C384.54,207.71,384.17,208.93,384.32,210.14 M381.13,210.03l-0.03-1.36
						c0.51-3.45,2.24-5.6,5.14-6.39c1.53-0.42,3.89-0.38,6.49,2.17c3.31,3.25,3.31,3.25,19.66,5.53
						c12.76,1.78,11.67-16.18,23.15-16.24c0.37,0,40.48,4.15,47.67,14.46c3.69,5.3,3.69,5.3,5,5.95c0.23,0.11,0.52,0.28,0.76,0.38
						l31.2,12.16c3.11,0.36,7.23-13.24,7.25-13.38c0.17-1.12,0.01-2.81-0.48-5.01c0-0.01,0-0.01,0-0.02c0-0.01,0-0.01,0-0.02
						c0-0.01,0-0.01,0-0.02c0-0.01,0-0.01,0-0.02c0-0.01,0-0.01,0-0.02c0-0.01,0-0.01,0-0.02c0-0.01,0-0.01,0-0.02
						c0-0.01,0-0.01,0-0.02c-4.59-18.43-9.49-30.54-14.1-40.89c0-0.01-0.01-0.01-0.01-0.02c0-0.01-0.01-0.01-0.01-0.02
						c0-0.01-0.01-0.01-0.01-0.02c0-0.01-0.01-0.01-0.01-0.02c0-0.01-0.01-0.01-0.01-0.02c0-0.01-0.01-0.01-0.01-0.02
						s-0.01-0.01-0.01-0.02c0-0.01-0.01-0.01-0.01-0.02c-5.94-12.5-17.37-20.81-24.64-32.3c0-0.01-0.01-0.01-0.01-0.02
						s-0.01-0.01-0.01-0.02c0-0.01-0.01-0.01-0.01-0.02c0-0.01-0.01-0.01-0.01-0.02c0-0.01-0.01-0.01-0.01-0.02
						s-0.01-0.01-0.01-0.02c0-0.01-0.01-0.01-0.01-0.02c0-0.01-0.01-0.01-0.01-0.02c-22.22-34.68-46.1-52.73-58.36-60.4
						c1.39,0.85,3.25,1.98,4.65,2.84l0.01,0.01c2.99,1.95,18.81,12.66,36.81,32.55l41.64,54.09c7.04,12.4,16.4,41.08,17.84,50.7
						c0.94,6.27-6.47,18.98-7.36,19.27c-0.04,0.01-34.84-13.13-35.13-13.27c-3.56-1.7-5.08-4.28-6.43-6.56
						c-2.57-4.35-2.57-4.35-18.93-8.19c-26.25-6.17-26.25-6.17-30.55-1.34c-11.71,13.13-12.63,13.02-15.7,12.67
						c-5.6-0.65-11.11-1.92-16.75-2.32c-4.31-0.31-7.28,4.1-11.72,3.36C385.53,217.65,381.63,214.55,381.13,210.03"/>
					<path class="st0" d="M229.3,323.01c0.74,3.78,5.6,5.44,7.92,1.71c0.69-1.1,0.66-1.99,0.65-2.53c0,0,0,0,0-0.01c0,0,0,0,0-0.01
						s0,0,0-0.01s0,0,0-0.01c0,0,0,0,0-0.01c0,0,0,0,0-0.01c0,0,0,0,0-0.01c0,0,0,0,0-0.01c-0.8-5.4-6.17-5.23-7.91-2.62
						C229.02,320.91,229.19,322.42,229.3,323.01 M297.14,544.08L287,542.4c-41.46-8.86-57.3-19.08-57.95-19.51l-38.76-29.88
						c-14.25-11.95-25.03-27.41-39.53-39.1c-6.52-5.26-14.69-7.92-21.05-13.43c-0.42-0.36-0.97-0.84-1.38-1.21
						c-0.92-0.81-1.9-2.14-2.66-3.11c0-0.01-0.01-0.01-0.01-0.02c0-0.01-0.01-0.01-0.01-0.02c0-0.01-0.01-0.01-0.01-0.02
						c0-0.01-0.01-0.01-0.01-0.02c0-0.01-0.01-0.01-0.01-0.02c0-0.01-0.01-0.01-0.01-0.02c0-0.01-0.01-0.01-0.01-0.02
						c0-0.01-0.01-0.01-0.01-0.02c-10.81-15.02-18.57-27.75-26.79-43.95c0-0.01-0.01-0.01-0.01-0.02c0-0.01-0.01-0.01-0.01-0.02
						c0-0.01-0.01-0.01-0.01-0.02s-0.01-0.01-0.01-0.02c0-0.01-0.01-0.01-0.01-0.02c0-0.01-0.01-0.01-0.01-0.02
						c0-0.01-0.01-0.01-0.01-0.02c0-0.01-0.01-0.01-0.01-0.02c-4.67-9.84-0.02-32.5,0.08-32.61c1.91-2.21,33.41-13.61,38.36-11.73
						c3.04,1.16,4.35,5.18,8.22,4.98c2.11-0.11,39.41-7.4,39.57-7.46c10.93-4.27,6.82-21.3,20.04-23.62
						c0.59-0.1,15.35-1.46,15.49-1.48c5.38-0.49,8.26-7.38,14.5-5.69c7.35,1.99,8.25,12.81,1.3,15.65c-3.18,1.3-5.81-0.54-6.68-1.15
						c-3.77-2.63-3.77-2.63-21.04-0.83c-14.25,1.49-9.29,20.37-21.48,23.72c-4.13,1.13-40.56,10.91-47.35,4.78
						c-5.8-5.23-22.6,0.98-35.68,7.1c-3.72,1.74-4.82,21.81-1.6,29.03c0,0.01,0.01,0.01,0.01,0.02c0,0.01,0.01,0.01,0.01,0.02
						c0,0.01,0.01,0.01,0.01,0.02c0,0.01,0.01,0.01,0.01,0.02c0,0.01,0.01,0.01,0.01,0.02c0,0.01,0.01,0.01,0.01,0.02
						c0,0.01,0.01,0.01,0.01,0.02c0,0.01,0.01,0.01,0.01,0.02c7.3,14.39,14.14,25.86,23.61,39.59c0,0.01,0.01,0.01,0.01,0.02
						c0,0.01,0.01,0.01,0.01,0.02c0,0.01,0.01,0.01,0.01,0.02c0,0.01,0.01,0.01,0.01,0.02c0,0.01,0.01,0.01,0.01,0.02
						c0,0.01,0.01,0.01,0.01,0.02c0,0.01,0.01,0.01,0.01,0.02c0,0.01,0.01,0.01,0.01,0.02c7.42,10.05,20.62,12.46,28.66,21.69
						c0,0.01,0.01,0.01,0.01,0.02c0,0.01,0.01,0.01,0.01,0.02c0,0.01,0.01,0.01,0.01,0.02c0,0.01,0.01,0.01,0.01,0.02
						c0,0.01,0.01,0.01,0.01,0.02c0,0.01,0.01,0.01,0.01,0.02s0.01,0.01,0.01,0.02c0,0.01,0.01,0.01,0.01,0.02
						c63.62,76.18,112.48,84.66,141.67,89.73C296.48,543.97,296.99,544.05,297.14,544.08"/>
					<path class="st0" d="M378.16,324.62c-0.15,3.74,3.47,6.3,6.54,3.51c0.62-0.56,1.4-1.55,1.61-3.03c0.4-4.27-3.56-6.27-6.29-4.17
						C378.91,321.77,378.22,323.15,378.16,324.62 M375.15,324.65l0.17-1.38c2.12-7.5,8.13-6.85,8.19-6.84
						c4.75,0.69,7.16,5.75,11.94,6.38c0.14,0.02,13.91,1.93,14.09,2.01c2.35,0.96,3.44,2.57,4.28,4.01
						c11.36,19.46,11.36,19.46,12.89,20.08c23.92,9.7,29.23,7.8,43.42,2.75c4.39-1.56,34.38,12.38,34.52,12.58
						c1.31,1.83,3.61,24.46-1.13,34.16c0,0.01-0.01,0.02-0.01,0.02c0,0.01-0.01,0.02-0.01,0.02c0,0.01-0.01,0.02-0.01,0.02
						c0,0.01-0.01,0.02-0.01,0.02s-0.01,0.02-0.01,0.02c0,0.01-0.01,0.02-0.01,0.02s-0.01,0.02-0.01,0.02
						c0,0.01-0.01,0.02-0.01,0.02c-15.46,28.23-29.11,44.07-29.23,44.2c-6.52,7.02-15.81,9.69-23.46,14.93
						c-9.04,6.2-15.19,15.37-23.24,22.59c-0.43,0.39-50.93,41.8-70.29,49.29c-0.01,0-0.01,0.01-0.02,0.01
						c-0.01,0-0.01,0.01-0.02,0.01c-0.01,0-0.01,0.01-0.02,0.01s-0.01,0.01-0.02,0.01c-0.01,0-0.01,0.01-0.02,0.01
						c-0.01,0-0.01,0.01-0.02,0.01c-0.01,0-0.01,0.01-0.02,0.01c-0.01,0-0.01,0.01-0.02,0.01c-19.18,6.86-35.13,11.42-59.87,14.41
						l6.9-0.93c21.82-3.77,51.12-10.69,66.8-22.21c13.21-9.71,26.99-18.63,39.86-28.79c1.62-1.27,3.71-3.05,5.29-4.37
						c11.82-9.84,20.93-22.44,32.8-32.23c7.16-5.91,16.59-8.18,23.41-14.61c1.27-1.2,13.03-15.2,27.62-41.67
						c0-0.01,0.01-0.01,0.01-0.02c0-0.01,0.01-0.01,0.01-0.02c0-0.01,0.01-0.01,0.01-0.02c0-0.01,0.01-0.01,0.01-0.02
						c0-0.01,0.01-0.01,0.01-0.02c0-0.01,0.01-0.01,0.01-0.02c0-0.01,0.01-0.01,0.01-0.02c0-0.01,0.01-0.01,0.01-0.02
						c16.7-32.74-21.96-42.19-29.52-40.57c-3.45,0.74-4.75,5.27-8.77,5l-36.1-7.99c-13.28-4.73-12.3-25.68-29.51-25.95
						c-5.76-0.09-10.52,6.45-16.86,2.55C375.24,329.78,375.1,325.81,375.15,324.65"/>
					<path class="st0" d="M402.88,448.72c-2.02,3.34-2.13,7.92,1.55,7.05c0.57-0.13,3.54-1.01,6.46-5.18
						c2.87-4.36,1.73-7.86-1.22-7.29C407.45,443.73,404.47,446.11,402.88,448.72 M313.47,535.06c14.96-9.9,31.93-16.69,45.23-29.17
						c15.06-14.13,40.24-43.96,40.53-51.31c0.16-3.96,3.1-9.76,9.17-13.15c2.73-1.52,7.46-1.32,6.38,4.48
						c-0.31,1.67-1.27,4.32-4.05,7.43c-3.17,3.55-7.46,5.93-10.32,9.81c-5.18,7.03-20.95,28.44-42.82,46.69
						c-21.37,17.83-60.07,34.06-60.45,34.23l2.03-0.93C301.88,541.84,306.92,539.39,313.47,535.06"/>
					<path class="st0" d="M163.16,113.41c-1.65,3.33,0.25,5.3,3.91,4.06c2.5-0.84,5.77-3.3,7.19-6.36c1.69-4.06-1.12-5.14-4.7-3.57
						C166.95,108.69,164.31,111.1,163.16,113.41 M160.6,114.59c0.19-0.45,0.5-1.03,0.73-1.46c0.27-0.43,0.64-0.99,0.95-1.39
						c2.02-2.64,5.01-4.28,7.09-6.87c6.61-8.22,11.12-17.91,18.1-25.87c3.59-4.09,10.26-11.71,20.67-19.3
						c7.56-5.51,37.23-16.76,52.86-19.19l-1.26,0.2c-7.98,1.54-40.53,13.22-47.76,18.55c0,0-0.01,0.01-0.01,0.01
						c0,0-0.01,0.01-0.01,0.01c0,0-0.01,0.01-0.01,0.01c0,0-0.01,0.01-0.01,0.01s-0.01,0.01-0.01,0.01c0,0-0.01,0.01-0.01,0.01
						c0,0-0.01,0.01-0.01,0.01c0,0-0.01,0.01-0.01,0.01c-19.01,14.96-38.02,42.02-34.93,47c2.32,3.74-3.59,9.55-7.28,11.84
						c-5.32,3.3-9.91,2.62-9.62-1.43C160.09,116.16,160.32,115.27,160.6,114.59"/>
					<path class="st0" d="M231.7,419.24c1.2,3.34,5.03,4.35,6.3,1.65c0.21-0.45,0.52-1.39,0.2-2.7c-0.98-3.31-4.74-5.28-6.33-2.5
						C231.54,416.27,231.08,417.5,231.7,419.24 M229.35,420.02c-2.29-6.35,2.38-10.3,7.02-7.79c0.25,0.14,6.12,3.41,3.9,10.3
						c-1.27,3.94-1.3,4.01,7.08,30.76c0,0.01,0,0.01,0.01,0.02c0,0.01,0,0.01,0.01,0.02c0,0.01,0,0.01,0.01,0.02
						c0,0.01,0,0.01,0.01,0.02c0,0.01,0,0.01,0.01,0.02c0,0.01,0,0.01,0.01,0.02c0,0.01,0,0.01,0.01,0.02c0,0.01,0,0.01,0.01,0.02
						c3.41,9.53,14.35,11.88,19.15,20.09c0.74,1.27,0.74,1.27,2.42,7.26c2.03,7.26,6.35,21.58,12.49,35.97c0,0,0,0.01,0,0.01
						c0,0,0,0.01,0,0.01c0,0,0,0.01,0,0.01c0,0,0,0.01,0,0.01c0,0,0,0.01,0,0.01c0,0,0,0.01,0,0.01c0,0,0,0.01,0,0.01
						c0,0,0,0.01,0,0.01c2.12,5.44,0.93,11.88,4.99,16.74c0,0,0.01,0.01,0.01,0.01s0.01,0.01,0.01,0.01s0.01,0.01,0.01,0.01
						c0,0,0.01,0.01,0.01,0.01s0.01,0.01,0.01,0.01c0,0,0.01,0.01,0.01,0.01s0.01,0.01,0.01,0.01s0.01,0.01,0.01,0.01
						c2.88,3.29,6.15,6.84,10.61,10.42l-0.11-0.08c-6.82-5.15-13.21-11.81-14.9-14.81c-2.36-4.2-1.08-9.21-3.04-13.49
						c-2.4-5.23-6.41-13.97-10.91-27.25c-1.48-4.36-2.3-6.95-3.24-9.94c-0.14-0.44-0.35-1.02-0.54-1.44
						c-0.72-1.62-1.4-3.15-16.45-15.71c-3.07-2.56-3.07-2.56-8.81-20.45c-0.14-0.45-0.29-0.9-0.43-1.35
						c-0.14-0.45-0.28-0.9-0.43-1.36c-0.14-0.45-0.28-0.91-0.42-1.36c-0.14-0.45-0.28-0.91-0.42-1.36
						c-0.14-0.46-0.28-0.91-0.42-1.37c-0.14-0.46-0.28-0.91-0.41-1.37c-0.14-0.46-0.28-0.92-0.41-1.38
						c-0.14-0.46-0.27-0.92-0.41-1.38C234.6,426.03,230.76,423.81,229.35,420.02"/>
					<path class="st0" d="M389.71,124.26c0.81,3.14,5.78,5.11,7.29,2.89c0.52-0.76,0.34-1.59,0.25-1.99
						c-0.81-2.89-5.78-5.75-7.37-2.66C389.62,123.03,389.56,123.65,389.71,124.26 M357.69,76.24c-0.09-0.17-0.21-0.41-0.28-0.59
						c-1.84-4.28-6.16-14.3-13.08-22.78c-1.14-1.4-3.19-2.05-3.43-4.19c-0.22-2.02,1.8-2.68,2.51-4.13
						c-1.17-1.84-8.4-3.91-13.07-4.57c0.62,0.08,1.44,0.19,2.06,0.27l0.37,0.05c3.41,0.52,13.57,2.91,14.39,5.59
						c-2.55,3.43-2.46,3.58-1.87,4.52c3.94,6.26,9.33,11.49,12.85,18.05c4.58,8.55,4.58,8.55,11.49,13.14
						c13.99,9.3,14.3,9.76,15.34,11.29c5.27,7.78,5.47,17.48,9.68,25.66c1.28,2.49,4.24,3.61,5.17,6.38
						c1.02,3.04-0.58,4.59-1.32,5.11c-2.84,2.03-10.45-0.8-11.28-6.17c-0.12-0.8-0.2-2.36,0.71-3.76c1.39-2.16,1.64-2.55-4.29-19.49
						c-2.57-7.34-2.57-7.34-7.95-11.06C358.41,77.59,358.41,77.59,357.69,76.24"/>
					<path class="st0" d="M116.99,164.53c-0.9,3.93,1.37,5.36,4.01,4.01c2.9-1.48,4.16-4.84,7.12-6.26
						c1.27-0.61,1.61-0.78,13.06-3.45c39.07-9.14,40.82-7.35,43.05-5.08c9.33,9.53,10.19,9.65,11.74,9.86
						c0.14,0.02,15,1.59,23.27-5.03c7.06-5.65,7.58-7.52,8.04-9.17c0.13-0.45,9.36-51.76,9.05-52.4c-1.06-2.17-4-2.88-4.35-5.61
						c-0.16-1.29-0.16-1.29,2.61-8.21c4.64-11.6,4.64-11.6,7.53-13.37c14.56-8.94,14.56-8.94,15.6-10.63c0,0,0-0.01,0-0.01
						c0,0,0-0.01,0-0.01c0,0,0-0.01,0-0.01c0,0,0-0.01,0-0.01c0,0,0-0.01,0-0.01c0,0,0-0.01,0-0.01c0,0,0-0.01,0-0.01s0-0.01,0-0.01
						c6.65-13.18,13.78-19.92,21.81-20.61l-0.96,0.07c-2.18,0.29-5.83,0.77-10.32,4.37c-0.88,0.7-1.41,1.18-2.09,1.81
						c-4.92,4.57-8.21,10.56-10.18,14.13c-4.11,7.48-13.71,6.97-18.85,12.95c-0.14,0.17-11.06,19.67-7.01,23.15
						c2.87,2.47,3.47,2.98,3.18,5.53c-0.27,2.42-9.09,47.4-9.14,47.55c-2.57,6.92-8.7,10.95-18.22,11.99
						c-11.2,1.22-14.6-3.21-16.85-6.15c-1.79-2.33-4.49-5.86-12.83-4.7c-3.38,0.47-27.71,5.13-40.05,8.13
						c-6.86,1.67-6.86,1.67-7.05,1.65c-2.11-0.2-2.58-3.42-5.14-2.78c-0.04,0.01-4.42,1.26-6.9,7.72
						C117.11,164.14,117.03,164.36,116.99,164.53"/>
					<path class="st0" d="M305.15,536.84c-3.64,3.76-6.27,5.85-8.01,7.24c11.77-8.86,23.13-23.33,33.76-43.01
						c0-0.01,0.01-0.01,0.01-0.02c0,0,0.01-0.01,0.01-0.01c0,0,0.01-0.01,0.01-0.01c0,0,0.01-0.01,0.01-0.01
						c0,0,0.01-0.01,0.01-0.01c0,0,0.01-0.01,0.01-0.01s0.01-0.01,0.01-0.01c0,0,0.01-0.01,0.01-0.01c2.43-4.34,3.83-5.43,6.38-7.39
						c11.78-9.11,11.78-9.11,23.31-34.91c1.47-3.29-0.28-6.45-0.38-9.68c-0.08-2.45-0.08-2.45,3.71-13.14
						c4.8-13.55,8.13-25.51,9.23-29.44c0.17-0.6,0.33-1.2,0.5-1.8c0.17-0.6,0.33-1.2,0.5-1.8c0.16-0.6,0.33-1.2,0.49-1.81
						c0.16-0.6,0.32-1.21,0.49-1.81c0.16-0.61,0.32-1.21,0.48-1.82c0.16-0.61,0.32-1.21,0.48-1.82c0.16-0.61,0.31-1.22,0.47-1.83
						c0.16-0.61,0.31-1.22,0.47-1.83c5.92-17.53,22.44-13.94,26.78-6.36c1.72,3,1.39,6.67,3.17,9.65c1.01,1.69,1.97,3.29,5.37,4.66
						c12.07,4.86,25.46,4.42,37.53,9.3c3.38,1.36-0.3,6.58,3.42,7.25c2.92,0.53,6.98-3.16,8.34-7.59c1.26-4.08-0.97-6.9-4.04-5.13
						c-5.87,3.4-5.87,3.4-44.06-6.5c-2.89-0.75-3.27-1.79-4.87-6.18c-11.1-31.4-31.96-4.65-32.14-4.29
						c-0.25,0.5-20.99,58.78-17.96,65.91c1.55,3.64,0.51,5.86-3.37,14.08c-6.97,14.79-7.49,15.51-8.51,16.95
						c-5.13,7.19-13.72,11.14-17.97,19.16C321.24,516.96,313.3,528.41,305.15,536.84"/>
					<path class="st0" d="M430.69,159.69c0.7,2.87,3.23,6.33,6.12,6.93c3.35,0.7,5.09-3.29,8.35-2.87
						c11.27,1.46,21.44,7.29,32.85,8.21c2.04,0.16,2.79-1.08,3.2-1.76c9.15-15.15,7.96-17.86,6.59-21.01c0-0.01-0.01-0.01-0.01-0.02
						c0-0.01-0.01-0.01-0.01-0.02c0-0.01-0.01-0.01-0.01-0.02c0-0.01-0.01-0.01-0.01-0.02s-0.01-0.01-0.01-0.02
						s-0.01-0.01-0.01-0.02c0-0.01-0.01-0.01-0.01-0.02c0-0.01-0.01-0.01-0.01-0.02c-11.93-25.16-22.79-37.51-22.9-37.62
						c-1.22-1.3-2.73-2.56-4.47-4.01c-11.34-9.45-21.4-20.3-32.77-29.71c-7.83-6.48-14.19-10.37-19.8-13.8c0,0-0.01,0-0.01-0.01
						c0,0-0.01,0-0.01-0.01c0,0-0.01,0-0.01-0.01c0,0-0.01,0-0.01-0.01s-0.01,0-0.01-0.01c0,0-0.01,0-0.01-0.01
						c0,0-0.01,0-0.01-0.01c0,0-0.01,0-0.01-0.01c-9.55-5.58-9.55-5.58-10.62-6.05l-2.23-0.92c1.51,0.63,1.51,0.63,11.35,6.37
						c0,0,0.01,0,0.01,0.01c0,0,0.01,0,0.01,0.01c0,0,0.01,0,0.01,0.01c0,0,0.01,0,0.01,0.01s0.01,0,0.01,0.01c0,0,0.01,0,0.01,0.01
						c0,0,0.01,0,0.01,0.01c0,0,0.01,0.01,0.01,0.01c7.97,4.72,15.05,9.72,21.04,14.84l35.3,32.23c2.15,2.01,3.11,3.3,4.05,4.55
						c0,0,0.01,0.01,0.01,0.01c0,0,0.01,0.01,0.01,0.01c0,0,0.01,0.01,0.01,0.01c0,0,0.01,0.01,0.01,0.01c0,0,0.01,0.01,0.01,0.01
						c0,0,0.01,0.01,0.01,0.01c0,0,0.01,0.01,0.01,0.01c0,0,0.01,0.01,0.01,0.01c7.48,10.64,12.88,19.87,18.63,31.88
						c0,0.01,0.01,0.01,0.01,0.02c0,0.01,0.01,0.01,0.01,0.02c0,0.01,0.01,0.01,0.01,0.02c0,0.01,0.01,0.01,0.01,0.02
						c0,0.01,0.01,0.01,0.01,0.02s0.01,0.01,0.01,0.02c0,0.01,0.01,0.01,0.01,0.02c0,0.01,0.01,0.01,0.01,0.02
						c4.04,9.17-7.35,21.7-7.98,21.91c-1.49,0.5-33.04-8.02-33.31-8.13c-3.7-1.46-5.2-6.15-9.61-6.58
						c-0.19-0.02-4.66-0.38-3.86,5.29C430.68,159.62,430.69,159.66,430.69,159.69"/>
					<path class="st0" d="M269.2,535.87c12.81,4.82,22.28,6.94,27.94,8.21c-15.56-3.52-47.95-10.84-94.79-59.77
						c-0.01-0.01-0.01-0.01-0.02-0.02c-0.01-0.01-0.01-0.01-0.02-0.02c-0.01-0.01-0.01-0.01-0.02-0.02s-0.01-0.01-0.02-0.02
						c-0.01-0.01-0.01-0.01-0.02-0.02c-0.01-0.01-0.01-0.01-0.02-0.02c-0.01-0.01-0.01-0.01-0.02-0.02
						c-0.01-0.01-0.01-0.01-0.02-0.02c-7.12-7.39-17.74-9.94-24.58-17.72c-0.01-0.01-0.01-0.01-0.02-0.02
						c-0.01-0.01-0.01-0.01-0.02-0.02c-0.01-0.01-0.01-0.01-0.02-0.02c-0.01-0.01-0.01-0.01-0.02-0.02
						c-0.01-0.01-0.01-0.01-0.02-0.02s-0.01-0.01-0.02-0.02c-0.01-0.01-0.01-0.01-0.02-0.02c-0.01-0.01-0.01-0.01-0.02-0.02
						c-28.46-34.12-28.35-35.34-26.42-55.66c1.1-11.54,1.88-11.99,3.17-12.72c1.5-0.86,28.44-6.51,30.34-6.37
						c3.97,0.29,6.85,6.05,11.41,2.89c1.76-1.22,2.62-6.38-0.84-10.23c-2.41-2.69-5.42-2.64-6.03-2.48
						c-3.92,0.99-4.11,6.32-8.25,7.06c-14.78,2.63-27.43,5.8-27.48,5.82c-0.23,0.08-0.55,0.19-0.76,0.32
						c-2.03,1.36-3.26,2.18-4.37,20.65c-0.75,12.52-1.04,17.2,28.95,52.34c0,0.01,0.01,0.01,0.01,0.02c0,0.01,0.01,0.01,0.01,0.02
						c0,0.01,0.01,0.01,0.01,0.02c0,0.01,0.01,0.01,0.01,0.02c0,0.01,0.01,0.01,0.01,0.02c0,0.01,0.01,0.01,0.01,0.02
						c0,0.01,0.01,0.01,0.01,0.02c0,0.01,0.01,0.01,0.01,0.02c6.69,7.4,16.99,9.6,23.92,16.65c0.01,0.01,0.01,0.01,0.02,0.02
						c0.01,0.01,0.01,0.01,0.02,0.02c0.01,0.01,0.01,0.01,0.02,0.02c0.01,0.01,0.01,0.01,0.02,0.02c0.01,0.01,0.01,0.01,0.02,0.02
						c0.01,0.01,0.01,0.01,0.02,0.02c0.01,0.01,0.01,0.01,0.02,0.02c0.01,0.01,0.01,0.01,0.02,0.02
						C219.22,503.08,253.45,529.94,269.2,535.87"/>
					<path class="st0" d="M251.42,282.33c0.47,11.41,1.64,32.94,3,41.32c38.17-1.68,70.54-1.13,108.25,1.83
						c4.39-42.58,5.97-78.28,5.28-119.37c-18.81-3.98-89.1-6.04-116.2-2.43C250.88,208.69,249.72,241.5,251.42,282.33 M258.66,326.9
						c-2.16,0.09-5.05,0.24-7.21,0.34c-0.16-2.35-0.38-5.47-0.55-7.82c-2.73-42.5-3.53-77.95-2.67-118.53
						c32.24-4.29,105.03-1.4,122.97,2.66c0.94,42.9-0.8,80.47-5.82,125.6C350.41,327.94,310.63,324.71,258.66,326.9"/>
					<path class="st0" d="M490.21,453.16c-2.78,3.36-4.91,7.23-7.97,10.39c-0.02,0.02-0.05,0.05-0.07,0.07
						c-0.02,0.02-0.05,0.05-0.07,0.07c-0.02,0.02-0.05,0.05-0.07,0.07c-0.02,0.02-0.05,0.05-0.07,0.07
						c-0.02,0.02-0.05,0.05-0.07,0.07c-0.02,0.02-0.05,0.05-0.07,0.07c-0.02,0.02-0.05,0.05-0.07,0.07
						c-0.02,0.02-0.05,0.05-0.07,0.07c-79.54,76.38-158.57,79.08-184.54,79.96c7.53-0.26,10.94-0.47,18.26-1.12
						c0.01,0,0.02,0,0.03,0s0.02,0,0.03,0s0.02,0,0.03,0s0.02,0,0.03,0c0.01,0,0.02,0,0.03,0c0.01,0,0.02,0,0.03,0
						c0.01,0,0.02,0,0.03,0c0.01,0,0.02,0,0.03,0c28.81-2.84,53.69-5.3,105.61-32.31c11.69-6.08,11.69-6.08,68.11-52.47
						c0.05-0.04,4.83-4.06,6.77-9.1c-0.35-0.11-0.81-0.25-1.16-0.36c-1.4,1-2.24,1.61-4.3,3.91
						C490.54,452.78,490.35,452.99,490.21,453.16"/>
					<path class="st0" d="M137.01,457.92C137.01,457.93,137.01,457.93,137.01,457.92c0.01,0.01,0.01,0.01,0.01,0.01
						c0,0,0,0,0.01,0.01c0,0,0,0,0.01,0.01c0,0,0,0,0.01,0.01c0,0,0,0,0.01,0.01c0,0,0,0,0.01,0.01c2.47,2.63,4.59,3.26,4.58,1.94
						c0-0.54-0.34-1.58-1.95-3.46c-2.74-3.08-4.59-3.19-4.65-2.22C135.02,454.35,135.01,455.61,137.01,457.92
						C137,457.92,137.01,457.92,137.01,457.92 M297.14,544.08l-0.51-0.05c-8.98-0.95-14.59-2.12-24.43-4.41
						c-0.01,0-0.02,0-0.03-0.01c-0.01,0-0.02,0-0.03-0.01c-0.01,0-0.02,0-0.03-0.01c-0.01,0-0.02,0-0.03-0.01s-0.02,0-0.03-0.01
						c-0.01,0-0.02,0-0.03-0.01c-0.01,0-0.02,0-0.03-0.01c-0.01,0-0.02,0-0.03-0.01c-8-1.91-48.85-12.32-66.99-29.35
						c-7.51-7.05-47.91-41.24-48.21-41.49c-1.33-1.09-1.33-1.09-12.25-7.76c-0.15,0.61-0.53,1.39-0.86,1.92
						c-4.12,0.38-10.55-6.61-10.99-10.87c0.21-0.26,0.5-0.61,0.71-0.86c1.09,0.05,22.98,15.6,23.18,15.76
						c0.35,0.28,44.31,37.7,46.59,40.09c20.24,21.16,58.68,30.1,71.31,33.04c0.01,0,0.02,0,0.02,0.01c0.01,0,0.02,0,0.02,0.01
						s0.02,0,0.02,0.01c0.01,0,0.02,0,0.02,0.01c0.01,0,0.02,0,0.02,0.01c0.01,0,0.02,0,0.02,0.01c0.01,0,0.02,0,0.02,0.01
						c0.01,0,0.02,0,0.02,0.01c8.32,1.88,13.45,3,22.21,3.97C296.8,544.04,297.06,544.07,297.14,544.08"/>
					<path class="st0" d="M95.65,143.25c-0.87,1.48-1.08,2.44-0.52,2.28c0.38-0.11,1.94-1.18,4.04-4.6
						c1.54-2.58,0.97-2.65,0.84-2.63C99.3,138.37,96.94,141.05,95.65,143.25 M94.03,144.79c0.36-0.64,2.28-3.98,5.19-7.05
						c1.39-1.47,3.51-1.92,4.87-3.44c3.7-4.12,5.5-5.97,7.1-7.6c2.07-2.12,3.06-3.39,4.25-4.97c0-0.01,0.01-0.01,0.01-0.02
						c0-0.01,0.01-0.01,0.01-0.02c0-0.01,0.01-0.01,0.01-0.02c0-0.01,0.01-0.01,0.01-0.02c0-0.01,0.01-0.01,0.01-0.02
						c0-0.01,0.01-0.01,0.01-0.02s0.01-0.01,0.01-0.02s0.01-0.01,0.01-0.02c2.34-3.13,23.56-30.98,47.55-45.85l-1.03,0.64
						c-3.14,1.97-3.14,1.97-15.87,12.95c-0.01,0-0.01,0.01-0.02,0.01c-0.01,0-0.01,0.01-0.02,0.01c0,0-0.01,0.01-0.01,0.01
						c0,0-0.01,0.01-0.01,0.01c0,0-0.01,0.01-0.01,0.01c0,0-0.01,0.01-0.01,0.01c-0.01,0-0.01,0.01-0.02,0.01
						c-0.01,0-0.01,0.01-0.02,0.01c-8.43,7.36-17.77,16.24-28.96,31.23c0,0.01-0.01,0.01-0.01,0.02c0,0.01-0.01,0.01-0.01,0.02
						c0,0.01-0.01,0.01-0.01,0.02c0,0.01-0.01,0.01-0.01,0.02s-0.01,0.01-0.01,0.02s-0.01,0.01-0.01,0.02
						c0,0.01-0.01,0.01-0.01,0.02c0,0.01-0.01,0.01-0.01,0.02c-0.2,0.26-22.23,27.1-23.83,27.57c-0.11-0.13-0.25-0.31-0.36-0.44
						C92.87,147.36,92.96,146.72,94.03,144.79"/>
					<path class="st0" d="M65.35,183.46c-1.27,2.7-1.46,3.36-1.55,3.67c0.98-0.57,6.03-11.42,6.26-12.07
						c0.02-0.07,3.57-8.59,16.93-28.26l-4.91,7.16C81.65,154.62,71.65,170.06,65.35,183.46"/>
					<path class="st0" d="M484.41,386.84c-1.2,2.59-0.84,6.18,1.62,5.15c0.73-0.31,1.83-1.12,2.91-3.23c0,0,0-0.01,0-0.01
						c0,0,0-0.01,0-0.01c0,0,0-0.01,0-0.01c0,0,0-0.01,0-0.01c0,0,0-0.01,0-0.01c0,0,0-0.01,0-0.01c0,0,0-0.01,0-0.01
						c0,0,0-0.01,0-0.01c1.48-3.46,0.49-5.77-1.32-5.16C486.48,383.93,485.12,385.32,484.41,386.84 M327.65,478.52l0.31-1.02
						c2.54-5.58,6.11-10.67,7.9-16.61c2.25-7.47,2.88-15.41,6.38-22.53c2.49-5.08,8.11-7.34,10.9-12.16
						c2.31-4.01,10.21-42.1,12.16-53.4c0.42-2.44,0.78-4.55,2.27-6.39c0.11-0.14,12.03-13.81,18.35-13.42
						c23.32,1.44,23.32,1.44,29.03,16.34c1.3,3.4,2.16,5.65,4.86,6.74c8.91,3.61,18.59,3.88,27.74,6.47
						c6.78,1.92,10.54-7.09,17.43-4.82c5.58,1.85,10.76,4.84,16.61,5.94c3.55,0.67,6-5.83,9.31-2.68
						c3.68,3.49-2.91,15.78-7.58,14.14c-1.2-0.42-1.75-1.63-1.64-3.59c0.13-2.21,0.23-3.95-2.29-5.08
						c-3.98-1.78-8.24-2.78-12.26-4.41c-4.37-1.78-6.45-2.08-10.91,1.85c-2.42,2.12-6.07,5.34-36.4-4.32
						c-5.34-1.7-6.89-6.74-7.81-9.75c-5.66-18.45-28.27-12.18-28.5-12.11c-6.55,2.18-12.68,8.83-14.59,12.79
						c-0.16,0.33-0.34,0.78-0.47,1.12c-3.86,10.59-4.64,21.85-7.11,32.75c-4.23,18.61-4.31,18.97-7.13,23.53
						c-3.17,5.14-9.52,7.72-11.27,14c0,0.01-0.01,0.02-0.01,0.03c0,0.01,0,0.02-0.01,0.03c0,0.01-0.01,0.02-0.01,0.03
						s-0.01,0.02-0.01,0.03c0,0.01-0.01,0.02-0.01,0.03s-0.01,0.02-0.01,0.03c0,0.01-0.01,0.02-0.01,0.03
						c0,0.01-0.01,0.02-0.01,0.03c-0.74,2.98-2.49,9.94-5.41,19.62c-2.83,9.38-2.83,9.38-2.98,10.31c-0.34,2.21,1.23,4.3,0.37,6.54
						c-1.62,4.24-5.73,6.67-7.13,3.14C327.41,481.03,327.39,479.65,327.65,478.52"/>
					<path class="st0" d="M101.48,129.26c-1.64,2.08-2.02,2.84-2.22,3.24c1.41,0.02,8.22-8.77,9.07-10.22
						c0.08-0.13,11.57-16.12,38.81-35.93l-4.18,3.07C119.34,107.18,104.26,125.72,101.48,129.26"/>
					<path class="st0" d="M504.8,147.32C504.8,147.32,504.8,147.32,504.8,147.32c0,0.01,0.01,0.01,0.01,0.01c0,0,0,0,0,0.01
						c0,0,0,0,0,0.01c0,0,0,0,0,0.01c0,0,0,0,0,0.01c0,0,0,0,0,0.01c1.58,2.52,3.89,5.36,4.09,4.81c0.02-0.07,0.08-0.52-1.23-2.63
						c-1.78-2.82-3.87-5.28-4-4.71C503.66,144.94,503.67,145.44,504.8,147.32C504.79,147.31,504.79,147.32,504.8,147.32
						 M488.74,128.19c-0.17-0.22-0.39-0.52-0.55-0.74c-10.05-13.38-19.11-23.12-31.28-33.63c0,0-0.01-0.01-0.01-0.01
						c0,0-0.01-0.01-0.01-0.01c0,0-0.01-0.01-0.01-0.01c0,0-0.01-0.01-0.01-0.01c0,0-0.01-0.01-0.01-0.01c0,0-0.01-0.01-0.01-0.01
						c0,0-0.01-0.01-0.01-0.01c0,0-0.01-0.01-0.01-0.01c-8.02-6.85-8.02-6.85-8.58-7.27c0.7,0.51,1.64,1.19,2.34,1.7l0.51,0.39
						c0.12,0.09,12.33,9.88,23.79,22.17c0.94,1,2.17,2.36,3.07,3.39c5.26,6.01,9.98,12.46,15.2,18.5
						c3.36,3.89,7.28,7.26,10.66,11.13c0.22,0.26,0.52,0.6,0.74,0.85c1.15,1.35,2.53,3.27,4.1,5.72c0,0,0,0,0,0.01s0,0,0,0.01
						c0,0,0,0,0,0.01s0,0,0,0.01s0,0,0,0.01c0,0,0,0,0,0.01s0,0,0,0.01s0,0,0,0.01c2.27,3.79,2.11,4.21,1.91,4.7
						C510.1,154.88,488.94,128.45,488.74,128.19"/>
					<path class="st0" d="M197.97,96.65c-0.64,1.81,1.17,2.88,3.98,1.55c1.2-0.57,2.65-1.66,3.18-2.81c0.8-2.12-1.22-3.03-3.95-1.79
						C199.66,94.31,198.36,95.53,197.97,96.65 M195.29,97.14c0.11-0.3,0.31-0.67,0.47-0.94c2.37-3.5,6.8-4.9,8.87-8.71
						c1.5-2.77,5.5-10.12,11.14-17.52c0.18-0.24,0.43-0.56,0.61-0.8c0.27-0.36,0.64-0.82,0.92-1.18c2.85-3.62,5.58-6.5,6.61-7.58
						c0,0,0.01-0.01,0.01-0.01c0,0,0.01-0.01,0.01-0.01c0,0,0.01-0.01,0.01-0.01c0,0,0.01-0.01,0.01-0.01c0,0,0.01-0.01,0.01-0.01
						c0,0,0.01-0.01,0.01-0.01c0,0,0.01-0.01,0.01-0.01c0,0,0.01-0.01,0.01-0.01c0.69-0.67,1.98-1.93,4.08-3.02
						c6.05-3.14,12.51-5.33,18.71-8.13c4.03-1.81,7.4-4.76,11.42-6.59c5.16-2.34,8.58-2.86,11.92-3.23l-0.6,0.07
						c-2.52,0.36-5.65,0.98-9.87,2.94c-0.22,0.1-0.52,0.25-0.74,0.36c-3.42,1.71-6.26,4.36-9.69,6.06
						c-6.38,3.18-13.22,5.33-19.57,8.6c-0.63,0.33-1.97,1.1-2.97,1.93c-0.3,0.25-24.85,28.47-19.71,32.36
						c3.65,2.77-2.95,8.61-7.83,9.18C195.72,101.27,194.5,99.29,195.29,97.14"/>
					<path class="st0" d="M257.92,539.38c0.17,0.03,18.39,3.32,39.22,4.7c-9.12-0.65-11.28-0.85-20.73-2.09c-0.01,0-0.02,0-0.03,0
						c-0.01,0-0.02,0-0.03,0c-0.01,0-0.02,0-0.03,0c-0.01,0-0.02,0-0.03,0c-0.01,0-0.02,0-0.03,0c-0.01,0-0.02,0-0.03,0
						c-0.01,0-0.02,0-0.03,0c-0.01,0-0.02,0-0.03,0c-113.94-16.41-166.77-91.17-167.12-91.89c-0.03-0.07-4.25-7.36-8.27-8.43
						c-3.01,8.32,68.1,79.93,156.17,97.57C257.25,539.25,257.63,539.33,257.92,539.38"/>
					<path class="st0" d="M225.25,265.82c0.49,3.54,4.86,5.91,7.92,2.12c0.55-0.69,1.21-1.81,1.17-3.24
						c-0.39-4.29-5.54-5.96-8.1-2.64C225.05,263.6,225.19,265.33,225.25,265.82 M71.99,404.64l-0.07-0.52
						c1.15-4.79,8.34-11.13,11.44-13.29c3.51-2.44,3.72-2.59,3.89-5.24c0.84-12.54-2.13-25.26,1.73-37.66
						c0.55-1.78,1.18-2.48,1.19-2.48c1.32-1.24,15.97-8.21,45.13-15.23c2.16-0.52,3.94-1.59,5.28-3.19
						c14.24-16.95,16.99-40.9,34.22-56.02c0.31-0.27,0.76-0.59,1.11-0.81c1.96-1.22,3.99-2.48,44.9-6.08
						c10.19-15.91,16.48-1.61,16.53-1.43c1.89,7.87-6.11,12.58-11.07,10.06c-3.04-1.55-4.89-5.15-8.85-5.11
						c-0.3,0-34.12,2.46-39.55,5.51c-4.13,2.32-21.61,28.62-33.73,54.22c-0.83,1.76-1.58,2.73-1.95,3.16
						c-1.7,1.95-1.7,1.95-10.82,4.14c-16.51,3.97-37.27,11.74-38.86,13.13c-4.3,3.75-3.61,34.26-3.35,38.74
						C89.3,388.8,89.3,388.8,73.3,406C72.8,405.74,72.27,405.13,71.99,404.64"/>
					<path class="st0" d="M460.19,461.41c-1.78,1.88-2.88,4.17-1.57,4.19c0.31,0,1.51-0.16,3.8-2.43c2.14-2.21,3.07-4.52,1.78-4.42
						C463.29,458.82,461.53,459.99,460.19,461.41 M436.39,477.48l2.15-1.95c0.22-0.19,24.28-19.21,27.99-19.13
						c1.76,2.59-4.91,10.94-10.4,11.62c-0.4-0.45-0.77-1.21-0.89-1.8c-0.07,0.02-8.86,3.38-15.36,9.37
						c-6.43,5.92-49.24,41.46-63.91,48c-0.01,0-0.02,0.01-0.03,0.01c-0.01,0-0.02,0.01-0.03,0.01c-0.01,0-0.02,0.01-0.03,0.01
						c-0.01,0-0.02,0.01-0.03,0.01c-0.01,0-0.02,0.01-0.03,0.01s-0.02,0.01-0.03,0.01c-0.01,0-0.02,0.01-0.03,0.01
						c-0.01,0-0.02,0.01-0.03,0.01c-34.93,14.65-62.03,19.17-78.61,20.38l0.17-0.01c30.79-2.53,63.47-13.73,77.92-20.65
						C386.97,517.79,428.16,485.04,436.39,477.48"/>
					<path class="st0" d="M295.89,543.98c0.01,0,0.02,0,0.02,0c0.01,0,0.02,0,0.02,0c0.01,0,0.02,0,0.02,0s0.02,0,0.02,0
						c0.01,0,0.02,0,0.02,0c0.01,0,0.02,0,0.02,0c0.01,0,0.02,0,0.02,0l1.08,0.08c-14.29-1.15-52.4-6.58-97.66-31.95
						c-22.12-12.4-22.12-12.4-31.19-19.16c-9.77-7.28-10.78-8.59-12.16-10.85c-1.01-1.67-6.42-6.93-9.93-7.29
						c-0.15,0.22-0.35,0.51-0.49,0.74c2.27,7.89,45.09,36.36,86.66,52.73c1.17,0.46,2.34,0.9,3.52,1.34
						c1.18,0.44,2.36,0.87,3.54,1.29c1.18,0.42,2.37,0.83,3.56,1.24c1.19,0.4,2.38,0.8,3.58,1.19c1.2,0.39,2.4,0.76,3.6,1.13
						c1.2,0.37,2.41,0.73,3.62,1.08c1.21,0.35,2.42,0.69,3.64,1.03c1.22,0.33,2.44,0.66,3.66,0.97c0.01,0,0.01,0,0.02,0
						c0.01,0,0.01,0,0.02,0c0.01,0,0.01,0,0.02,0c0.01,0,0.01,0,0.02,0c0.01,0,0.01,0,0.02,0s0.01,0,0.02,0c0.01,0,0.01,0,0.02,0
						c0.01,0,0.01,0,0.02,0c14.64,3.77,20.12,5.19,34.64,6.39C295.87,543.98,295.88,543.98,295.89,543.98"/>
					<path class="st0" d="M360.24,54.63c1.76,1.44,5.1,2.47,5,1.29c-0.03-0.33-0.35-0.63-0.54-0.81c0,0,0,0,0,0c0,0,0,0,0,0
						c0,0,0,0,0,0c0,0,0,0,0,0c0,0,0,0,0,0c0,0,0,0,0,0c0,0,0,0,0,0c0,0,0,0,0,0c-1.8-1.49-5.21-2.43-5.14-1.41
						C359.56,53.94,359.83,54.3,360.24,54.63 M350.11,91.07l-0.22-0.86c0.09-5.14,7.07-4.18,10.33-0.62
						c2.99,3.27-1.97,6.07-1.18,9.33c2.61,10.79,3.23,13.36,4.19,19.34c0.72,4.48,0.97,5.99,21.04,22.15
						c13.37,10.77,31.98,2.51,32.08-5.61c0.01-0.83-0.21-1.71-0.37-2.35c0-0.01,0-0.01-0.01-0.02c0-0.01,0-0.01-0.01-0.02
						c0-0.01,0-0.01-0.01-0.02c0-0.01,0-0.01-0.01-0.02c0-0.01,0-0.01-0.01-0.02c0-0.01,0-0.01-0.01-0.02c0-0.01,0-0.01-0.01-0.02
						c0-0.01,0-0.01-0.01-0.02c-12.93-43.48-18.12-46.63-37.45-58.38c-1.64-1-2.57-1.8-3.06-2.31c-0.14-0.14-0.32-0.34-0.46-0.48
						c-2.91-3.1-4.94-6.88-7.71-10.09c-1.58-1.83-2.62-3.03-4.73-4.27c-5.02-2.93-5.02-2.93-5.01-4.21c1.81-1.26,9.4,1.74,9.79,4.5
						c-0.25,0.25-0.64,0.53-0.96,0.68c0.21,0.7,8.32,12.49,13.78,15.83c16.82,10.27,17.48,11.26,18.68,13.05c0,0,0,0.01,0,0.01
						c0,0,0,0.01,0,0.01c0,0,0,0.01,0,0.01c0,0,0,0.01,0,0.01c0,0,0,0.01,0,0.01c0,0,0,0.01,0,0.01c0,0,0,0.01,0,0.01
						c0,0,0,0.01,0,0.01c15.71,27.37,20.26,48.41,20.29,48.6c0.44,2.71,0.44,2.71-10.17,13.39c-20.7-2.49-20.7-2.49-21.4-2.85
						c-0.68-0.35-23.54-19.99-23.71-20.16c-1.68-1.65-1.68-1.65-6.14-21.42c-1.87-8.29-1.87-8.29-4.85-10.26
						C352.17,93.55,350.71,92.58,350.11,91.07"/>
					<path class="st0" d="M92.77,198.2c-0.33,2.25,0.77,3.87,2.62,2.51c1.06-0.78,2.36-2.61,2.85-4.94
						c0.55-3.11-0.85-4.06-2.47-2.84C94.57,193.84,93.08,196.12,92.77,198.2 M90.95,199.05l0.31-1.33c2.51-7.96,7.05-9.46,8.3-7.97
						c2.63,3.15,2.63,3.15,3.12,3.11c0.81-0.07,20.04-1.94,27.98-12.65c2.3-3.1,4.24-4.41,7.69-5.19
						c41.72-9.38,42.43-8.49,47.95-1.55c2.66,3.35,8.21,10.33,29.97,5.63c12.2-2.64,22.5-12.72,23.24-19.63c0-0.01,0-0.01,0-0.02
						s0-0.01,0-0.02c0-0.01,0-0.01,0-0.02c0-0.01,0-0.01,0-0.02s0-0.01,0-0.02c0-0.01,0-0.01,0-0.02s0-0.01,0-0.02s0-0.01,0-0.02
						c0.03-0.36,3.19-37.2,5.18-42.95c2.15-6.22,8.61-8.28,12.43-12.89c1.06-1.28,1.06-1.28,2.57-10c0.73-4.22,1.6-8.54,2.58-12.84
						c0.76-3.33-3.51-5.83-1.54-9.36c0.9-1.61,7.52-3.68,9.53-0.72c0.02,0.02,1.61,2.55-1.66,4.29c-0.77,0.41-2.36,1.26-2.85,2.2
						c-0.19,0.37-0.46,0.85-0.64,1.23c-0.02,0.04-2.25,7.36-3.01,16.95c-0.79,9.91-12.84,11.79-14.87,20.81
						c-3.46,15.37-0.51,31.46-5.32,46.67c-0.66,2.09-1.19,2.98-2.23,4.52c-15.91,23.5-45.95,16.88-46.24,16.79
						c-7.49-2.36-8.58-13.28-17.81-13.31c-0.35,0-36.9,1.92-45.3,13.12c-2.87,3.82-2.87,3.82-20.37,9.32
						c-9.59,3.01-9.59,3.01-11.51,6.46c-1.85,3.34-4.22,4.56-4.24,4.57C91.67,205.21,90.24,202.94,90.95,199.05"/>
					<path class="st0" d="M386.25,490.81c-4.25,4.38-7.76,9.44-12.54,13.32c-11.44,9.27-19.43,14.53-28.61,20.02
						c-6.92,4.14-29.03,15.78-47.96,19.93c22.5-4.8,47.99-19.48,48.24-19.63c7.63-4.47,15.53-9.09,43.89-30.72
						c1.09-0.83,4.63-3.73,4.57-6.24c-2.23-1.91-7.02,2.73-7.07,2.78C386.63,490.43,386.41,490.65,386.25,490.81"/>
					<path class="st0" d="M444.46,89.69c1.94,1.78,5.07,3.96,4.98,3.08c-0.01-0.12-0.14-0.59-1.38-1.75c-2.31-2.13-5.3-4-5.23-3.28
						C442.86,88.04,443.49,88.8,444.46,89.69 M442.62,88.8c-0.19-0.18-0.44-0.43-0.63-0.61c-1.07-1.09-1.52-2.62-2.61-3.7
						c-1.02-1.02-4.96-4.2-6.76-5.59c-0.14-0.11-15.33-11.53-21.71-14.78c0.66,0.33,1.55,0.77,2.21,1.09l0.53,0.27
						c6.42,3.49,37.67,25.8,38.18,29.21C450.44,95.48,445.03,91.06,442.62,88.8"/>
					<path class="st0" d="M224.52,235.15c0.03,3.49,4.13,6.34,7.56,2.99c1.06-1.03,1.63-2.26,1.7-3.65
						c-0.03-3.3-4.42-6.26-7.66-3.07C225.1,232.42,224.51,233.81,224.52,235.15 M43.88,255.32l-0.01-0.27
						c1.39-9.95,14.55-31.53,19.97-27.8c1.17,0.81,1.38,3.02,1.86,4.36c1.77,4.96,9.49,20.71,11.42,21.01
						c0.17,0.03,19.13-1.19,26.09-15.18c4.77-9.58,47.02-16.03,62.93-18.45c4.05-0.62,4.05-0.62,12.12,7.01
						c10.85,10.25,10.85,10.25,13.8,10.5c0.25,0.02,25.99,0.84,31.32-6.8c3.96-5.68,10.55-3.1,12.62,0.45
						c1.98,3.41,1.71,10.98-5.86,12.7c-5.43,1.23-7.53-5.21-12.36-5.37c-9.1-0.3-17.79,3.38-26.92,2.72
						c-0.63-0.05-1.47-0.17-2.07-0.36c-8.49-2.74-11.37-11.83-18.38-16.25c-0.45-0.28-58.73,0.19-67.96,19.7
						c-4.44,9.39-24.61,13.33-24.79,13.32c-4.9-0.36-13.93-23.82-14.01-24.06c-0.25-0.66-0.73-1.48-1.16-2.04
						c-0.1,0.02-10.12,3.01-13.52,14.74C46.37,254.14,43.9,255.32,43.88,255.32"/>
					<path class="st0" d="M206.44,480.88c1.75,1.88,4.63,3.43,4.74,1.72c0.05-0.73-0.46-1.88-1.25-2.85
						c-2.14-2.5-4.97-3.64-5.13-2.07C204.73,478.28,205.13,479.48,206.44,480.88 M297.14,544.08L297.14,544.08l-0.27-0.06
						c-13.87-3.35-29.39-10.3-34.73-13.14c-6.91-3.68-11.58-10.04-17.64-14.73c-0.01,0-0.01-0.01-0.02-0.01
						c-0.01,0-0.01-0.01-0.02-0.01c-0.01,0-0.01-0.01-0.02-0.01c-0.01,0-0.01-0.01-0.02-0.01c-0.01,0-0.01-0.01-0.02-0.01
						c-0.01,0-0.01-0.01-0.02-0.01c-0.01,0-0.01-0.01-0.02-0.01s-0.01-0.01-0.02-0.01c-1.53-1.18-6.2-4.78-10.77-8.82
						c-0.68-0.6-1.59-1.4-2.27-2.01c-6.51-5.91-12.03-12.82-18.74-18.54c-2.24-1.91-5.1-2.93-7.19-5.05
						c-2.67-2.7-4.08-6.41-1.84-6.96c2.92-0.71,9.41,5.19,9.78,8.9c0.51,5.05,22.77,25.23,32.43,32.76c0.01,0,0.01,0.01,0.02,0.01
						c0.01,0,0.01,0.01,0.02,0.01c0.01,0,0.01,0.01,0.02,0.01s0.01,0.01,0.02,0.01c0.01,0,0.01,0.01,0.02,0.01
						c0.01,0,0.01,0.01,0.02,0.01c0.01,0,0.01,0.01,0.02,0.01c0.01,0,0.01,0.01,0.02,0.01c6.02,4.72,10.65,11.08,17.52,14.79
						C270.04,534.78,285.44,541.24,297.14,544.08"/>
					<path class="st0" d="M496.73,132.23c3.3,4.14,5.31,6.57,5.95,7.21c-0.1-0.22-0.27-0.62-3.58-4.75l-2.78-3.4
						c-0.88-1.06-2.74-3.27-5.25-6.12c-0.01-0.02-0.03-0.03-0.04-0.05c-0.01-0.02-0.03-0.03-0.04-0.05
						c-0.01-0.02-0.03-0.03-0.04-0.05l-0.04-0.05l-4.36-4.8c4.26,4.59,4.26,4.59,9.9,11.69
						C496.52,131.97,496.64,132.12,496.73,132.23"/>
					<path class="st0" d="M432.71,92.01c1.98,2.24,5.39,4.15,5.43,2.72c0.01-0.22-0.09-0.73-0.8-1.58
						c-2.18-2.47-5.77-4.36-5.73-3.02C431.61,90.54,432,91.21,432.71,92.01 M430.85,91.6c-0.24-0.27-0.53-0.64-0.75-0.92
						c-1.08-1.58-0.64-3.73-1.96-5.23c-0.06-0.07-6.39-7.18-15.19-14.27c-18.07-14.55-23.92-16.62-30.68-19.01
						c0.54,0.19,1.26,0.44,1.8,0.63l0.06,0.02c4.79,1.73,8.61,3.36,9.77,4.01c3.32,1.86,6.02,4.57,9.19,6.64
						c0,0,0.01,0.01,0.01,0.01c0,0,0.01,0.01,0.01,0.01c0,0,0.01,0.01,0.01,0.01c0,0,0.01,0.01,0.01,0.01s0.01,0.01,0.01,0.01
						s0.01,0.01,0.01,0.01c0,0,0.01,0.01,0.01,0.01c0,0,0.01,0.01,0.01,0.01c1.96,1.28,7.15,4.68,12.79,9.37
						c1.15,0.95,2.66,2.24,3.77,3.23c4.04,3.6,7.54,7.75,11.64,11.29c1.97,1.7,4.25,2.98,6.18,4.73c2.22,2.01,3.15,3.65,2.75,4.9
						C438.04,98.17,432.62,93.6,430.85,91.6"/>
					<path class="st0" d="M383.38,267.57c0.18,3.7,4.23,6.87,7.39,3.41c1.06-1.16,1.21-2.34,1.28-2.84c0,0,0-0.01,0-0.01
						c0,0,0-0.01,0-0.01c0,0,0-0.01,0-0.01c0,0,0-0.01,0-0.01c0,0,0-0.01,0-0.01c0,0,0-0.01,0-0.01c0,0,0-0.01,0-0.01
						c0,0,0-0.01,0-0.01c0.02-4.31-4.35-6.86-7.2-4.2C383.86,264.8,383.31,266.18,383.38,267.57 M380.23,267.72
						c-0.02-0.47,0.02-1.11,0.06-1.58c1.43-6.76,8.51-9.93,12.73-3.72c0.55,0.81,1.22,1.96,1.95,2.62c1.99,1.82,3.82,2.22,7.24,2.65
						c31.97,3.98,32.43,4.43,35.41,7.35c1.43,1.4,15.58,23.03,27.59,52.84c1.63,4.04,3.19,5.67,6.44,6.69
						c32.34,10.18,41.06,15.28,42.67,17.77c0,0.01,0.52,1.02,0.77,2.77c0.02,0.13,1.87,13.96-0.47,34.16
						c-0.18,1.56-0.45,3.92,0.02,5.51c2.06,6.83,12.67,10.25,8.63,19.41c-11.07-17.73-11.07-17.73-10.69-20.76
						c4.77-37.32-0.14-39.62-6.94-42.8c-12.21-5.71-26.01-7.07-37.83-13.86c-2.32-1.34-2.32-1.34-6.61-11.68
						c-4.25-10.26-20.85-44.02-26.47-48.24c-0.28-0.21-35.15-11.82-42.08-3.33C388.17,279.01,380.56,274.37,380.23,267.72"/>
					<path class="st0" d="M444.33,484.18c-59.91,52.43-146.35,59.86-147.19,59.9c15.78-0.77,22.39-2.24,36.87-5.45
						c0.01,0,0.01,0,0.02,0s0.01,0,0.02,0c0.01,0,0.01,0,0.02,0c0.01,0,0.01,0,0.02,0c0.01,0,0.01,0,0.02,0c0.01,0,0.01,0,0.02,0
						c0.01,0,0.01,0,0.02,0c0.01,0,0.01,0,0.02,0c63.86-14.84,116.12-52.42,118.07-58.16c-0.16-0.17-0.38-0.4-0.55-0.58
						c-0.9,0.12-2.41,0.32-6.8,3.84C444.73,483.84,444.5,484.03,444.33,484.18"/>
					<path class="st0" d="M297.14,544.08c1.12-0.16,1.62-0.25,1.66-0.26C298.24,543.88,297.69,543.99,297.14,544.08 M415.05,472.56
						c0.19-0.22,0.45-0.51,0.65-0.73c8.6-9.25,14.58-20.67,24.21-29.06c0.24-0.21,0.57-0.46,0.81-0.65
						c6.58-5,13.95-8.74,20.83-13.26c3.93-2.58,5.67-7.29,9.63-9.84c1.38-0.89,3.63-1.21,4.11,0.91c0.91,4.08-5.48,12.47-9.21,10.55
						c-0.1-0.05-11.79-3.46-35.33,26.03c-3.43,4.3-7.31,8.22-10.84,12.44c-4.93,5.91-6.84,13.81-12.68,19.11
						c-0.01,0.01-0.02,0.02-0.03,0.02c-0.01,0.01-0.02,0.02-0.03,0.02c-0.01,0.01-0.02,0.02-0.03,0.02
						c-0.01,0.01-0.02,0.02-0.03,0.02s-0.02,0.02-0.03,0.02c-0.01,0.01-0.02,0.02-0.03,0.02c-0.01,0.01-0.02,0.02-0.03,0.02
						s-0.02,0.02-0.03,0.02c-0.38,0.33-39.7,33.73-52.06,39.2c-0.01,0-0.01,0.01-0.02,0.01c-0.01,0-0.02,0.01-0.02,0.01
						c-0.01,0-0.02,0.01-0.02,0.01c-0.01,0-0.02,0.01-0.02,0.01s-0.02,0.01-0.02,0.01c-0.01,0-0.02,0.01-0.02,0.01
						c-0.01,0-0.01,0.01-0.02,0.01c-0.01,0-0.01,0.01-0.02,0.01c-17.69,7.37-28.64,10.8-46.85,14.68c-0.01,0-0.02,0-0.02,0
						c-0.01,0-0.02,0-0.02,0s-0.02,0-0.02,0s-0.02,0-0.02,0c-0.01,0-0.02,0-0.02,0c-0.01,0-0.02,0-0.02,0c-0.01,0-0.02,0-0.02,0
						c-0.01,0-0.02,0-0.02,0c-7.3,1.43-10.08,1.75-10.1,1.75c20.16-3.33,36.24-8.02,55.53-16.17c0.01,0,0.01-0.01,0.02-0.01
						c0.01,0,0.01-0.01,0.02-0.01c0.01,0,0.01-0.01,0.02-0.01c0.01,0,0.01-0.01,0.02-0.01c0.01,0,0.01-0.01,0.02-0.01
						c0.01,0,0.01-0.01,0.02-0.01c0.01,0,0.01-0.01,0.02-0.01c0.01,0,0.01-0.01,0.02-0.01c10.55-4.68,51.11-38.47,51.46-38.78
						C409.78,484.5,410.79,477.51,415.05,472.56"/>
					<path class="st0" d="M167.57,84.97c-1.03,1.2-1.83,2.88,0.16,2.59c3.78-0.54,9.8-6.1,9.27-7.42
						c-0.49-1.23,14.33-19.81,49.6-32.21c0.01,0,0.01,0,0.02-0.01c0.01,0,0.01,0,0.02-0.01c0.01,0,0.01,0,0.02-0.01
						c0.01,0,0.01,0,0.02-0.01s0.01,0,0.02-0.01c0.01,0,0.01,0,0.02-0.01c0.01,0,0.01,0,0.02-0.01c0.01,0,0.01,0,0.02-0.01
						l0.91-0.29l-1.69,0.48c-0.28,0.09-0.29,0.09-0.29,0.09s-0.01,0-0.02,0.01c-0.01,0-0.01,0-0.02,0.01c-0.01,0-0.01,0-0.02,0.01
						c-0.01,0-0.01,0-0.02,0.01s-0.01,0-0.02,0.01c-0.01,0-0.01,0-0.02,0.01c-0.01,0-0.01,0-0.02,0.01
						c-6.03,2.12-16.12,5.66-25.31,11.49c-5.98,3.79-5.98,3.79-24.97,19.38c-1.73,1.42-3.72,2.46-5.48,3.82
						C169.72,82.94,168.46,83.92,167.57,84.97"/>
					<path class="st0" d="M466.68,143.63c1.58,3.33,5.19,5.45,5.86,3.43c0.24-0.74-0.1-1.64-0.25-2.02
						c-1.19-2.76-5.04-6.1-5.97-4.08C466.19,141.25,465.95,142.1,466.68,143.63 M358.93,47.57c-4.64-2.24-9.48-4.38-17.53-5.93
						c0.15,0.03,0.36,0.06,0.51,0.08l0.53,0.1c12.98,2.52,28.26,10.4,28.39,10.47c8.8,5.05,14.99,13.25,23.14,19.09
						c8.79,6.3,15.74,11.28,28.33,36.75c6.41,12.96,13.03,26.36,25.8,29.14c4.74,1.03,9.04,3.85,14.13,3.5
						c1.13-0.08,1.45-0.9,2.02-2.39c0.15-0.4,1.72-1.78,5.45,1.29c4.08,3.36,6.44,9.06,4.44,10.69c-5.6,4.58-8.17-6.3-13.3-7.64
						c-5.49-1.43-11.17-2.12-16.47-4.27c-0.46-0.19-1.04-0.53-1.48-0.77c-0.78-0.42-2.59-1.41-13-11.32
						c-2.5-2.38-3.6-4.34-4.87-7.33c-3-7.1-7.54-17.84-15.92-30.6C402,77.6,402,77.6,379,58.87
						C374.16,54.93,374.16,54.93,358.93,47.57"/>
					<path class="st0" d="M384.41,236.96C384.41,236.96,384.41,236.97,384.41,236.96c0,0.01,0,0.01,0,0.02c0,0,0,0.01,0,0.01
						s0,0.01,0,0.01s0,0.01,0,0.01s0,0.01,0,0.01c0,0,0,0.01,0,0.01c0.15,4.05,4.37,7,7.38,4.03c1.26-1.24,1.35-2.6,1.39-3.18
						c-0.25-4.62-5.08-6.99-7.71-3.8C384.53,235.22,384.45,236.44,384.41,236.96C384.41,236.96,384.41,236.96,384.41,236.96
						 M381.25,237.44l0.01-1.51c1.32-7.52,8.74-8.99,12.26-4.06c6.88,9.62,29.61,8.05,29.82,8.01c9.96-1.77,9.95-15.45,20.18-16.89
						c0.49-0.07,54,4.21,62.03,22.85c3.87,9,21.42,13.66,21.58,13.67c4.7,0.09,12.1-22.83,12.16-23.06
						c0.17-0.61,0.67-1.36,1.16-1.77c7.52,4.15,11.28,12.46,13.41,29.65c-4.92-20.31-5.02-20.7-12.09-25.84
						c-1.25,0.45-1.25,0.45-2.55,4.77c-0.06,0.2-7.35,20.18-11.23,20.15c-0.07,0-19.01-8.95-19.74-9.49
						c-1.67-1.25-1.67-1.25-5.88-9.72c-1.77-3.55-1.77-3.55-10.31-6.37c-45.57-15.04-47.31-13.25-55.66-4.65
						c-10,10.3-10,10.3-12.68,10.51c-7.52,0.58-14.55-2.27-21.88-3.08c-5.29-0.59-7.81,5.91-13.18,5.12
						C384.76,245.15,381.58,241.59,381.25,237.44"/>
					<path class="st0" d="M377.42,459.09c-1.17,2.13-0.83,4.48,1.12,3.87c0.02-0.01,2.09-0.68,3.6-3.05c1.23-2.1,0.82-4.4-1.27-3.89
						C379.65,456.32,378.26,457.56,377.42,459.09 M321.21,525.11c7.44-7.63,18.01-11.13,25.17-19.13
						c11.37-12.69,29.2-38.71,28.58-40.86c-1.38-4.76,1.81-8.33,3.25-9.64c3.26-2.97,6.62-2.79,6.91,0.37
						c0.01,0.1,0.2,2.53-2.22,5.73c-1.31,1.72-3.3,2.57-4.94,3.87c-1.35,1.07-1.35,1.07-6.31,8.7
						c-13.59,20.9-25.87,33.66-25.98,33.78c-5.88,5.9-13.81,8.84-20.23,13.97c-5.4,4.31-10.01,9.51-15.47,13.75
						c-0.53,0.41-1.24,0.94-1.77,1.34c-2.45,1.82-6.35,4.53-11.04,7.08l0.53-0.3C301.04,541.82,310,536.61,321.21,525.11"/>
					<path class="st0" d="M65.33,189.58c-0.66,1.74-0.83,2.9-0.42,2.74c0.52-0.2,2.1-2.98,3.02-5.3c0.94-2.46,0.87-3.24,0.59-3.16
						C68.03,183.99,66.33,186.9,65.33,189.58 M88.07,145.36c0.21-0.3,0.49-0.69,0.71-0.99c5.58-7.51,5.58-7.51,11.65-14.89
						l-1.53,1.83c-2.82,3.52-6.5,8.28-9.2,11.89c0,0.01-0.01,0.01-0.01,0.02c0,0.01-0.01,0.01-0.01,0.02c0,0.01-0.01,0.01-0.01,0.02
						c0,0.01-0.01,0.01-0.01,0.02c0,0.01-0.01,0.01-0.01,0.02c0,0.01-0.01,0.01-0.01,0.02c0,0.01-0.01,0.01-0.01,0.02
						c0,0.01-0.01,0.01-0.01,0.02c-5.92,8.28-19.21,34.75-19.48,38.8c-0.16,2.39-4.41,11.92-6.52,13.34
						c-0.11-0.08-0.25-0.18-0.36-0.26C62.95,190.56,83.26,152.16,88.07,145.36"/>
					<path class="st0" d="M202.43,495.14c1.97,1.59,4.47,2.73,4.47,1.74c0-0.55-0.76-1.79-2.03-2.94c-2.4-2.08-4.9-3.02-4.86-1.83
						C200.03,492.92,201.33,494.25,202.43,495.14 M293.22,543.37c-0.38-0.07-0.89-0.17-1.27-0.24
						c-23.68-4.81-38.04-11.25-38.18-11.32c-9.07-4.11-15.89-11.4-24.02-16.86c0,0-0.01,0-0.01-0.01c0,0-0.01,0-0.01-0.01
						c0,0-0.01,0-0.01-0.01c0,0-0.01,0-0.01-0.01c0,0-0.01,0-0.01-0.01c0,0-0.01,0-0.01-0.01c0,0-0.01,0-0.01-0.01
						c0,0-0.01,0-0.01-0.01c0,0-27.58-18.85-27.58-18.85c-1.77-1.38-4.72-4.01-4.62-6.18c2.42-1.69,10.32,4.26,11.67,8.02
						c1.17,3.28,37.41,29.78,43.76,33.11c0.15,0.08,16.96,8.14,44.24,13.08l-0.61-0.11C295.42,543.78,294.32,543.58,293.22,543.37"
						/>
					<path class="st0" d="M163.61,425.73C163.61,425.74,163.61,425.74,163.61,425.73c0.01,0.01,0.01,0.01,0.01,0.01s0,0,0,0.01
						c0,0,0,0,0,0.01c0,0,0,0,0,0.01c0,0,0,0.01,0,0.01c0,0,0,0.01,0,0.01c1.98,3.3,5.16,4.29,5.67,1.77
						c0.28-1.37-0.4-2.73-0.62-3.17c0,0,0,0,0-0.01c0,0,0,0,0-0.01c0,0,0,0,0-0.01c0,0,0,0,0-0.01c0,0,0,0,0-0.01s0,0,0-0.01
						c0,0,0,0,0-0.01c0,0,0,0,0-0.01c-1.71-2.87-5.1-4.56-5.77-2.21C162.62,423.08,162.86,424.3,163.61,425.73
						C163.61,425.73,163.61,425.73,163.61,425.73 M161.76,426.24l-0.54-1.03c-2.54-6.05,0.92-7.9,3.58-6.86
						c9.51,3.75,9.51,3.75,18.81,1.08c2.84-0.81,7.6-2.18,19.45,9.03c1.18,1.11,2.79,2.64,4.67,6.79
						c3.75,8.3,10.73,23.76,22.38,42.55c2.24,3.61,2.24,3.61,14.37,15.86c8.3,8.38,13.82,19.05,22.37,27.23
						c0.15,0.14,16.81,15.29,30.31,23.18l-0.2-0.1c-6-3.29-11.95-7.48-17.67-12.46c-3.92-3.42-8.39-6.14-12.27-9.61
						c-0.27-0.24-31.76-32.25-44.86-54.61c-6.83-11.65-10.56-24.98-19.26-35.63c-0.09-0.11-9.32-11.28-17.61-9.52
						c-13.81,2.93-13.81,2.93-13.56,5.95c0.11,1.32,0.28,3.31-2.17,3.74C167.83,432.13,164.18,430.35,161.76,426.24"/>
					<path class="st0" d="M99.45,430.65c1.68,2.19,3.46,3.15,3.59,1.93c0.01-0.15,0.09-1.51-1.7-4.21c0,0,0,0,0-0.01c0,0,0,0,0-0.01
						c0,0,0,0,0-0.01c0,0,0,0,0-0.01c0,0,0,0,0-0.01c0,0,0,0,0-0.01c0,0,0,0,0-0.01c0,0,0,0,0-0.01c-1.83-2.51-3.78-3.7-3.94-2.41
						C97.26,426.76,97.95,428.71,99.45,430.65 M210.67,523.7c-2.69-1.1-6.21-2.74-8.86-3.93c-10.74-5.2-39.25-19.03-66.68-43.89
						c-9.57-8.68-14.96-20.53-23.02-30.36c-4.11-5.02-9.46-8.87-13.39-14.06c-0.6-0.79-3.56-4.89-3.4-8.21
						c0.28-0.22,0.65-0.52,0.93-0.74c3.41,0.74,7.6,7.21,8.32,9.73c0.43,1.5,0.91,3.21,3.72,6.92l31.8,40.06
						c27.24,23.38,52.15,35.44,61.53,39.98c19.51,9.44,41.26,11.83,61.34,19.49C257.37,538.66,216.25,525.99,210.67,523.7"/>
					<path class="st0" d="M184.26,64.33c5.64-2.97,10.37-5,13.83-6.47l-1,0.43c-8.21,3.58-21.96,9.58-45.36,35.17
						c-2.86,3.12-1.68,7.67-3.89,11.02c-10.03,15.19-10.03,15.19-12.97,20.72c-0.42,0.79-0.98,1.85-1.39,2.64
						c-1.23,2.41-1.64,3.22-3.09,5.03c-5.38,6.74-12.01,12.3-17.78,18.67c-4.22,4.66-5.99,10.96-10.4,15.48
						c-3.03,3.11-6.38,2.71-4.19-2.81c0.68-1.72,3.28-7.38,7.99-7.99c2.56-0.33,24.15-24.94,25.64-27.72
						c0.2-0.38,0.46-0.89,0.65-1.27c4.21-8.19,6.63-11.63,8.76-14.65c5.35-7.59,6.02-10.61,5.63-11.81
						c-0.43-1.33-0.56-1.74,0.74-3.5c0.35-0.48,0.85-1.1,1.24-1.56C148.87,95.47,172.78,70.39,184.26,64.33"/>
					<path class="st0" d="M267.44,512.75c1.1,1.6,3.21,3.17,3.42,1.95c0.04-0.24,0.06-0.95-0.71-2.26c-1.2-1.94-3.19-3.06-3.5-1.98
						C266.51,510.96,266.82,511.84,267.44,512.75 M235.03,470.88c0,0,0-0.01-0.01-0.01c-18.18-36.15-24.33-59.32-24.28-60.16
						c1.08-21.64,22.78-20.84,28.23-18.68c0.21,0.08,22.53,15.78,24.19,25.26c0,0.01,0,0.01,0,0.02c0,0.01,0,0.01,0,0.02
						c0,0.01,0,0.01,0,0.02c0,0.01,0,0.01,0,0.02c0,0.01,0,0.01,0,0.02c0,0.01,0,0.01,0,0.02c0,0.01,0,0.01,0,0.02
						c0,0.01,0,0.01,0,0.02c0.36,2.79,1.12,8.59,2.78,18.65c1.21,7.28,1.21,7.28,1.75,8.44c1.19,2.55,4.33,3.84,4.54,7.02
						c0.39,5.78-3.7,6.98-6.47,4.67c-4.96-4.13-0.26-9.13-0.74-13.67c-0.77-7.28-2.6-14.38-3.57-21.62
						c-0.77-5.74-1.09-8.12-20.22-24.03c-10.88-9.05-28.96,3.53-27.86,15.75c0.08,0.85,7.04,24.63,22.37,56.26
						c0,0.01,0.01,0.01,0.01,0.02c0,0.01,0.01,0.01,0.01,0.02c0,0.01,0.01,0.01,0.01,0.02s0.01,0.01,0.01,0.02
						c0,0.01,0.01,0.01,0.01,0.02s0.01,0.01,0.01,0.02c0,0.01,0.01,0.01,0.01,0.02c0,0.01,0.01,0.01,0.01,0.02
						c4.55,8.53,14.97,10.74,20.09,18.67c4.04,6.27,5.9,13.73,10.69,19.59c1.21,1.48,1.58,1.81,2.81,2.84
						c1.11,0.93,3.62,4.34,2.67,6.5c-1.97,0.5-4.21-1.95-5.08-3.03c-0.19-0.23-0.42-0.54-0.6-0.78c-2.15-2.87-1.82-6.65-3.58-9.66
						c-3.36-5.76-5.74-10.45-6.61-12.2c-0.3-0.61-0.69-1.42-1.03-2.01c-4.75-8.19-15.45-9.71-20.11-18.01c0,0,0-0.01-0.01-0.01
						c0,0,0-0.01-0.01-0.01s0-0.01-0.01-0.01c0,0,0-0.01-0.01-0.01c0,0,0-0.01-0.01-0.01c0,0,0-0.01-0.01-0.01
						C235.03,470.89,235.03,470.89,235.03,470.88"/>
					<path class="st0" d="M187.87,63.34c-2.23,1.27-2.49,1.65-2.59,1.8c1.45,0.23,10.65-5.31,10.7-5.37
						c0.34-0.38,1.43-0.98,4.31-2.35c0.01-0.01,0.02-0.01,0.03-0.02c0.01-0.01,0.02-0.01,0.03-0.02c0.01-0.01,0.02-0.01,0.03-0.02
						c0.01-0.01,0.02-0.01,0.03-0.02c0.01-0.01,0.02-0.01,0.03-0.02c0.01-0.01,0.02-0.01,0.03-0.02c0.01-0.01,0.02-0.01,0.03-0.02
						s0.02-0.01,0.03-0.02c3.46-1.51,8.11-3.48,11.64-4.84l-1.51,0.53C199.45,57.2,187.96,63.29,187.87,63.34"/>
					<path class="st0" d="M386.23,56.86c2.83,1.69,7.41,3.87,8.3,3.43c-0.19-0.58-0.42-1.29-19.09-10.12
						c-1.49-0.7-5.01-1.81-7.82-2.61l-1.51-0.42c5.16,1.45,7.03,2.24,7.6,2.51l9.48,4.76c1.09,0.63,1.82,1.71,2.89,2.37
						C386.13,56.8,386.19,56.84,386.23,56.86"/>
					<path class="st0" d="M297.14,544.08c-7.32-2.15-9.35-3.14-17.91-7.33c-3.36-1.65-4.78-2.46-7.1-4.35
						c-3.55-2.9-7.61-5.12-11.03-8.19c-2.03-1.81-3.57-4.12-5.83-5.69c-3.75-2.61-5.34-2.43-4.58-1.04
						c0.46,0.85,1.82,2.15,3.45,3.32c0.14,0.1,0.33,0.24,0.48,0.34c3.03,2.06,6.36,3.62,9.38,5.7c3.11,2.14,5.9,4.69,9.03,6.8
						c0.46,0.31,1.09,0.68,1.57,0.96C281.62,538.62,289.2,541.81,297.14,544.08"/>
					<path class="st0" d="M353.54,523.19c-12.05,6.64-27.05,14.91-56.39,20.89c24.99-5.11,63.19-20.95,63.64-23.57
						c-0.58-0.1-1.65-0.3-7.08,2.59C353.65,523.12,353.59,523.16,353.54,523.19"/>
					<path class="st0" d="M382.49,174.6c0.68,3.66,5.56,5.99,7.84,2.8c0.66-0.92,0.65-1.88,0.62-2.24c-0.59-3.9-5.57-6.6-7.89-3.29
						C382.67,172.42,382.26,173.34,382.49,174.6 M379.4,174.58c-0.08-0.41-0.1-0.97-0.12-1.39c0.72-6,5.88-5.83,6.91-5.73
						c3.81,0.36,5.29,4.02,8.14,5.72c1.28,0.77,1.28,0.77,17.33,3.03c12.91,1.82,25.31,6.53,38.5,6.81
						c4.68,0.1,5.92-6.27,10.82-5.76c0.12,0.01,20.43,5.08,24.38,6.92c3.39,1.58,6.02,2.65,8.95,1.95c0.5-0.12,1.1-0.45,1.54-0.72
						c2.77-1.67,1.54-5.66,4.26-7.36c2.26-1.41,3.45,1.77,5.5,1.28c0.26-0.49,0.26-0.49,0.82-2.59c3.43-1.8,8.73,9.01,7.98,12.15
						c-0.21,0.86-1.21,3.22-5.4-2.33c-1.37-1.82-4.23-5.61-6.22-5.52c-4.75,0.21-3.14,6-5.65,8.36c-1.24,1.17-2.17,0.84-7.29-1
						c-5.75-2.06-23.45-7.15-25.43-7.53c-5.4-1.05-7.1,6-12.22,5.57c-18.28-1.56-35.78-7.78-54.12-9.01
						c-4.29-0.29-5.95,5.23-10.36,4.68c-3.91-0.49-6.08-2.82-7.21-4.68C379.95,176.51,379.58,175.55,379.4,174.58"/>
					<path class="st0" d="M497.75,434.91c-1.89,2.55-2.72,4.97-1.63,4.79c0.05-0.01,1.17-0.22,3.11-2.7
						c1.66-2.19,2.76-5.01,1.62-4.88C500.18,432.19,498.94,433.31,497.75,434.91 M337.92,538.15l1.35-0.31
						c83.51-18.66,113.64-48.85,123.54-58.77c0.26-0.26,31.03-38.75,31.8-40.74c0.55-1.42,4.64-8.53,8.36-8.99
						c1.53,3.42,1.53,3.42-25.12,31.31c0,0-0.01,0.01-0.01,0.01c0,0-0.01,0.01-0.01,0.01c0,0-0.01,0.01-0.01,0.01
						c0,0-0.01,0.01-0.01,0.01c0,0-0.01,0.01-0.01,0.01c0,0-0.01,0.01-0.01,0.01c0,0-0.01,0.01-0.01,0.01c0,0-0.01,0.01-0.01,0.01
						c-6,6.39-9.58,14.72-16.37,20.47c-14.93,12.64-31.89,23.44-41.88,28.85c-43.98,23.82-78.47,28.89-88,29.88
						C332.94,539.3,332.94,539.3,337.92,538.15"/>
					<path class="st0" d="M323.19,39.17c3.25,0.39,3.25,0.39,3.34,0.39c-0.03-0.02-0.07-0.04-0.74-0.12
						c-0.08-0.01-0.17-0.02-0.25-0.03l-2.81-0.29C322.88,39.14,323.03,39.16,323.19,39.17 M322.5,39.12
						c-0.26-0.03-0.53-0.07-0.79-0.09c0.23,0.02,0.54,0.05,0.77,0.07l4.2,0.44l0.09,0.01c0.76,0.09,1.1,0.15,1.27,0.22
						C327.89,39.81,327.89,39.81,322.5,39.12"/>
					<path class="st0" d="M533.97,194.86c0.85,2.18,2.27,5.33,2.63,5.5c0.04-0.08,0.16-0.33-0.92-3.13c-0.8-2.03-2.26-5.26-2.65-5.5
						C532.87,191.94,533.55,193.78,533.97,194.86 M533.54,194.71c-1.96-4.91-3.52-9.98-5.81-14.76
						c-4.89-10.21-11.17-20.73-11.23-20.82c0.59,0.95,1.37,2.22,1.96,3.18l0.49,0.83c8.81,15.28,18.87,37.59,18.95,40.32
						C536.83,202.88,533.87,195.54,533.54,194.71"/>
					<path class="st0" d="M43.46,314.03c0.08-0.02,8.38-6.14,9.33-14.55c0.32-2.85,0.92-8.16,3.62-11.02
						c5.73-6.07,14.32-7.13,20.79-11.9c4.01-2.96,3.18-8.75,6.94-11.85c1.08-0.9,2.4-1.38,2.89-1.56c25.11-9.2,25.11-9.2,28.37-4.67
						c1.1,1.53,2.94,4.08,6.26,4.24c0.45,0.02,1.06,0,1.51-0.02c8.93-0.46,17.1-4.29,25.8-5.76c4.88-0.83,7.51,6.13,12.85,3.71
						c0.32-0.15,0.72-0.39,1.03-0.57c4.62-2.61,5.13-11.44,0.81-13.89c-0.94-0.54-2.16-0.57-2.75-0.46
						c-0.65,0.12-3.97,0.89-6.05,3.94c-1.86,2.73-3.33,4.89-30.83,9.51c-3.66,0.61-5.15-1.42-6.03-2.63
						c-1.35-1.84-3.6-4.93-7.69-4.37c-2.91,0.4-25.65,8.59-26.59,9.11c-0.23,0.13-0.51,0.35-0.71,0.53
						c-3.92,3.4-3.2,9.76-8.02,12.59c-20.07,11.76-20.07,11.76-20.28,12.03c-3.45,4.5-1.81,10.39-4.13,15.2
						c-1.64,3.38-5.14,5.35-6.69,8.8c-0.09,0.19-0.2,0.44-0.28,0.64c-0.44,1.07-0.44,1.07-0.24,2.98
						C43.4,314.04,43.43,314.03,43.46,314.03"/>
					<path class="st0" d="M233.73,359.61c0.58,3.71,4.96,5.75,7.3,2.42c0.93-1.33,0.84-2.57,0.8-3.1c-0.47-3.46-4.85-5.77-7.2-2.89
						C233.87,356.96,233.53,358.3,233.73,359.61 M119.86,408.11c-0.21-0.34-0.47-0.82-0.65-1.17c-2.73-5.7-0.41-7.89,1.55-7.42
						c2.8,0.67,4.74,4.62,8.23,2.54c0.17-0.1,0.38-0.29,0.54-0.41c5.62-4.41-1.07-11.74,3.87-16.31c2.23-2.06,24.3-6.8,24.52-6.84
						c7.32-1.49,9.07-1.84,10.8-7.64c0.4-1.34,1.23-4.11,4.36-5.02c0.34-0.1,0.78-0.25,1.12-0.32c17.17-3.94,34.86-3.88,52.17-6.79
						c4.54-0.76,4.96-7.04,9.84-7.36c8.03-0.52,11.88,10.52,5.15,14.77c-0.28,0.18-0.66,0.41-0.97,0.52
						c-3.4,1.17-5.26,0.05-7.02-2.01c-6.2-7.27-55.22,3.1-55.71,3.21c-3.39,0.77-3.39,0.77-8.34,9.45
						c-1.07,1.88-1.07,1.88-10.08,4.08c-26.66,6.51-26.66,6.51-26.36,18.77c0.03,1.4,0.06,2.32-0.5,3.48
						c-0.93,1.94-3.55,1.45-4.62,3.19c-1.06,1.73,1.5,4.15-0.74,5.52C124.75,413.74,121.72,411.12,119.86,408.11"/>
					<path class="st0" d="M445.21,256.93c0.15,5.23,5.35,11.49,10.53,5.87c0.81-0.88,1.73-1.87,3.02-1.93
						c0.2-0.01,0.46-0.02,0.66-0.02c9.47,0.04,17.42,5.95,26.66,6.87c5.62,0.56,6.65-7.31,12.3-6.68c2.29,0.26,22.05,8.92,22.18,9
						c4.73,2.92,3.68,9.05,7.07,12.71c5.28,5.7,13.01,8.12,18.37,13.72c0.24,0.25,0.54,0.6,0.72,0.9c3,4.81,1.07,10.47,2.69,15.52
						c0.93,2.89,2.94,5.28,3.73,8.23c0.18,0.66,0.32,1.33,0.49,1.99c0.37-1.29,0.61-2.15-0.14-5.07c-0.74-2.9-2.71-5.23-3.67-8.03
						c-1.52-4.45-0.67-9.25-2.02-13.72c-0.01-0.02-0.7-2.2-1.98-3.59c-4.98-5.44-12.55-7.36-17.49-12.86
						c-3.2-3.57-2.14-9.39-6.52-12.34c-0.21-0.14-23.84-12.26-28.09-9.92c-3.11,1.71-3.9,6.44-8.35,6.39
						c-1.83-0.02-25.94-6.66-26.07-6.73c-3.39-1.76-3.04-7.32-7.81-7.67c-4.22-0.32-6.01,3.21-6.28,6.61
						C445.22,256.41,445.21,256.71,445.21,256.93"/>
					<path class="st0" d="M417.61,89.93C417.61,89.93,417.61,89.93,417.61,89.93c0,0.01,0.01,0.01,0.01,0.01c0,0,0,0,0,0.01
						c0,0,0,0,0,0.01c0,0,0,0,0,0.01c0,0,0,0,0,0.01c0,0,0,0,0,0.01c2.02,2.64,5.71,4.33,5.98,2.73c0.1-0.57-0.35-1.22-0.53-1.49
						c0,0,0,0,0,0c0,0,0,0,0,0c0,0,0,0,0,0c0,0,0,0,0,0c0,0,0,0,0,0c0,0,0,0,0,0c0,0,0,0,0,0c0,0,0,0,0,0
						c-1.92-2.44-5.81-4.22-6.03-2.76C416.93,88.92,417.39,89.6,417.61,89.93C417.6,89.93,417.61,89.93,417.61,89.93 M367.8,49.43
						l-1.58-0.75c-7.6-3.56-7.6-3.56-14.43-5.04c1.58,0.36,3.68,0.83,5.25,1.18l0.08,0.02c13.07,3.53,40.93,21.04,41.14,21.2
						c3.76,2.76,9.91,9.06,11.36,10.6c2.5,2.67,4.72,5.59,7.29,8.2c2.33,2.36,5.49,3.69,7.67,6.23c1.25,1.44,1.98,3.4,0.99,4.05
						c-2.62,1.72-11.62-5.11-10.94-8.3c0.06-0.27,0.06-0.27,0.95-1.39c-1.31-1.96-11.57-14.01-16.51-17.73L367.8,49.43"/>
					<path class="st0" d="M466.72,288.37c-0.19,3.66,2.59,6.66,5.24,4.41c0.51-0.43,1.39-1.41,1.62-3.12
						c0.36-4.18-2.81-7.16-5.3-4.98C466.95,285.85,466.75,287.8,466.72,288.37 M464.1,288.96c-0.01-0.51,0.02-1.19,0.08-1.7
						c1.73-8.92,8.04-7.8,10.53-3.84c0.55,0.87,1.74,3.24,1.05,6.53c-2.08,9.85,7.09,22.79,7.79,23.41c0.42,0.38,1.1,0.76,1.62,0.97
						l23.98,8.95c0.88,0.17,0.88,0.17,6.25-3.86c4.04-3.03,18.7,8.74,19.55,10.2c0.67,1.15,1.15,2.89,1.5,4.17
						c1.52,5.53-0.91,11.27,0.86,16.78c1.53,4.78,5.84,8.07,6.98,13.05c0.36,1.55,0.36,1.55-0.53,4.25
						c-1.45-4.98-4.81-8.94-7.16-13.44c-3.68-7.07,2.29-15.24-2.51-22.18c-1.11-1.61-14.7-9.6-14.81-9.64
						c-2.27-0.86-3.44-0.44-5.43,1.98c-0.92,1.11-2.3,2.79-4.58,2.19c-0.24-0.06-0.56-0.16-0.79-0.25l-24.87-9.87
						c-6.04-4.32-6.12-12.03-10.01-17.58c-1.86-2.66-5.79-1.63-7.66-4.28C465.51,294.18,464.18,292.29,464.1,288.96"/>
					<path class="st0" d="M135.3,285.49c0.68,3.57,4.21,5.09,6.37,1.67c0.96-1.51,0.88-2.88,0.84-3.46
						c-0.56-4.79-4.46-4.83-6.14-2.83C135.41,282.02,134.99,283.84,135.3,285.49 M52.99,359.12l-0.2-0.16
						c-0.6-1.95-0.6-1.95-0.3-2.69c0.06-0.15,0.14-0.34,0.2-0.49c2.24-5.08,7.39-7.55,10.58-11.77c4.87-6.43-1.08-14.88,3.97-21.28
						c0.65-0.82,17.53-11.91,21.92-9.79c2.49,1.2,2.99,5.18,6.65,4.74c0.2-0.02,0.46-0.13,0.65-0.19
						c0.24-0.08,26.28-8.54,26.28-8.54c1.67-0.77,1.67-0.77,9.98-16.09c0.54-0.99,0.54-0.99-0.24-7.21
						c-0.67-5.4,2.89-9.29,5.63-9.59c9.46-1.04,7.54,14.3,3.04,15.87c-6.18,2.16-6.18,2.16-10.14,9.9
						c-4.88,9.52-4.88,9.52-7.26,10.4L95.79,321c-2.29,0.43-3.95-1.6-4.75-2.57c-0.96-1.18-2.76-3.37-5.38-2.2
						c-0.13,0.06-14.45,6.82-15.25,7.43c-7.48,5.7-2.52,14.17-4.68,21.05C65.02,346.99,53.1,359.02,52.99,359.12"/>
					<path class="st0" d="M46.59,334.11c0,0,10.37-11.54,10.37-11.54c0.48-0.72,0.48-0.72,1.22-5.96
						c2.3-16.34,2.3-16.34,15.38-22.79c10.02-4.94,10.02-4.94,12.39-1.47c0.94,1.38,2.51,3.69,4.46,3.91
						c0.36,0.04,0.85,0.14,1.22,0.13c4.24-0.11,7.64-2.69,11.5-3.9c3.36-1.06,4.67,0.13,6.43,2.21c2.14,2.52,4.03,1.34,4.57,0.92
						c5.31-4.22,3.6-13.18-0.43-14.88c-3.78-1.59-5.46,2.69-7.42,7.64c-16.05,5.16-16.05,5.16-19.24,1.07
						c-0.79-1.02-2.9-3.71-5.23-3.03c-3.7,1.09-17.43,8.17-20.69,10.67c-0.37,0.28-0.88,0.67-1.26,1.65
						c-2.57,6.51-0.95,13.77-3.61,20.27c-2,4.88-7.63,6.84-9.51,11.82c-0.59,1.56-0.59,1.56-0.24,3.33
						C46.52,334.14,46.56,334.12,46.59,334.11"/>
					<path class="st0" d="M296.83,543.77c0.1,0.1,0.21,0.2,0.31,0.31c-0.1-0.11-0.19-0.22-0.29-0.33c-0.77-0.9-1.16-1.34-1.3-1.42
						c0,0-0.01,0-0.01,0C295.57,542.41,295.87,542.81,296.83,543.77 M297.08,544.02c-2.19-2.07-2.41-2.59-2.41-2.72
						c0.27,0.09,0.27,0.09,2.47,2.77L297.08,544.02"/>
					<path class="st0" d="M489.97,292.55c-0.37,5.55,3.24,10.88,6.73,7.95c3.59-3.01,3.59-3.01,3.84-3.04
						c5.61-0.82,8.69,5.31,14.06,5.11c4.11-0.15,3.82-6.64,8.52-5.93c3.66,0.55,16.69,10.23,16.81,10.33
						c1.4,1.11,1.89,2.54,2.35,4.16c1.6,5.6,0.93,11.41,1.53,17.1c0.22,2.08,0.22,2.08,1.72,4.22c3.48,4.96,4.25,8.57,4.66,10.5
						c0.29-0.35,0.9-1.42,0.41-3.76c-1.13-5.48-5.69-9.61-6.04-15.39c-0.51-8.41-1.04-16.11-2-17.84
						c-1.25-2.24-18.1-13.84-20.58-13.46c-3.74,0.57-3.35,5.9-7.25,6.3c-1.37,0.14-3.25,0.33-12.28-4.29
						c-3.64-1.86-2.01-7.76-6.74-8.79c-2.19-0.48-4.91,1.23-5.69,6.09C490.02,292.03,489.98,292.33,489.97,292.55"/>
					<path class="st0" d="M216.57,475.36c1.53,1.94,4.7,3.85,4.89,1.55c0.06-0.74-0.22-1.63-0.84-2.63c0,0,0,0,0-0.01
						c0,0,0,0,0-0.01c0,0,0,0,0-0.01c0,0,0,0,0-0.01c0,0,0,0,0-0.01c0,0,0,0,0-0.01c0,0,0,0,0-0.01c0,0,0,0,0,0
						c-1.87-2.65-4.78-3.82-5.19-2.09C215.21,472.96,215.67,474.22,216.57,475.36 M215.28,476.14c-0.24-0.3-0.53-0.72-0.74-1.03
						c-2.73-4.52-1.33-6.92,1.75-6.06c8.08,2.27,6.48,10.82,10.28,15.86c0.03,0.04,0.06,0.08,0.09,0.13
						c0.03,0.04,0.06,0.09,0.1,0.13c0.03,0.04,0.07,0.09,0.1,0.13c0.03,0.04,0.07,0.09,0.1,0.13c0.03,0.05,0.07,0.09,0.1,0.14
						c0.03,0.05,0.07,0.09,0.1,0.14c0.03,0.04,0.07,0.09,0.1,0.13c0.03,0.04,0.07,0.09,0.1,0.13c2.48,3.33,2.92,3.87,10.2,12.84
						c5.42,6.68,9.69,9.2,16.15,13.01c0.86,0.51,0.86,0.51,8.71,8.02c1.46,1.4,3.27,3.1,5.68,5.13
						c14.59,12.33,14.59,12.33,26.98,18.21c-9.61-2.97-15.9-8.26-27.33-17.87c-1.75-1.47-1.75-1.47-5.97-5.44
						c-5.75-5.4-13.11-8.63-18.86-14.02c-0.3-0.29-0.92-0.9-1.64-1.68c-8.4-9.04-14.48-16.94-16.14-19.15
						C222.43,481.45,218.1,479.63,215.28,476.14"/>
					<path class="st0" d="M381.01,298.89c-0.29,3.39,3.2,6.94,6.54,4.23c1.56-1.27,1.8-2.87,1.88-3.4c0.33-3.3-3.33-6.96-6.64-4.29
						C381.79,296.25,381.13,297.54,381.01,298.89 M377.93,298.76l0.18-1.32c1.68-6.07,9.05-9.17,12.28-3.62
						c1.17,2.01,2.28,3.91,4.85,4.72c5.57,1.74,11.53,0.45,17.11,2.13c13.43,4.05,10.74,20.32,20.54,27.12
						c3.85,2.67,6.2,3.18,11.28,3.33c4.28,0.13,9.55-6.97,12.53-1.8c3.97,6.91-2.1,13.61-6.22,12.75c-2.15-0.45-2.78-2.31-3.12-3.31
						c-1.09-3.21-2.19-4.16-5.6-4.83c-9.87-1.95-9.87-1.95-10.57-2.37c-1.61-0.96-2.08-1.9-4.06-5.84
						c-0.09-0.17-8.88-17.49-12.18-20.06c-1.33-1.03-1.33-1.03-17.91-3.31c-3.64-0.5-4.98,0.22-6.92,2.5
						c-1.54,1.81-4.62,2.57-4.64,2.56C383.5,307.04,377.53,305.92,377.93,298.76"/>
					<path class="st0" d="M227.05,297.54c0.63,3.57,5.14,5.92,7.94,1.98c0.32-0.45,1.05-1.63,0.95-3.02
						c-0.51-4.12-5.35-5.88-7.85-2.86C227.04,294.91,226.86,296.49,227.05,297.54 M150.78,332.67c-0.13-0.43-0.25-1.02-0.33-1.47
						c-0.71-6.45,4.23-9.87,7.98-7.24c5.23,3.67,5.23,3.67,6.91,3.47c12.98-1.49,13.31-2.02,15.89-6.1
						c12.75-20.15,15.09-21.59,16.09-22.2c1.99-1.23,1.99-1.23,25.28-3.33c10.77-16.46,16.24-1.17,16.28-0.99
						c1.77,7.83-6.73,12.38-10.93,9.35c-6.23-4.5-6.23-4.5-6.54-4.52c-0.7-0.06-17.69,1.06-20.91,2.07
						c-5.2,1.63-12.28,14.81-12.35,14.94c-2.22,4.16-3.83,7.17-8.25,10.36c-0.72,0.52-1.78,1.04-2.57,1.44
						c-4.19,2.16-9.29,0.12-13.34,2.91c-2.52,1.73-2.64,5.47-5.68,6.77C156.78,338.79,152.33,337.74,150.78,332.67"/>
					<path class="st0" d="M203.79,138.51c-0.24,2.76,3.39,4.04,6.58,1.5c0.99-0.79,1.67-1.8,1.86-2.76c0.4-3.26-3.43-4.42-6.51-1.96
						C204.6,136.19,203.9,137.36,203.79,138.51 M137.03,141.04c0.11-0.33,0.29-0.76,0.43-1.08c2.36-4.64,6.15-6.14,6.19-6.15
						c0.31-0.1,0.71-0.26,1.03-0.34c1.98-0.48,2.56,0.71,2.77,1.16c1.79,3.74,15.23-1.15,15.36-1.21c3.19-1.25,5.43-3.4,6.91-4.83
						c2.59-2.5,5.28-5.08,20.69-6.21c0.76-0.06,2.35-0.17,3.35,0.31c0.2,0.1,0.48,0.22,0.67,0.33c3.67,2,5.83,5.6,8.78,8.35
						c3.39,3.15,9.93-2.53,11.77,2.88c1.93,5.68-6.58,12.14-12.15,9.22c-1.23-0.65-3.08-2.32-1.58-6.27
						c1.93-5.08-8.55-11-9.76-11.32c-10.82-2.91-19.58,3.84-24.81,7.88c-0.33,0.25-1.52,1.13-3.05,1.79
						c-4.42,1.89-9.27,1.8-13.82,3.07c-3.97,1.11-5.71,5.56-9.76,6.55C137.46,145.79,136.1,143.94,137.03,141.04"/>
					<path class="st0" d="M385.02,404.46c-0.9,2.96,0.65,5.7,3.41,4.34c0.63-0.31,2.18-1.26,3-3.37c0,0,0,0,0-0.01c0,0,0,0,0-0.01
						c0,0,0,0,0-0.01c0,0,0,0,0-0.01c0,0,0,0,0-0.01c0,0,0,0,0-0.01c0,0,0,0,0-0.01c0,0,0,0,0-0.01c0.87-3.03-1.08-5.78-3.91-4.16
						C386.39,401.9,385.45,403.1,385.02,404.46 M382.26,405.66c0.07-0.45,0.2-1.04,0.33-1.47c3.27-8.08,9.66-7.53,11.17-3.85
						c0.37,0.91,0.8,2.89-0.51,5.99c-3.17,7.52,3.9,18.11,3.99,18.17c3.02,2.18,11.09,3.53,13.8,1.76
						c7.87-5.13,7.87-5.13,14.01-3.28c5.38,1.62,6.2,1.72,9.56-0.98c3.44-2.76,4.87-0.37,4.93-0.27c2.72,4.73-5.05,12.48-8.47,11.72
						c-1.53-0.34-1.47-1.9-1.43-2.83c0.09-2.14-1.2-5.79-10.79-6.16c-1.87-0.07-3.15,1-4.08,1.78c-1.98,1.66-4.23,3.54-7.47,3.86
						c-0.77,0.08-1.82-0.1-2.58-0.24l-8.61-1.8c-0.88-0.5-1.73-1.62-2.26-2.48c-2.06-3.33-1.9-7.34-3.36-10.86
						c-1.2-2.88-2.97-2.83-4.68-2.78C381.45,412.05,382.25,405.73,382.26,405.66"/>
					<path class="st0" d="M58.83,376.38c0.39,0.97,0.39,0.97,0.5,0.98c0.06,0,0.14,0,0.2,0c0.68-0.02,1.91-2.45,1.92-2.47
						c0.52-1.11,0.73-1.49,1.14-1.82c1.69-1.38,3.66,1.04,5.39,3.18c0.85,1.04,1.56,0.97,1.83,0.89c0.05-0.02,7.49-5.64,7.81-6.28
						c0.14-0.27,0.25-0.67,0.31-0.97c0.69-3.35,0.05-6.71,0.16-10.07c0.15-4.58,1.28-5.14,2.38-5.68c0.44-0.22,1.61-0.8,1.45-4.18
						c-0.23-4.9-3.18-10.79-5.77-9.88c-1.73,0.61-2.7,4.52-1.3,8.05c2.29,5.79,2.33,18.33,0.07,20.95c-0.18,0.2-0.45,0.44-0.66,0.61
						L69,373.85c-1.05,0.36-1.96-0.83-2.7-1.79c-3.01-3.93-4.13-4.85-7.46,2.08c-0.09,0.18-0.09,0.18-0.07,2.1
						C58.79,376.28,58.81,376.34,58.83,376.38"/>
					<path class="st0" d="M521.95,179.38c1.77,4,4.38,7.58,5.88,11.73c0.08,0.24,0.1,0.28,0.12,0.32c0.02,0.04,0.03,0.08,0.05,0.13
						c0.02,0.04,0.03,0.08,0.05,0.13c0.02,0.04,0.03,0.08,0.05,0.13c0.02,0.04,0.03,0.08,0.05,0.13c0.02,0.04,0.03,0.08,0.05,0.13
						s0.03,0.08,0.05,0.13c0.02,0.04,0.03,0.08,0.05,0.13c5.42,14.51,5.42,14.51,8.46,20.22c1.82,3.42,4.94,5.82,7.09,8.99
						c0.07-0.03,0.17-0.08,0.24-0.12c-0.08-1.3-0.73-2.51-0.59-3.84c0.16,0.3,0.42,0.79,0.95,2.49l-0.99-3.15
						c-0.66-1.98-0.9-2.38-1.02-2.57c0,1.23,0.49,2.39,0.55,3.61c-3.53-1.09-16.21-25.33-15.65-31.93
						c0.19-2.27-4.88-11.63-6.78-12.51c-0.27,0.31-0.68,0.77,1.18,5.3C521.78,178.98,521.87,179.21,521.95,179.38"/>
					<path class="st0" d="M521.84,353.99c-0.32,1.26-0.67,3.13-0.5,4.82c0.13,1.35,0.73,1.76,0.92,1.9c0.89,0.62,1.9,1.33,2.05,4.62
						c0.2,4.39-1.35,8.78-0.07,13.18c0.09,0.3,0.23,0.72,0.43,0.97c0.17,0.22,0.4,0.5,0.57,0.71c0.48,0.56,1.26,0.68,1.74,1.24
						c0.73,0.85,0.92,2.03,1.76,2.81c0.54,0.5,1.08,0.73,1.99,0.28c0.98-0.5,2.1-2.01,2.99-3.23c0.63-0.85,0.87-0.8,1.31-0.72
						c0.01,0,0.84,0.61,1.59,4c0.16,0.72,0.16,0.72,0.44,1.18c2.22-3.29-0.35-9.1-1.35-8.8c-2.4,0.73-1.8,4.62-4.88,4.63
						c-0.13,0-0.32-0.08-0.41-0.18c-0.11-0.12-0.25-0.27-0.36-0.39c-0.55-0.62-0.71-1.48-1.26-2.1c-0.66-0.75-1.76-0.98-2.26-1.93
						c-2.5-4.7-0.13-17.33-0.1-17.45c0.51-2.25,1.64-4.32,1.94-6.63c0.43-3.31-0.42-4.73-0.46-4.79c-1.68-2.71-4.28,0.26-5.73,4.57
						C522.11,353.07,521.94,353.6,521.84,353.99"/>
					<path class="st0" d="M83.71,424.2c0.28,0.39,0.57,0.77,0.85,1.16c1.61-0.88,3.56-4.34,3.57-4.37c0.13-0.36,0.48-1.31-0.41-4.17
						c-1.31-4.2-1.42-4.55-0.92-5.46c0.18-0.34,5.4-5.22,6.72-5.19c4.53,0.12,14.47,13.63,15.55,19.84
						c0.9,5.21,8.19,12.44,9.39,9.32c0.8-2.09-1.77-6.16-2.57-7.35c-1-1.48-2.03-2.52-3.05-3.09c-1.31-0.73-3.3-1.82-5.98-6.12
						c-1.83-2.94-3.36-6.07-5.5-8.82c-2.48-3.18-7.32-6.7-8.17-6.94c-1.95-0.57-8.29,5.74-8.32,5.81c-1.5,3.29,1.75,5.87,1.36,9
						c-0.24,1.98-2.59,2.75-2.76,4.78c-0.04,0.49,0.09,0.96,0.13,1.45C83.63,424.09,83.67,424.15,83.71,424.2"/>
					<path class="st0" d="M484.32,434.74c-2.54,3.67-3.56,7.54-1.05,7.03c2.18-0.44,6.7-4.9,7.94-9.36
						c1.46-5.23,11.37-19.54,15.88-19.53c1.02,0,4.82,5.03,4.97,5.64c0.11,0.45,0.11,0.45-1.98,6.52c-0.63,1.81-0.65,2.73-0.56,3.18
						c0.09,0.47,1.35,3.97,1.36,3.99c0.08,0.18,0.08,0.18,0.65,0.25c0.89-1.25,0.97-1.36,1.16-2.65c0.26-1.78-1.35-3.09-1.24-4.83
						c0.19-2.98,2.87-5.25,2.41-8.42c-0.25-1.69-4.59-6.54-5.6-6.6c-0.68-0.04-2.76,0.39-7.51,5.28c-0.53,0.54-1.15,1.34-1.63,1.92
						c-0.19,0.22-0.19,0.22-5.68,8.35c-2.34,3.46-6.18,5.4-8.7,8.68C484.6,434.36,484.44,434.58,484.32,434.74"/>
					<path class="st0" d="M53.43,212.79c-0.2,0.61-0.39,1.22-0.58,1.84c0.35-0.66,2.68-4.72,3.59-5.39c0.1,0.06,0.23,0.15,0.33,0.22
						c0.15,1.22-0.38,2.43-0.09,3.65c0.1,0.04,0.23,0.1,0.33,0.14l8.34-6.92c1.12-1.18,2.25-3.17,3.67-5.7
						c1.16-2.06,2.67-5.09,3.44-6.91c0.27-0.64,0.27-0.64,3.53-9.85c1.59-4.49,4.92-8.04,6.69-12.43c1.71-4.24,0.97-4.8,0.7-4.86
						c-1.86-0.48-7.68,9.2-7.23,12.04c0.38,2.43-2.61,12.08-8.99,23.17c-1.27,2.2-8.82,7.83-8.88,7.85
						c-1.35-1.13,0.72-2.64-0.43-3.79c-0.02,0.02-2.32,2.15-4.31,6.69C53.49,212.6,53.45,212.71,53.43,212.79"/>
					<path class="st0" d="M56.75,260.68c-0.01,2.49,0.81,3.74,1.79,2.73c0.85-0.88,1.57-3.24,1.66-5.48
						c0.06-3.15-0.86-4.46-1.72-3.53C57.66,255.27,56.75,258.06,56.75,260.68 M41.98,290.7c-0.11-0.15-0.13-0.43-0.13-0.61
						c-0.01-0.6-0.25-1.21-0.02-1.81c0.77-2.01,2.4-3.55,3.08-5.6c1.74-5.25,1.72-10.91,3.68-16.11c1.31-3.47,3.15-4.41,4.25-4.97
						c0.07-0.06,0.14-0.12,0.21-0.18c1.75-1.36,2.42-2.19,3.72-6.75c1.04-3.66,2.18-3.94,2.73-4.08c1.22-0.3,2.56,2.65,1.79,8.79
						c-0.71,5.61-3.24,9.88-4.6,7.74c-0.64-1.01-0.69-2.3-1.49-3.24c-0.02-0.02-0.4-0.45-1.28-0.02c-1.72,0.86-4.78,2.98-5.95,7.59
						c-1.14,4.52-1.41,9.22-2.75,13.7c-0.4,1.36-0.4,1.36-2.98,5.56C42.17,290.7,42.06,290.7,41.98,290.7"/>
					<path class="st0" d="M543.32,266.29c0.21,3.56,1.4,6.38,2.23,5.3c0.26-0.34,0.56-1.16,0.54-3.16c0,0,0,0,0-0.01c0,0,0,0,0-0.01
						c0,0,0,0,0-0.01c0,0,0,0,0-0.01c0,0,0,0,0-0.01c0,0,0,0,0-0.01c0,0,0,0,0-0.01s0,0,0-0.01c-0.15-3.01-1.25-7.15-2.16-6.24
						C543.63,262.43,543.16,263.64,543.32,266.29 M542.19,265.52c-0.03-0.45-0.04-1.04-0.05-1.49c0.05-5.45,1.37-5.87,2.14-5.26
						c0.97,0.76,1.56,3.31,1.75,4.15c0.67,2.91,1.2,4.92,2.38,6.36c1.55,1.9,2.89,3.55,3.27,4.33c0.19,0.38,0.34,0.93,0.45,1.34
						c0.27,1,0.5,2.52,0.59,3.09l2.68,18.29c0.17,1.25,0.17,1.25,0.1,3.8c-0.02-0.15-0.05-0.35-0.08-0.5
						c-0.26-1.58-0.96-3.04-1.29-4.6c-1.17-5.55-0.52-11.34-2.2-16.82c-2.29-7.49-4.92-5.92-4.95-5.89
						c-0.71,1.01-0.51,2.37-1.27,3.37C543.94,275.87,542.44,269.78,542.19,265.52"/>
					<path class="st0" d="M184.53,447.08c2.04,2.9,5.57,4.43,6.15,2.01c0.8-3.35-4.24-8.73-6.74-7.19c-0.31,0.19-1.72,1.3,0.34,4.79
						C184.35,446.81,184.45,446.97,184.53,447.08"/>
					<path class="st0" d="M447.54,120.1c2.03,3.44,6.32,5.76,6.95,3.76c0.76-2.41-4.87-7.9-7.09-6.92c-0.75,0.33-0.78,1.4-0.07,2.79
						C447.39,119.84,447.47,119.99,447.54,120.1"/>
					<path class="st0" d="M440.83,108.15c1.97,3.18,6.52,5.64,6.95,3.76c0.51-2.23-5.62-7.62-7.28-6.41
						c-0.31,0.23-0.69,0.87,0.31,2.62C440.82,108.13,440.83,108.14,440.83,108.15"/>
					<path class="st0" d="M193.28,460.27c2.57,3.32,5.77,3.82,5.93,1.64c0.24-3.28-5.24-8.31-7.07-6.49
						c-0.77,0.77-0.42,2.64,0.83,4.43C193.06,459.97,193.18,460.14,193.28,460.27"/>
					<path class="st0" d="M451.39,111.11c2.02,3.08,6.26,5.72,6.68,4.16c0.18-0.69-0.54-1.83-0.85-2.32c0,0,0,0,0-0.01s0,0,0-0.01
						s0,0,0-0.01s0,0,0-0.01c0,0,0,0,0-0.01c0,0,0,0,0-0.01c0,0,0,0,0-0.01c0,0,0,0,0-0.01c-2.49-3.55-6.27-5.58-6.57-4.01
						c-0.14,0.73,0.49,1.76,0.76,2.19C451.38,111.09,451.39,111.1,451.39,111.11"/>
					<path class="st0" d="M175.53,449.33c2.04,2.65,5.8,4.56,6.06,1.85c0.33-3.42-5.16-8.74-7.08-6.85
						c-0.83,0.81-0.51,2.79,0.73,4.6C175.33,449.05,175.44,449.21,175.53,449.33"/>
					<path class="st0" d="M194.14,444.84c1.91,2.98,5.77,4.98,6.36,1.76c0.7-3.88-4.69-8.35-6.79-6.74
						c-0.98,0.76-0.91,2.63,0.17,4.56C193.96,444.54,194.06,444.72,194.14,444.84"/>
					<path class="st0" d="M201.96,457.94c2.18,3.42,5.79,4.62,6.22,2.05c0.55-3.24-4.69-8.35-6.76-6.59
						c-0.24,0.2-1.34,1.38,0.51,4.49C201.94,457.91,201.95,457.92,201.96,457.94"/>
					<path class="st0" d="M185.01,462.39c2.17,2.56,5.49,4,5.79,1.91c0.41-2.81-5.21-8.29-7.07-6.9c-0.88,0.66-0.44,2.76,0.97,4.6
						C184.79,462.12,184.92,462.28,185.01,462.39"/>
					<path class="st0" d="M429.52,105.24C429.53,105.24,429.53,105.24,429.52,105.24c0,0.01,0.01,0.01,0.01,0.01c0,0,0,0,0,0.01
						c0,0,0,0,0,0.01c0,0,0,0,0,0.01c0,0,0,0,0,0.01c0,0,0,0,0,0.01c2.46,4.05,6.94,5.46,7.24,3.54c0.39-2.47-5.53-7.36-7.37-6.09
						C428.85,103.13,428.88,103.97,429.52,105.24C429.52,105.23,429.52,105.24,429.52,105.24"/>
					<path class="st0" d="M435.83,117.29c1.94,3.41,6.48,5.57,7.14,3.4c0.82-2.7-5.15-8.03-7.35-6.55
						c-0.94,0.63-0.24,2.22-0.01,2.75C435.68,117.01,435.77,117.17,435.83,117.29"/>
					<path class="st0" d="M458.46,122.92c1.93,3.46,6.3,6.25,6.77,4.33c0.58-2.38-5.04-8.12-7-7.14
						C457.79,120.33,457.46,121,458.46,122.92C458.46,122.92,458.46,122.92,458.46,122.92"/>
				</g>
			</g>
			<g class="st1">
				<defs>
					<path id="SVGID_7_" class="st1" d="M332.04,552c-3.15,0.42-11.35,1.45-19.28,1.86c-3.52,0.18-12.89,0.67-22.73,0.33
						c-11.01-0.38-17.43-1.06-23.58-1.78c-8.29-0.97-14.47-2.16-21.01-3.43c-4.54-0.88-13.45-3.06-18.33-4.49
						c-6.52-1.9-15.12-4.75-21.48-7.14c-4.68-1.76-10.85-4.32-15.37-6.46c-6.09-2.88-14.08-7-19.99-10.24
						c-63.04-35.82-104.58-106.6-104.42-193.4C66.09,190.32,170.06,65.33,298.06,48.12c-128,17.21-231.97,142.2-232.22,279.15
						c-0.16,86.8,41.38,157.58,104.42,193.4c0,0,0,0,0,0c-4.41-2.7-10.44-6.08-14.7-9.01c-6.79-4.67-15.66-11.16-22.09-16.31
						c-8.79-7.04-19.37-17.78-27.18-25.9c-5.13-5.34-11.48-12.97-15.7-19.05c-3.91-5.64-9.23-13.09-12.86-18.91
						c-3.14-5.02-7.17-11.85-9.73-17.19c-2.89-6.06-6.81-14.11-9.38-20.31c-2.32-5.58-5.06-13.16-6.9-18.91
						c-2.05-6.39-4.39-15.04-5.9-21.58c-1.39-6.02-2.79-14.14-3.75-20.24c-1.75-11.17-2.76-26.28-2.65-37.58
						c0.12-12.55,1.68-29.28,3.43-41.71c0.94-6.64,2.67-15.45,4.58-21.88c1.73-5.83,3.8-13.68,5.79-19.42
						c2.16-6.24,5.12-14.57,8-20.51c2.6-5.36,5.87-12.61,8.7-17.85c3.14-5.79,7.6-13.37,11.19-18.89
						c3.18-4.89,7.65-11.26,11.22-15.88c4.06-5.26,9.66-12.15,14.19-17.01c3.85-4.14,9.05-9.61,13.17-13.47
						c4.96-4.65,11.77-10.64,17.08-14.87c4.14-3.3,9.77-7.56,14.16-10.52c5.89-3.97,13.97-8.95,20.09-12.57
						c10.77-6.37,27.02-13.26,28.6-13.88c5.65-2.21,13.23-5.05,19.01-6.91c5.6-1.8,13.17-3.9,18.88-5.27
						c5.35-1.29,12.55-2.79,17.98-3.67c9.58-1.54,13.11-1.87,20.85-2.59c1.75-0.16,8.19-0.7,17.63-0.85
						c1.68-0.03,3.92-0.05,5.6-0.02c3.36,0.06,7.84,0.19,11.2,0.33c6.8,0.29,14.34,1.14,17.97,1.55c5.34,0.6,13.13,1.93,13.66,2.03
						c6.23,1.17,10.74,2.01,16.15,3.38c10.86,2.74,16.95,4.65,20.15,5.78c3.93,1.38,9.18,3.2,13.06,4.72
						c3.99,1.57,9.31,3.73,13.17,5.6c6.06,2.94,14.1,6.96,19.99,10.24c4.57,2.54,10.59,6.1,14.86,9.12
						c4.34,3.06,10.25,6.98,14.43,10.25c5.72,4.48,13.22,10.64,18.55,15.58c4.18,3.87,9.61,9.18,13.46,13.37
						c4.79,5.22,11.06,12.31,15.34,17.96c6.04,7.99,13.56,17.93,23.06,35.23c5.76,10.49,11.9,25.28,16.27,36.42
						c2.47,6.3,4.9,15.02,6.62,21.56c1.57,5.94,3.05,14.01,4.35,20.02c1.45,6.67,2.44,15.75,2.95,22.55
						c0.51,6.87,0.95,16.06,0.96,22.95c0.01,6.33-0.59,14.75-0.89,21.08c-0.36,7.58-1.72,17.67-3.32,25.09
						c-1.29,6-2.87,14.04-4.47,19.96c-1.74,6.44-4.39,14.95-6.65,21.23c-2.04,5.64-5.03,13.07-7.53,18.53
						c-2.78,6.06-6.67,14.07-10.03,19.83c-5.89,10.09-14.69,22.99-21.58,32.43c-3.92,5.38-9.87,11.99-14.37,16.89
						c-4.82,5.24-11.51,12.01-16.92,16.64c-8.03,6.89-19.03,15.77-27.78,21.72c-5.91,4.01-13.99,9.09-20.3,12.43
						c-3.93,2.08-9.15,4.87-13.17,6.77c-4.76,2.25-11.17,5.16-16.09,7.04c-2.8,1.07-6.52,2.56-9.37,3.49
						c-5.6,1.85-13.08,4.3-18.79,5.79C359.33,546.79,347.18,549.97,332.04,552z"/>
				</defs>
				<clipPath id="SVGID_4_">
					<use xlink:href="#SVGID_7_"  style="overflow:visible;"/>
				</clipPath>
			</g>
		</g>
	</g>
	<g>
		<path class="st0" d="M304.6,244.48c-1.04,0.07-1.83,0.16-2.63,0.17c-4.61,0.02-9.22,0.01-13.84,0.01c-2.97,0-2.97,0.01-2.98,3.07
			c-0.01,3.8,0,7.6,0,11.39c0,0.54-0.01,1.09-0.04,1.63c-0.04,0.69-0.37,1.2-1.11,1.2c-3.93-0.01-7.86-0.06-11.78-0.11
			c-0.12,0-0.23-0.13-0.52-0.31c-0.06-0.67-0.18-1.47-0.18-2.26c-0.01-14.99-0.01-29.98-0.01-44.96c0-0.34,0.01-0.68,0.02-1.02
			c0.01-1.02,0.58-1.45,1.55-1.47c0.47-0.01,0.95-0.02,1.42-0.02c9.83,0,19.67,0,29.5,0c0.47,0,0.95,0.01,1.42,0.03
			c0.81,0.04,1.27,0.51,1.27,1.29c0.03,2.78,0.03,5.56,0.01,8.34c-0.01,0.92-0.58,1.31-1.46,1.31c-1.63,0.01-3.26,0.02-4.88,0.02
			c-4.27,0-8.55-0.02-12.82,0c-2.16,0.01-2.36,0.22-2.38,2.31c-0.03,2.24-0.03,4.48-0.01,6.71c0.02,2.22,0.18,2.36,2.49,2.37
			c4.68,0.01,9.36,0.01,14.04,0.01c0.61,0,1.26-0.09,1.82,0.08c0.42,0.13,1.04,0.62,1.05,0.96
			C304.64,238.26,304.6,241.29,304.6,244.48z"/>
		<path class="st0" d="M331.92,255.29c-0.43,0.67-0.86,1.35-1.3,2.02c-2.13,3.23-5.08,4.85-9,4.98c-5.02,0.16-9.01-1.52-11.72-5.84
			c-1.43-2.28-2.17-4.83-2.19-7.51c-0.05-7.46-0.03-14.91-0.01-22.37c0-2.06,0.17-2.22,2.19-2.24c3.12-0.03,6.24-0.02,9.35,0
			c0.59,0,1.17,0.13,1.91,0.21c0.05,0.94,0.13,1.73,0.13,2.53c0.01,6.1-0.01,12.2,0.03,18.3c0.01,0.93,0.04,1.94,0.37,2.79
			c0.95,2.47,2.68,3.29,5.95,3.05c2.14-0.16,3.57-1.41,4.13-3.8c0.24-1.04,0.36-2.14,0.37-3.21c0.04-5.42,0.03-10.85,0.04-16.27
			c0-0.61,0.01-1.22,0.05-1.83c0.1-1.57,0.24-1.76,1.8-1.77c3.25-0.03,6.51-0.03,9.76,0c1.54,0.02,1.7,0.18,1.71,1.82
			c0.03,4.41,0.03,8.81,0.03,13.22c0,6.57-0.01,13.15-0.01,19.72c0,0.54-0.01,1.08-0.04,1.63c-0.04,0.8-0.43,1.26-1.27,1.26
			c-3.25,0-6.51,0-9.76,0c-1.02,0-1.46-0.62-1.54-1.53c-0.09-1.01-0.08-2.03-0.17-3.04c-0.06-0.7-0.19-1.4-0.29-2.1
			C332.26,255.29,332.09,255.29,331.92,255.29z"/>
	</g>
	<g>
		<path class="st0" d="M267.52,299.33c0.79-0.11,1.31-0.24,1.83-0.24c2.78-0.02,5.56-0.03,8.34,0c1.73,0.02,1.74,0.06,2.25,1.69
			c0.87,2.78,3.2,4.73,6.08,4.94c1.55,0.11,3.12,0.05,4.68,0.03c1.35-0.02,2.5-0.61,3.48-1.49c1.62-1.45,1.57-4.15-0.11-5.56
			c-0.46-0.39-0.98-0.77-1.54-0.95c-2.06-0.65-4.12-1.32-6.22-1.8c-3.36-0.77-6.78-1.34-9.91-2.87c-2.79-1.36-5.39-3.07-6.54-6.08
			c-0.71-1.86-1.24-3.93-1.21-5.9c0.08-5.44,2.68-9.59,7.39-12.29c3.4-1.94,7.1-2.94,11.04-2.99c3.06-0.04,6.09,0.03,9.05,0.93
			c5.88,1.79,9.96,5.35,11.44,11.49c0.2,0.83,0.14,1.72,0.21,2.77c-0.75,0.1-1.34,0.24-1.92,0.24c-2.78,0.02-5.56-0.01-8.34,0.02
			c-1.2,0.01-2-0.25-2.43-1.59c-0.61-1.9-2.15-2.98-4.11-3.18c-1.61-0.17-3.27-0.2-4.87-0.03c-3.23,0.34-4.99,3.69-3.2,6.06
			c0.58,0.77,1.5,1.45,2.4,1.78c1.96,0.72,4.01,1.19,6.03,1.75c2.54,0.7,5.15,1.2,7.61,2.13c4.36,1.64,7.86,4.39,9.12,9.13
			c1.92,7.25-0.75,14.07-7.93,17.08c-3.1,1.3-6.3,2.05-9.69,1.93c-1.76-0.06-3.53,0-5.29-0.05c-3.59-0.1-6.96-1.11-10.07-2.85
			c-4.62-2.58-6.91-6.72-7.54-11.86C267.45,300.87,267.52,300.14,267.52,299.33z"/>
		<path class="st0" d="M330.52,316.4c-4.03,0.19-7.79-0.63-11.26-2.78c-3.07-1.91-5.13-4.6-6.44-7.88
			c-1.79-4.49-1.84-9.2-0.83-13.81c1.25-5.7,4.64-9.99,10.25-11.96c6-2.11,12.1-2.11,17.97,0.66c4.14,1.95,6.82,5.28,8.17,9.63
			c1.51,4.86,1.52,9.77-0.02,14.6c-1.64,5.18-5.18,8.58-10.26,10.5C335.64,316.3,333.09,316.33,330.52,316.4z M324.2,297.22
			c0.06,0.02,0.12,0.03,0.18,0.05c0.05,0.95,0.02,1.9,0.18,2.83c0.16,1,0.45,1.98,0.76,2.94c1.14,3.5,4.48,5.06,7.54,3.48
			c1.68-0.87,2.51-2.43,2.99-4.17c0.91-3.35,0.78-6.71-0.11-10.04c-0.7-2.63-2.86-4.46-5.15-4.47c-2.51-0.02-4.6,1.66-5.35,4.44
			C324.8,293.91,324.54,295.57,324.2,297.22z"/>
	</g>
</g>
</svg>
