<?xml version="1.0" encoding="UTF-8"?>
<svg id="Capa_1" data-name="Capa 1" xmlns="http://www.w3.org/2000/svg" viewBox="0 0 243.43 237.41">
  <defs>
    <style>
      .cls-1 {
        fill: #008634;
      }

      .cls-2, .cls-3 {
        fill: #fff;
      }

      .cls-3 {
        stroke: #008634;
        stroke-miterlimit: 10;
        stroke-width: 2px;
      }
    </style>
  </defs>
  <path class="cls-3" d="M219.49,218.11c3.32-67.33,3.36-134.72.18-202.06-67.43-3.2-134.91-3.22-202.34-.11-3.11,67.41-3.07,134.87.18,202.27,67.31,3.23,134.68,3.21,201.99-.11ZM189.18,176.42c-.13,6.53-1.57,12.25-4.29,17.17-2.73,4.93-6.57,8.78-11.55,11.58-4.98,2.8-10.93,4.26-17.89,4.37-6.97.11-12.95-1.16-17.93-3.82-4.98-2.66-8.81-6.44-11.49-11.34-2.67-4.91-4.02-10.66-4.01-17.26,0-6.61,1.37-12.46,4.09-17.53,2.72-5.06,6.63-9.03,11.72-11.87,5.09-2.85,11.2-4.29,18.3-4.32,7.09-.03,13.12,1.35,18.09,4.13,4.97,2.78,8.73,6.66,11.3,11.63,2.57,4.97,3.78,10.74,3.65,17.27ZM50.8,27.5c20.08-.55,40.17-.78,60.27-.87-.02,7.32-.03,11.03-.04,18.5-12.49.02-24.98.12-37.47.29-.08,5.84-.12,8.79-.18,14.71,11.29-.1,22.57-.17,33.86-.22-.02,7.56-.03,11.37-.04,19.02-11.33.03-22.66.08-33.98.14-.06,11.4-.11,22.79-.12,34.19-9.45,0-14.16,0-23.45.01.07-28.59.44-57.18,1.16-85.76ZM110.76,197.99c-2.81,3.83-6.83,6.72-12.03,8.66-5.2,1.94-11.43,2.86-18.68,2.74-7.45-.12-13.91-1.32-19.43-3.57-5.52-2.26-9.83-5.65-12.94-10.2-3.11-4.55-4.77-10.34-4.95-17.43,8.68.18,13.08.26,21.93.39.18,2.61.87,4.81,2.07,6.6,1.2,1.79,2.88,3.15,5.03,4.09,2.15.94,4.71,1.43,7.69,1.47,2.5.03,4.59-.25,6.27-.84,1.68-.59,2.96-1.42,3.83-2.49.86-1.07,1.34-2.33,1.32-3.69-.01-1.28-.48-2.46-1.32-3.45-.84-1-2.22-1.9-4.12-2.71-1.9-.81-4.46-1.58-7.68-2.31-3.46-.77-5.19-1.16-8.63-1.94-7.65-1.74-13.65-4.59-18.05-8.52-4.4-3.94-6.58-9.3-6.66-16.02-.06-5.47,1.32-10.3,4.23-14.44,2.91-4.13,6.99-7.37,12.25-9.69,5.27-2.32,11.35-3.49,18.26-3.48,7.05,0,13.18,1.2,18.36,3.58,5.18,2.38,9.19,5.73,12.02,10.04,2.83,4.31,4.25,9.33,4.29,15.06-9.14,0-13.71-.01-22.8-.05-.24-2.84-1.31-5.07-3.21-6.67-1.9-1.6-4.77-2.41-8.6-2.43-2.44-.01-4.43.27-5.97.85-1.54.58-2.67,1.36-3.4,2.35-.73.99-1.08,2.15-1.12,3.4-.03,1.03.15,1.99.59,2.83.44.84,1.15,1.59,2.11,2.27.97.67,2.2,1.28,3.7,1.83,1.5.55,3.29,1.04,5.36,1.48,2.86.63,4.29.94,7.16,1.57,4.84,1.05,8.99,2.41,12.45,4.09,3.46,1.68,6.29,3.65,8.49,5.89,2.2,2.25,3.82,4.76,4.86,7.54,1.04,2.78,1.6,5.82,1.61,9.06.01,5.58-1.46,10.34-4.27,14.17ZM115.97,47.79c9.41,0,14.12.01,23.51.07.08,12.18.14,24.37.17,36.55.04,3.25.88,5.81,2.52,7.67,1.65,1.86,3.95,2.79,6.92,2.8,1.96,0,3.66-.41,5.09-1.25,1.43-.84,2.54-2.03,3.31-3.58.77-1.55,1.14-3.4,1.1-5.56-.07-12.15-.17-24.31-.32-36.46,9.31.11,13.94.18,23.1.36.38,21.62.58,43.24.63,64.87-8.78,0-13.22,0-22.14-.01,0-5.01,0-7.51-.02-12.51-.27,0-.41,0-.68,0-1.41,4.19-3.89,7.47-7.45,9.83-3.56,2.36-7.8,3.54-12.72,3.54-4.61,0-8.64-1.06-12.1-3.18-3.46-2.12-6.14-5.05-8.05-8.78-1.91-3.73-2.87-7.99-2.9-12.79,0-13.85,0-27.7.01-41.56Z"/>
  <path class="cls-2" d="M161.32,162.35c-1.43-1.31-3.13-1.96-5.11-1.95-2.1.02-3.9.69-5.41,2.03-1.51,1.34-2.67,3.23-3.48,5.67-.81,2.44-1.23,5.36-1.25,8.74-.03,3.36.35,6.23,1.11,8.64.77,2.41,1.89,4.25,3.37,5.52,1.48,1.28,3.25,1.91,5.33,1.88,1.96-.03,3.67-.7,5.11-2.01,1.44-1.31,2.58-3.18,3.4-5.59.82-2.42,1.25-5.29,1.29-8.64.04-3.37-.31-6.27-1.07-8.69-.76-2.42-1.86-4.29-3.28-5.6Z"/>
  <path class="cls-1" d="M73.22,79.06c11.33-.07,22.66-.11,33.98-.14.01-7.65.02-11.46.04-19.02-11.29.04-22.57.12-33.86.22.06-5.92.1-8.86.18-14.71,12.49-.17,24.98-.26,37.47-.29.01-7.47.02-11.18.04-18.5-20.09.09-40.18.32-60.27.87-.72,28.59-1.09,57.17-1.16,85.76,9.29,0,13.99,0,23.45-.01.02-11.4.06-22.79.12-34.19Z"/>
  <path class="cls-1" d="M126.9,110.92c3.46,2.12,7.49,3.18,12.1,3.18,4.92,0,9.16-1.18,12.72-3.54,3.56-2.36,6.04-5.64,7.45-9.83.27,0,.41,0,.68,0,.01,5,.02,7.51.02,12.51,8.92,0,13.36,0,22.14.01-.05-21.63-.25-43.24-.63-64.87-9.16-.18-13.79-.25-23.1-.36.15,12.15.25,24.3.32,36.46.04,2.16-.33,4.02-1.1,5.56-.77,1.55-1.88,2.74-3.31,3.58-1.43.84-3.13,1.25-5.09,1.25-2.97,0-5.27-.94-6.92-2.8-1.65-1.86-2.49-4.42-2.52-7.67-.04-12.18-.09-24.37-.17-36.55-9.38-.06-14.1-.07-23.51-.07,0,13.85,0,27.7-.01,41.56.03,4.8.99,9.07,2.9,12.79,1.91,3.73,4.59,6.65,8.05,8.78Z"/>
  <path class="cls-1" d="M108.56,167.22c-2.2-2.25-5.03-4.21-8.49-5.89-3.45-1.68-7.61-3.04-12.45-4.09-2.87-.63-4.3-.94-7.16-1.57-2.07-.44-3.86-.93-5.36-1.48-1.5-.55-2.74-1.16-3.7-1.83-.97-.67-1.67-1.43-2.11-2.27-.44-.84-.62-1.8-.59-2.83.04-1.25.39-2.41,1.12-3.4.73-.99,1.86-1.77,3.4-2.35,1.54-.58,3.53-.86,5.97-.85,3.83.02,6.7.82,8.6,2.43,1.9,1.6,2.97,3.83,3.21,6.67,9.1.03,13.67.04,22.8.05-.03-5.72-1.46-10.75-4.29-15.06-2.83-4.31-6.83-7.66-12.02-10.04-5.18-2.38-11.31-3.57-18.36-3.58-6.91,0-12.99,1.16-18.26,3.48-5.27,2.32-9.34,5.56-12.25,9.69-2.91,4.14-4.29,8.97-4.23,14.44.07,6.73,2.26,12.09,6.66,16.02,4.39,3.94,10.4,6.78,18.05,8.52,3.44.78,5.17,1.17,8.63,1.94,3.22.73,5.79,1.5,7.68,2.31,1.9.81,3.28,1.72,4.12,2.71.84.99,1.31,2.18,1.32,3.45.01,1.36-.46,2.62-1.32,3.69-.87,1.07-2.14,1.9-3.83,2.49-1.68.59-3.77.87-6.27.84-2.98-.04-5.54-.53-7.69-1.47-2.15-.94-3.83-2.3-5.03-4.09-1.2-1.79-1.89-3.98-2.07-6.6-8.85-.13-13.25-.21-21.93-.39.18,7.1,1.83,12.89,4.95,17.43,3.11,4.55,7.42,7.94,12.94,10.2,5.52,2.26,11.99,3.46,19.43,3.57,7.25.11,13.48-.8,18.68-2.74,5.2-1.94,9.21-4.83,12.03-8.66,2.82-3.83,4.29-8.59,4.27-14.17,0-3.24-.57-6.28-1.61-9.06-1.04-2.78-2.66-5.29-4.86-7.54Z"/>
  <path class="cls-1" d="M174.23,147.52c-4.97-2.78-11-4.16-18.09-4.13-7.1.03-13.21,1.47-18.3,4.32-5.09,2.85-9,6.81-11.72,11.87-2.72,5.06-4.08,10.92-4.09,17.53,0,6.61,1.33,12.36,4.01,17.26,2.67,4.91,6.51,8.68,11.49,11.34,4.98,2.66,10.96,3.94,17.93,3.82,6.97-.11,12.92-1.57,17.89-4.37,4.98-2.8,8.82-6.65,11.55-11.58,2.72-4.93,4.16-10.64,4.29-17.17.13-6.53-1.09-12.3-3.65-17.27-2.57-4.97-6.33-8.86-11.3-11.63ZM164.38,185.28c-.82,2.42-1.95,4.28-3.4,5.59-1.45,1.31-3.15,1.98-5.11,2.01-2.08.03-3.85-.6-5.33-1.88-1.48-1.28-2.6-3.12-3.37-5.52-.77-2.41-1.14-5.28-1.11-8.64.03-3.38.44-6.3,1.25-8.74.81-2.44,1.97-4.33,3.48-5.67,1.51-1.34,3.32-2.01,5.41-2.03,1.98-.01,3.69.63,5.11,1.95,1.42,1.31,2.52,3.18,3.28,5.6.76,2.42,1.12,5.32,1.07,8.69-.04,3.34-.48,6.22-1.29,8.64Z"/>
</svg>