<?xml version="1.0" encoding="UTF-8"?>
<svg id="Layer_2" data-name="Layer 2" xmlns="http://www.w3.org/2000/svg" viewBox="0 0 865 120.63">
  <defs>
    <style>
      .cls-1 {
        letter-spacing: -.03em;
      }

      .cls-2 {
        letter-spacing: -.03em;
      }

      .cls-3 {
        fill: #fff;
      }

      .cls-4 {
        fill: none;
      }

      .cls-5 {
        fill: #028f43;
      }

      .cls-6 {
        fill: #008031;
        font-family: Inter-Black, Inter;
        font-size: 72px;
        font-weight: 800;
      }
    </style>
  </defs>
  <g id="Capa_1" data-name="Capa 1">
    <g>
      <rect class="cls-3" y=".14" width="865" height="120.36"/>
      <text class="cls-6" transform="translate(143.95 83.02)"><tspan class="cls-2" x="0" y="0">F</tspan><tspan x="39.58" y="0">utu</tspan><tspan class="cls-1" x="162.2" y="0">r</tspan><tspan x="191.14" y="0">e Society Hub</tspan></text>
      <g>
        <path class="cls-4" d="M94.95,38.09c1.22,0,2.36-.47,3.22-1.33.86-.86,1.33-2,1.33-3.22,0-1.22-.47-2.36-1.33-3.22-.86-.86-2-1.33-3.22-1.33-1.22,0-2.36.47-3.22,1.33-.86.86-1.33,2-1.33,3.22s.47,2.36,1.33,3.22,2,1.33,3.22,1.33Z"/>
        <path class="cls-4" d="M94.95,17.67c1.22,0,2.36-.47,3.22-1.33.86-.86,1.33-2,1.33-3.22s-.47-2.36-1.33-3.22c-.86-.86-2-1.33-3.22-1.33s-2.36.47-3.22,1.33c-.86.86-1.33,2-1.33,3.22s.47,2.36,1.33,3.22c.86.86,2,1.33,3.22,1.33Z"/>
        <path class="cls-4" d="M94.95,91.87c1.22,0,2.36-.47,3.22-1.33.86-.86,1.33-2,1.33-3.22,0-1.22-.47-2.36-1.33-3.22-.86-.86-2-1.33-3.22-1.33s-2.36.47-3.22,1.33-1.33,2-1.33,3.22.47,2.36,1.33,3.22c.86.86,2,1.33,3.22,1.33Z"/>
        <path class="cls-4" d="M18.59,36.66c1.22,0,2.36-.47,3.22-1.33.86-.86,1.33-2,1.33-3.22s-.47-2.36-1.33-3.22c-.86-.86-2-1.33-3.22-1.33-1.22,0-2.36.47-3.22,1.33-.86.86-1.33,2-1.33,3.22s.47,2.36,1.33,3.22,2,1.33,3.22,1.33Z"/>
        <path class="cls-4" d="M88.53,12.14c.48-3.14,3.21-5.53,6.43-5.53,1.76,0,3.41.69,4.64,1.94,1.23,1.25,1.9,2.91,1.87,4.67-.06,3.4-2.87,6.27-6.27,6.39-3.29.11-6.18-2.27-6.67-5.53H0v17.03h12.16c.47-3.14,3.21-5.53,6.43-5.53,3.59,0,6.51,2.92,6.51,6.51s-2.92,6.51-6.51,6.51c-3.21,0-5.95-2.39-6.43-5.53H0v17.99h28.82c1.13,0,2.24-.46,3.04-1.26l15.69-15.7c1-1,2.33-1.55,3.75-1.55h37.22c.47-3.14,3.21-5.53,6.43-5.53,1.76,0,3.41.69,4.64,1.94,1.23,1.25,1.9,2.91,1.87,4.67-.06,3.4-2.87,6.27-6.27,6.39-3.34.1-6.18-2.28-6.67-5.53h-36.82c-1.15,0-2.23.45-3.04,1.26l-15.7,15.7c-1,1-2.33,1.55-3.75,1.55H0v19.95h28.82c1.13,0,2.24-.46,3.04-1.26l15.69-15.69c1-1,2.33-1.55,3.75-1.55h37.22c.47-3.14,3.21-5.53,6.43-5.53,1.76,0,3.41.69,4.64,1.94,1.23,1.25,1.9,2.91,1.87,4.67-.06,3.4-2.87,6.27-6.27,6.39-3.34.11-6.18-2.28-6.67-5.53h-36.82c-1.15,0-2.23.45-3.04,1.26l-15.32,15.32h32.38c.55-3.07,3.23-5.34,6.4-5.34,3.59,0,6.5,2.92,6.51,6.51,0,3.59-2.92,6.51-6.51,6.51-3.32,0-6.06-2.48-6.45-5.72H0v11.39h88.52c.47-3.14,3.21-5.53,6.43-5.53,3.59,0,6.51,2.92,6.51,6.51s-2.92,6.51-6.51,6.51c-3.21,0-5.95-2.39-6.43-5.53H0v17.42h88.52c.47-3.14,3.21-5.53,6.43-5.53,1.76,0,3.41.69,4.64,1.94,1.23,1.25,1.9,2.91,1.87,4.67-.06,3.4-2.87,6.27-6.27,6.39-.08,0-.16,0-.24,0-3.23,0-5.95-2.36-6.43-5.53H0v12.98h125.58V0H0v12.14h88.53Z"/>
        <path class="cls-5" d="M94.95,93.82c3.59,0,6.51-2.92,6.51-6.51s-2.92-6.51-6.51-6.51c-3.21,0-5.95,2.4-6.43,5.53H0v1.95h88.52c.47,3.14,3.21,5.53,6.43,5.53ZM91.73,84.09c.86-.86,2-1.33,3.22-1.33s2.36.47,3.22,1.33c.86.86,1.33,2,1.33,3.22,0,1.22-.47,2.36-1.33,3.22-.86.86-2,1.33-3.22,1.33-1.22,0-2.36-.47-3.22-1.33-.86-.86-1.33-2-1.33-3.22s.47-2.36,1.33-3.22Z"/>
        <polygon class="cls-3" points="31.88 73 31.88 73 31.89 72.99 31.88 73"/>
        <path class="cls-5" d="M95.16,60.94c2.88-.1,5.25-2.53,5.3-5.41.03-1.49-.54-2.89-1.58-3.96-1.04-1.06-2.44-1.65-3.93-1.65-2.85,0-5.26,2.23-5.48,5.07l-.03.44.03.44c.23,2.95,2.7,5.18,5.69,5.07Z"/>
        <path class="cls-3" d="M48.68,56.36c.62-.44,1.33-.73,2.08-.86-.76.1-1.47.39-2.08.86Z"/>
        <path class="cls-5" d="M31.89,72.99s0,0,0,0h1.46l15.32-15.32c.81-.81,1.89-1.26,3.04-1.26h36.82c.49,3.25,3.33,5.64,6.67,5.53,3.4-.12,6.21-2.99,6.27-6.39.03-1.76-.63-3.42-1.87-4.67-1.23-1.25-2.88-1.94-4.64-1.94-3.21,0-5.95,2.39-6.43,5.53h-37.22c-1.42,0-2.75.55-3.75,1.55l-15.69,15.69c-.8.8-1.91,1.26-3.04,1.26H0v.03h31.88s0,0,.01,0ZM89.47,55c.22-2.84,2.63-5.07,5.48-5.07,1.49,0,2.88.58,3.93,1.65,1.04,1.06,1.6,2.47,1.58,3.96-.05,2.88-2.43,5.3-5.3,5.41-2.99.12-5.46-2.12-5.69-5.07l-.03-.44.03-.44ZM50.76,55.5c-.75.13-1.46.43-2.08.86.61-.47,1.32-.77,2.08-.86Z"/>
        <path class="cls-5" d="M18.59,38.61c3.59,0,6.51-2.92,6.51-6.51s-2.92-6.51-6.51-6.51c-3.21,0-5.95,2.39-6.43,5.53H0v1.95h12.16c.47,3.14,3.21,5.53,6.43,5.53ZM15.37,28.88c.86-.86,2-1.33,3.22-1.33,1.22,0,2.36.47,3.22,1.33.86.86,1.33,2,1.33,3.22s-.47,2.36-1.33,3.22c-.86.86-2,1.33-3.22,1.33s-2.36-.47-3.22-1.33-1.33-2-1.33-3.22.47-2.36,1.33-3.22Z"/>
        <path class="cls-3" d="M29.7,51.99c.8-.09,1.55-.4,2.18-.9-.65.46-1.4.77-2.18.9Z"/>
        <path class="cls-3" d="M48.68,34.46c.62-.44,1.33-.73,2.08-.86-.76.1-1.47.39-2.08.86Z"/>
        <path class="cls-5" d="M32.97,51.47l15.7-15.7c.81-.81,1.89-1.26,3.04-1.26h36.82c.49,3.25,3.33,5.63,6.67,5.53,3.4-.12,6.21-2.99,6.27-6.39.03-1.76-.63-3.42-1.87-4.67-1.23-1.25-2.88-1.94-4.64-1.94-3.21,0-5.95,2.39-6.43,5.53h-37.22c-1.42,0-2.75.55-3.75,1.55l-15.69,15.7c-.8.8-1.91,1.26-3.04,1.26H0v1.95h29.22c1.42,0,2.75-.55,3.75-1.55ZM91.73,30.32c.86-.86,2-1.33,3.22-1.33,1.22,0,2.36.47,3.22,1.33.86.86,1.33,2,1.33,3.22,0,1.22-.47,2.36-1.33,3.22-.86.86-2,1.33-3.22,1.33s-2.36-.47-3.22-1.33-1.33-2-1.33-3.22.47-2.36,1.33-3.22ZM50.76,33.6c-.75.13-1.46.43-2.08.86.61-.47,1.32-.77,2.08-.86ZM31.89,51.09c-.63.5-1.38.81-2.18.9.78-.13,1.53-.44,2.18-.9Z"/>
        <path class="cls-5" d="M95.16,112.18c2.88-.1,5.25-2.53,5.3-5.41.03-1.49-.54-2.89-1.58-3.96-1.04-1.06-2.44-1.65-3.93-1.65-2.85,0-5.26,2.23-5.48,5.07l-.03.44.03.44c.23,2.95,2.7,5.19,5.69,5.07Z"/>
        <path class="cls-5" d="M94.95,113.19c.08,0,.16,0,.24,0,3.4-.12,6.21-2.99,6.27-6.39.03-1.76-.63-3.42-1.87-4.67-1.23-1.25-2.88-1.94-4.64-1.94-3.21,0-5.95,2.39-6.43,5.53H0v1.95h88.52c.47,3.17,3.19,5.53,6.43,5.53ZM89.47,106.24c.22-2.84,2.63-5.07,5.48-5.07,1.49,0,2.88.58,3.93,1.65,1.04,1.06,1.6,2.47,1.58,3.96-.05,2.88-2.43,5.3-5.3,5.41-2.99.12-5.46-2.12-5.69-5.07l-.03-.44.03-.44Z"/>
        <path class="cls-5" d="M95.19,19.62c3.4-.12,6.21-2.99,6.27-6.39.03-1.76-.63-3.42-1.87-4.67-1.23-1.25-2.88-1.94-4.64-1.94-3.21,0-5.95,2.39-6.43,5.53H0v1.95h88.52c.49,3.25,3.38,5.64,6.67,5.53ZM91.73,9.9c.86-.86,2-1.33,3.22-1.33s2.36.47,3.22,1.33c.86.86,1.33,2,1.33,3.22s-.47,2.36-1.33,3.22c-.86.86-2,1.33-3.22,1.33s-2.36-.47-3.22-1.33c-.86-.86-1.33-2-1.33-3.22s.47-2.36,1.33-3.22Z"/>
        <path class="cls-5" d="M72.12,79.67c3.04,0,5.5-2.47,5.51-5.51,0-3.04-2.47-5.51-5.51-5.51-2.81,0-5.16,2.1-5.47,4.89l-.04.41.02.47c.14,2.94,2.55,5.25,5.49,5.25Z"/>
        <path class="cls-5" d="M72.12,80.67c3.59,0,6.5-2.92,6.51-6.51,0-3.59-2.92-6.51-6.51-6.51-3.17,0-5.84,2.27-6.4,5.34H0v1.95h65.67c.39,3.24,3.14,5.72,6.45,5.72ZM66.65,73.55c.31-2.79,2.66-4.89,5.47-4.89,3.04,0,5.5,2.47,5.51,5.51,0,3.04-2.47,5.51-5.51,5.51-2.94,0-5.35-2.31-5.49-5.25l-.02-.47.04-.41Z"/>
      </g>
    </g>
  </g>
</svg>