<?xml version="1.0" encoding="UTF-8"?>
<svg id="Capa_1" data-name="Capa 1" xmlns="http://www.w3.org/2000/svg" viewBox="0 0 235.76 228.22">
  <defs>
    <style>
      .cls-1 {
        fill: #fff;
      }

      .cls-2 {
        fill: #007a38;
      }
    </style>
  </defs>
  <path class="cls-2" d="M219.32,214.74c3.27-67.37,3.3-134.8.14-202.17-67.42-3.17-134.89-3.17-202.31,0-3.16,67.37-3.13,134.8.14,202.17,67.32,3.26,134.71,3.26,202.03,0ZM188.93,172.99c-.13,6.54-1.56,12.25-4.29,17.18-2.73,4.93-6.57,8.78-11.55,11.58-4.98,2.8-10.94,4.26-17.91,4.36-6.97.11-12.96-1.17-17.94-3.83-4.99-2.67-8.82-6.44-11.5-11.36-2.68-4.91-4.02-10.66-4.02-17.27,0-6.61,1.36-12.46,4.08-17.53,2.72-5.06,6.63-9.03,11.73-11.88,5.09-2.85,11.21-4.29,18.31-4.32,7.1-.03,13.13,1.35,18.11,4.13,4.97,2.78,8.74,6.67,11.31,11.65,2.57,4.98,3.79,10.74,3.67,17.28ZM50.57,24.09c20.07-.57,40.14-.8,60.22-.9-.02,7.32-.03,11.02-.05,18.49-12.48.03-24.97.13-37.45.3-.08,5.84-.12,8.78-.18,14.7,11.28-.11,22.56-.18,33.84-.23-.02,7.56-.03,11.37-.04,19.01-11.32.03-22.65.08-33.97.15-.07,11.39-.11,22.79-.13,34.18-9.45,0-14.14,0-23.43.01.07-28.58.45-57.14,1.19-85.71ZM110.47,194.54c-2.81,3.83-6.83,6.72-12.03,8.66-5.2,1.94-11.43,2.86-18.67,2.74-7.44-.12-13.9-1.32-19.42-3.58-5.52-2.26-9.82-5.66-12.94-10.2-3.11-4.55-4.77-10.34-4.95-17.44,8.67.19,13.06.27,21.91.4.18,2.61.87,4.81,2.07,6.6,1.2,1.79,2.87,3.15,5.03,4.09s4.71,1.43,7.69,1.47c2.5.03,4.59-.25,6.27-.84,1.68-.59,2.96-1.42,3.82-2.49.86-1.07,1.33-2.33,1.32-3.69-.01-1.28-.48-2.46-1.32-3.46-.84-1-2.22-1.9-4.12-2.71-1.9-.81-4.46-1.58-7.68-2.32-3.46-.77-5.18-1.16-8.62-1.94-7.65-1.74-13.64-4.59-18.04-8.53-4.39-3.94-6.58-9.3-6.65-16.02-.06-5.47,1.32-10.3,4.23-14.43,2.91-4.13,6.98-7.37,12.24-9.69,5.26-2.32,11.34-3.49,18.24-3.48,7.05,0,13.18,1.2,18.36,3.58,5.18,2.38,9.19,5.73,12.02,10.04,2.83,4.31,4.25,9.34,4.29,15.06-9.14,0-13.71-.02-22.8-.05-.24-2.85-1.31-5.07-3.21-6.67-1.9-1.6-4.77-2.41-8.6-2.43-2.44-.01-4.43.27-5.97.85-1.54.58-2.67,1.36-3.4,2.35-.73.99-1.08,2.14-1.12,3.4-.03,1.03.15,1.99.59,2.83.44.84,1.15,1.6,2.11,2.27.96.67,2.2,1.28,3.7,1.83,1.5.55,3.29,1.04,5.36,1.48,2.86.63,4.29.95,7.16,1.57,4.84,1.05,8.99,2.41,12.44,4.09,3.45,1.68,6.28,3.65,8.49,5.89,2.2,2.25,3.82,4.76,4.87,7.54,1.04,2.78,1.6,5.82,1.61,9.06.02,5.59-1.45,10.34-4.27,14.18ZM115.68,44.34c9.41,0,14.12,0,23.51.06.08,12.18.13,24.36.16,36.54.04,3.25.88,5.81,2.53,7.67,1.65,1.86,3.95,2.79,6.92,2.8,1.97,0,3.67-.41,5.1-1.25,1.43-.84,2.54-2.03,3.31-3.58.77-1.55,1.14-3.4,1.1-5.56-.06-12.15-.17-24.3-.31-36.45,9.31.11,13.95.18,23.12.35.37,21.63.57,43.25.62,64.88-8.79,0-13.23,0-22.16-.01,0-5.01,0-7.51-.02-12.52-.27,0-.41,0-.68,0-1.41,4.19-3.89,7.47-7.45,9.83-3.56,2.36-7.8,3.54-12.72,3.54-4.61,0-8.64-1.06-12.1-3.19-3.46-2.12-6.14-5.05-8.05-8.78-1.91-3.72-2.87-7.99-2.9-12.79,0-13.85.01-27.7.02-41.54Z"/>
  <path class="cls-2" d="M161.04,158.91c-1.43-1.31-3.13-1.96-5.12-1.95-2.1.02-3.9.69-5.41,2.03-1.51,1.34-2.67,3.23-3.48,5.67-.81,2.44-1.23,5.36-1.25,8.74-.02,3.36.35,6.23,1.12,8.64.77,2.41,1.89,4.25,3.37,5.53,1.48,1.28,3.26,1.91,5.33,1.88,1.96-.02,3.67-.69,5.12-2.01,1.45-1.31,2.58-3.18,3.4-5.6.82-2.42,1.25-5.3,1.29-8.64.04-3.37-.32-6.27-1.08-8.69-.76-2.42-1.86-4.29-3.29-5.6Z"/>
  <path class="cls-1" d="M72.94,75.61c11.32-.07,22.65-.12,33.97-.15.01-7.65.02-11.45.04-19.01-11.28.05-22.56.12-33.84.23.06-5.91.1-8.86.18-14.7,12.48-.17,24.96-.27,37.45-.3.02-7.47.03-11.17.05-18.49-20.08.1-40.15.34-60.22.9-.74,28.57-1.11,57.13-1.19,85.71,9.28,0,13.98,0,23.43-.01.02-11.39.06-22.79.13-34.18Z"/>
  <path class="cls-1" d="M126.6,107.45c3.46,2.12,7.49,3.19,12.1,3.19,4.92,0,9.16-1.18,12.72-3.54,3.56-2.36,6.04-5.64,7.45-9.83.27,0,.41,0,.68,0,.01,5,.02,7.51.02,12.52,8.92,0,13.37,0,22.16.01-.05-21.63-.25-43.25-.62-64.88-9.17-.17-13.8-.24-23.12-.35.14,12.15.25,24.3.31,36.45.04,2.16-.33,4.02-1.1,5.56-.77,1.55-1.88,2.74-3.31,3.58-1.43.84-3.13,1.25-5.1,1.25-2.97,0-5.27-.94-6.92-2.8-1.65-1.86-2.49-4.42-2.53-7.67-.03-12.18-.09-24.36-.16-36.54-9.38-.06-14.1-.07-23.51-.06-.01,13.85-.02,27.7-.02,41.54.03,4.8.99,9.07,2.9,12.79,1.91,3.73,4.59,6.65,8.05,8.78Z"/>
  <path class="cls-1" d="M108.26,163.76c-2.2-2.25-5.03-4.21-8.49-5.89-3.45-1.68-7.61-3.04-12.44-4.09-2.87-.63-4.3-.94-7.16-1.57-2.07-.44-3.86-.93-5.36-1.48-1.5-.55-2.73-1.16-3.7-1.83-.96-.67-1.67-1.43-2.11-2.27-.44-.84-.62-1.8-.59-2.83.04-1.25.39-2.41,1.12-3.4.73-.99,1.86-1.77,3.4-2.35,1.54-.58,3.53-.86,5.97-.85,3.83.02,6.7.82,8.6,2.43,1.9,1.6,2.97,3.83,3.21,6.67,9.09.04,13.66.05,22.8.05-.03-5.73-1.46-10.75-4.29-15.06-2.83-4.31-6.84-7.66-12.02-10.04-5.18-2.38-11.31-3.57-18.36-3.58-6.9,0-12.98,1.16-18.24,3.48-5.26,2.32-9.33,5.56-12.24,9.69-2.91,4.13-4.29,8.97-4.23,14.43.07,6.73,2.26,12.08,6.65,16.02,4.39,3.94,10.39,6.78,18.04,8.53,3.44.78,5.17,1.17,8.62,1.94,3.22.73,5.78,1.5,7.68,2.32,1.9.81,3.27,1.72,4.12,2.71.84,1,1.31,2.18,1.32,3.46.01,1.36-.46,2.62-1.32,3.69-.86,1.07-2.14,1.9-3.82,2.49-1.68.59-3.77.87-6.27.84-2.98-.04-5.54-.53-7.69-1.47s-3.83-2.31-5.03-4.09c-1.2-1.79-1.89-3.98-2.07-6.6-8.84-.13-13.24-.21-21.91-.4.18,7.1,1.84,12.89,4.95,17.44,3.11,4.55,7.41,7.95,12.94,10.2,5.52,2.26,11.98,3.46,19.42,3.58,7.25.12,13.48-.8,18.67-2.74,5.2-1.94,9.21-4.82,12.03-8.66,2.82-3.83,4.28-8.59,4.27-14.18,0-3.24-.57-6.28-1.61-9.06-1.04-2.78-2.66-5.3-4.87-7.54Z"/>
  <path class="cls-1" d="M173.95,144.07c-4.97-2.78-11.01-4.16-18.11-4.13-7.1.03-13.22,1.47-18.31,4.32-5.09,2.85-9,6.81-11.73,11.88-2.72,5.06-4.08,10.92-4.08,17.53,0,6.61,1.34,12.36,4.02,17.27,2.68,4.91,6.51,8.69,11.5,11.36,4.99,2.67,10.97,3.94,17.94,3.83,6.97-.11,12.93-1.57,17.91-4.36,4.98-2.8,8.82-6.65,11.55-11.58,2.73-4.93,4.16-10.64,4.29-17.18.13-6.54-1.09-12.3-3.67-17.28-2.57-4.98-6.34-8.87-11.31-11.65ZM164.11,181.84c-.82,2.42-1.95,4.28-3.4,5.6-1.45,1.31-3.15,1.98-5.12,2.01-2.08.03-3.85-.6-5.33-1.88-1.48-1.28-2.6-3.12-3.37-5.53-.77-2.41-1.14-5.29-1.12-8.64.02-3.38.44-6.3,1.25-8.74.81-2.44,1.97-4.33,3.48-5.67,1.51-1.34,3.32-2.01,5.41-2.03,1.98-.01,3.69.64,5.12,1.95,1.43,1.31,2.52,3.18,3.29,5.6.76,2.42,1.12,5.32,1.08,8.69-.04,3.34-.47,6.22-1.29,8.64Z"/>
</svg>