<?xml version="1.0" encoding="UTF-8"?>
<svg id="Capa_1" data-name="Capa 1" xmlns="http://www.w3.org/2000/svg" viewBox="0 0 595.28 595.28">
  <defs>
    <style>
      .cls-1 {
        stroke: #007a38;
        stroke-miterlimit: 10;
        stroke-width: 2px;
      }

      .cls-1, .cls-2 {
        fill: #fff;
      }

      .cls-3 {
        fill: none;
      }

      .cls-4 {
        fill: #007a38;
      }
    </style>
  </defs>
  <circle class="cls-1" cx="302.06" cy="302.1" r="253.41"/>
  <g>
    <path class="cls-3" d="M65.06,340.93c.78.14,1.51-.39,2.03-1.38.53-.99.85-2.43.84-4.08-.01-1.65-.37-3.19-.91-4.34-.55-1.15-1.28-1.9-2.06-2-.78-.1-1.45.47-1.92,1.46-.47.99-.75,2.39-.74,4,.01,1.61.31,3.11.81,4.26.49,1.15,1.18,1.94,1.96,2.08Z"/>
    <path class="cls-3" d="M428.71,349.52c-1.76.07-3.39.93-4.59,2.28-1.2,1.35-2.05,3.16-2.11,5.14-.06,1.98.66,3.74,1.79,4.98s2.7,1.95,4.47,1.87c1.77-.09,3.38-.96,4.57-2.3,1.19-1.34,1.95-3.14,2.01-5.1.06-1.96-.59-3.71-1.7-4.95-1.11-1.24-2.67-1.98-4.43-1.91Z"/>
    <path class="cls-3" d="M175.92,330.6c1.76.04,3.31-.73,4.52-2.03,1.21-1.3,1.95-3.11,1.93-5.13-.02-2.02-.81-3.85-2.05-5.18-1.25-1.33-2.81-2.17-4.57-2.19s-3.34.77-4.47,2.07c-1.13,1.3-1.81,3.09-1.79,5.09.02,2,.75,3.81,1.91,5.15,1.16,1.33,2.76,2.18,4.52,2.22Z"/>
    <path class="cls-3" d="M178.54,449.98c2.65-.51,4.14-2.8,3.85-5.53-.07-.66-.25-1.35-.54-2.04-1.2-2.85-4-4.91-6.77-5.22-.67-.08-1.35-.05-2,.09-2.67.57-4.09,2.89-3.76,5.58.08.65.27,1.33.57,2.01,1.22,2.79,3.95,4.81,6.68,5.17.66.09,1.33.07,1.97-.05Z"/>
    <path class="cls-3" d="M138.51,380.98c1.58.15,2.99-.47,4-1.61,1-1.13,1.59-2.77,1.52-4.66-.07-1.88-.79-3.64-1.88-4.96-1.09-1.32-2.56-2.19-4.13-2.32-1.58-.12-2.96.52-3.94,1.66-.98,1.14-1.54,2.77-1.48,4.63.07,1.86.75,3.59,1.82,4.91,1.06,1.31,2.51,2.2,4.09,2.35Z"/>
    <path class="cls-3" d="M105.64,397.61c.83-.99,1.31-2.48,1.24-4.24-.07-1.75-.68-3.43-1.59-4.72-.92-1.29-2.13-2.19-3.43-2.39-1.3-.21-2.42.31-3.22,1.31-.79,1-1.24,2.47-1.18,4.2.06,1.73.63,3.38,1.51,4.66.88,1.28,2.06,2.2,3.37,2.43,1.3.23,2.47-.26,3.3-1.25Z"/>
    <path class="cls-3" d="M64.84,386.27c-.53-1.24-1.24-2.14-1.98-2.44-.27-.11-.53-.13-.76-.07,1.07,3.15,2.21,6.26,3.4,9.35.18-.7.29-1.52.27-2.46-.04-1.59-.39-3.15-.93-4.38Z"/>
    <path class="cls-3" d="M376.12,177.08c.1,1.77.98,3.39,2.31,4.66,1.33,1.27,3.11,2.11,5.04,2.2,1.93.09,3.63-.57,4.81-1.72s1.85-2.69,1.73-4.47c-.12-1.78-1-3.42-2.32-4.63s-3.09-2.01-5.01-2.1c-1.91-.09-3.6.54-4.79,1.64s-1.88,2.65-1.78,4.43Z"/>
    <path class="cls-3" d="M554.84,296.13c-.13.92-.22,2.2-.22,3.64s.09,2.73.22,3.66c.13.93.29,1.49.44,1.47.06,0,.12-.13.16-.34,0-.82.03-1.65.03-2.47,0-2.43-.04-4.85-.11-7.27-.03-.06-.05-.11-.08-.11-.15-.04-.31.5-.44,1.41Z"/>
    <path class="cls-3" d="M539.46,262.32c-.77-.15-1.49.38-2.01,1.36-.52.99-.85,2.42-.83,4.07.02,1.65.37,3.19.91,4.34.54,1.15,1.27,1.9,2.04,2.01.77.1,1.43-.46,1.9-1.44.47-.98.74-2.38.73-3.99-.01-1.61-.31-3.11-.8-4.26-.49-1.15-1.16-1.94-1.94-2.09Z"/>
    <path class="cls-3" d="M429.09,272.36c-1.76-.04-3.35.73-4.49,2.02-1.14,1.29-1.91,3.1-1.89,5.12.03,2.02.84,3.85,2.02,5.18s2.78,2.17,4.54,2.19c1.76.02,3.33-.77,4.46-2.06,1.13-1.29,1.81-3.08,1.78-5.08-.02-2-.75-3.81-1.91-5.14s-2.75-2.18-4.51-2.23Z"/>
    <path class="cls-3" d="M431.13,113.33c2.37-.24,3.51-1.97,3.03-4.1-.12-.52-.33-1.06-.64-1.61-1.29-2.27-3.9-4.02-6.39-4.49-.6-.11-1.2-.15-1.77-.1-2.35.2-3.54,1.84-3.09,3.97.11.52.31,1.07.62,1.63,1.27,2.31,3.93,4.15,6.45,4.62.61.11,1.22.15,1.79.09Z"/>
    <path class="cls-3" d="M466.38,222.13c-1.58-.15-2.98.47-3.99,1.6-1,1.13-1.58,2.77-1.51,4.65.07,1.88.79,3.63,1.87,4.95,1.09,1.32,2.55,2.19,4.12,2.32,1.57.13,2.95-.52,3.92-1.65.97-1.14,1.54-2.76,1.47-4.62-.07-1.86-.75-3.59-1.81-4.9-1.06-1.31-2.5-2.2-4.08-2.35Z"/>
    <path class="cls-3" d="M494.77,434.06c.52-.12,1.06-.33,1.61-.64,2.27-1.29,4.02-3.9,4.49-6.39.11-.6.15-1.2.1-1.77-.2-2.35-1.84-3.54-3.98-3.09-.52.11-1.07.31-1.63.62-2.32,1.27-4.16,3.93-4.62,6.45-.11.61-.15,1.22-.09,1.8.25,2.37,1.98,3.52,4.11,3.03Z"/>
    <path class="cls-3" d="M173.63,490.16c-2.38.25-3.53,1.99-3.05,4.13.12.52.33,1.06.64,1.62,1.29,2.28,3.9,4.04,6.4,4.51.61.11,1.21.15,1.78.1,2.36-.21,3.55-1.86,3.11-4-.11-.52-.31-1.07-.62-1.64-1.27-2.32-3.93-4.17-6.46-4.64-.61-.11-1.22-.14-1.8-.08Z"/>
    <path class="cls-3" d="M107.69,170.93c-.51.12-1.05.33-1.6.65-2.25,1.29-3.99,3.9-4.46,6.39-.11.6-.15,1.2-.11,1.77.2,2.35,1.81,3.53,3.93,3.08.51-.11,1.06-.31,1.61-.62,2.29-1.27,4.12-3.92,4.59-6.45.11-.61.15-1.22.09-1.79-.24-2.37-1.95-3.51-4.06-3.02Z"/>
    <path class="cls-3" d="M257.61,511.11c-.12-1.2-.95-2.32-2.21-3.15-1.25-.83-2.92-1.37-4.71-1.41-1.79-.04-3.34.44-4.41,1.22-1.07.79-1.64,1.88-1.48,3.09.16,1.21,1.01,2.29,2.26,3.08,1.25.79,2.89,1.29,4.64,1.32,1.75.03,3.28-.41,4.35-1.15,1.07-.75,1.67-1.8,1.55-3Z"/>
    <path class="cls-3" d="M499.13,205.61c-.82.99-1.3,2.47-1.23,4.22.07,1.75.68,3.42,1.59,4.71.91,1.29,2.12,2.19,3.42,2.4,1.29.21,2.41-.3,3.2-1.29.79-.99,1.23-2.46,1.17-4.19-.06-1.72-.63-3.37-1.5-4.66-.87-1.28-2.05-2.2-3.35-2.44-1.3-.24-2.46.25-3.29,1.24Z"/>
    <path class="cls-3" d="M426.34,153.29c-2.63.5-4.12,2.78-3.82,5.49.07.66.25,1.34.54,2.04,1.2,2.84,3.99,4.89,6.76,5.21.67.08,1.34.05,1.99-.08,2.66-.56,4.07-2.87,3.73-5.54-.08-.65-.27-1.32-.57-2-1.23-2.78-3.95-4.8-6.67-5.17-.66-.09-1.32-.08-1.96.05Z"/>
    <path class="cls-3" d="M225.72,427.51c-.11-1.77-.98-3.42-2.31-4.65s-3.11-2.09-5.03-2.19c-1.92-.09-3.62.59-4.79,1.7-1.18,1.11-1.84,2.69-1.72,4.46.12,1.78,1,3.41,2.32,4.63,1.32,1.22,3.09,2.01,4.99,2.1,1.91.09,3.59-.54,4.77-1.63s1.87-2.65,1.76-4.42Z"/>
    <path class="cls-3" d="M254.33,428.54c-.07-1.76-.93-3.39-2.28-4.6-1.35-1.21-3.16-2.06-5.14-2.12-1.98-.06-3.74.67-4.98,1.8s-1.95,2.7-1.86,4.47c.09,1.77.96,3.38,2.3,4.57,1.34,1.19,3.14,1.95,5.1,2.01,1.96.06,3.7-.59,4.95-1.7,1.24-1.11,1.98-2.67,1.91-4.43Z"/>
    <path class="cls-3" d="M347.44,176.09c.07,1.77.93,3.34,2.27,4.6,1.34,1.26,3.16,2.07,5.14,2.13,1.98.06,3.75-.64,5-1.82,1.25-1.18,1.96-2.72,1.88-4.49s-.96-3.38-2.3-4.57c-1.34-1.19-3.14-1.95-5.11-2-1.97-.06-3.71.6-4.96,1.71-1.25,1.11-1.99,2.67-1.93,4.44Z"/>
    <path class="cls-3" d="M177.4,224.79c1.78-.11,3.4-.99,4.68-2.31,1.27-1.32,2.11-3.1,2.21-5.03.1-1.92-.57-3.61-1.71-4.79s-2.7-1.84-4.48-1.72c-1.78.12-3.42,1-4.64,2.32-1.22,1.32-2.02,3.09-2.11,4.99-.09,1.91.53,3.59,1.63,4.77,1.09,1.18,2.65,1.87,4.43,1.76Z"/>
    <path class="cls-3" d="M176.36,253.39c1.77-.07,3.36-.94,4.62-2.28,1.26-1.34,2.08-3.16,2.14-5.14.06-1.98-.64-3.74-1.81-4.98s-2.72-1.95-4.5-1.86c-1.77.09-3.39.96-4.58,2.3-1.19,1.34-1.95,3.14-2.02,5.1-.06,1.96.59,3.7,1.7,4.95,1.11,1.24,2.67,1.98,4.44,1.91Z"/>
    <path class="cls-3" d="M539.66,217.08c.53,1.24,1.23,2.14,1.96,2.45.03.01.06.02.09.03-.93-2.7-1.91-5.38-2.93-8.04-.03.38-.05.77-.04,1.19.04,1.58.39,3.14.92,4.38Z"/>
    <path class="cls-3" d="M427.69,378.14c-1.77.11-3.42.98-4.65,2.31-1.23,1.34-2.09,3.11-2.18,5.03-.09,1.92.58,3.62,1.69,4.79,1.11,1.18,2.69,1.84,4.46,1.72,1.78-.12,3.41-1,4.63-2.32,1.22-1.32,2.01-3.09,2.1-5,.09-1.91-.54-3.59-1.63-4.77-1.09-1.19-2.65-1.87-4.42-1.76Z"/>
    <path class="cls-3" d="M93.55,256.75c1.21-.13,2.33-.96,3.17-2.21.84-1.26,1.38-2.92,1.41-4.71.04-1.79-.44-3.34-1.23-4.41-.79-1.07-1.89-1.64-3.1-1.48-1.21.16-2.3,1.01-3.09,2.27-.79,1.25-1.29,2.89-1.33,4.65-.03,1.75.41,3.28,1.15,4.35.75,1.07,1.8,1.67,3.01,1.55Z"/>
    <path class="cls-3" d="M215.27,64.84c1.08-.47,1.88-1.06,2.28-1.7-2.37.84-4.73,1.71-7.08,2.62.14,0,.27.01.41.01,1.58-.04,3.14-.4,4.38-.93Z"/>
    <path class="cls-3" d="M203.67,105.64c.99.83,2.47,1.31,4.22,1.23,1.75-.07,3.42-.68,4.71-1.6,1.29-.92,2.19-2.14,2.4-3.43.21-1.3-.29-2.42-1.28-3.21-.99-.79-2.46-1.24-4.18-1.17-1.72.07-3.37.63-4.65,1.51-1.28.88-2.2,2.07-2.44,3.37-.24,1.31.24,2.47,1.23,3.3Z"/>
    <path class="cls-3" d="M156.9,182.52c.66-.07,1.34-.25,2.03-.54,2.83-1.2,4.88-3.99,5.21-6.76.08-.67.06-1.34-.08-1.99-.56-2.65-2.85-4.07-5.51-3.72-.65.08-1.32.27-1.99.57-2.77,1.23-4.79,3.95-5.16,6.66-.09.66-.08,1.32.04,1.96.5,2.63,2.75,4.11,5.46,3.81Z"/>
    <path class="cls-3" d="M303.69,554.49c.13-5.39.21-10.79.26-16.19.04-5.1.08-10.21.11-15.31.03-6.88.04-13.76.07-20.63,0-1.18-.65-2.32-1.84-3.17-8.27-5.94-12.54-9.08-21.23-15.69-1.25-.95-1.98-2.23-2.02-3.58-.49-14.48-.85-28.96-1.18-43.44-4.42-.36-7.98-3.62-8.08-7.6-.11-4.23,3.76-7.79,8.62-7.65,4.53.13,8.4,3.65,8.61,7.6.22,4.11-3.28,7.41-7.79,7.67.31,14.34.65,28.68,1.1,43.01.04,1.35.77,2.64,2.02,3.59,8.68,6.62,12.94,9.77,21.21,15.72.24.17.44.36.63.55.05-11.88.09-23.76.12-35.63-4.18-.37-7.45-3.27-7.47-6.87-.02-3.86,3.76-7.06,8.45-7.07,4.69,0,8.45,3.18,8.4,7.04-.05,3.75-3.62,6.74-8.05,6.92-.12,25.14-.21,50.28-.56,75.42h-.03c-.13,9.26-.2,12.52-.36,15.31,3.19.04,5.62.48,5.52.82,0,.03-.05.05-.09.07.49-.02.98-.04,1.47-.06,0,0-.01-.01,0-.02.11-.33,2.71-.78,5.91-.82,8.12-37.51,5.16-79.98,5.97-117.97-4.41-.25-7.86-3.42-7.81-7.39.05-4.18,3.97-7.81,8.76-7.87,4.79-.06,8.59,3.48,8.49,7.66-.1,3.98-3.66,7.23-8.08,7.59-.85,37.84,2.25,80.68-6.34,117.98,1.43.02,2.68.12,3.61.25,3.24-.25,6.46-.58,9.67-.95,1.07-1.92,1.79-4.91,2.92-11.15-3.53-.1-6.14-1.36-5.92-3.11.24-1.83,3.61-3.49,7.54-3.53,3.93-.04,6.82,1.57,6.46,3.41-.34,1.75-3.42,3.07-6.99,3.22-1.14,6.13-1.88,9.1-2.95,11.04,9.35-1.13,18.54-2.76,27.55-4.88.83-1.9,1.67-4.34,2.7-7.72.21-.67-.18-1.34-1.08-1.82-6.27-3.4-9.58-5.3-16.51-9.48-.99-.6-1.49-1.44-1.37-2.34,4.06-30.29,5.43-60.92,6.85-91.43-4.35-.18-7.68-3.31-7.55-7.29.14-4.23,4.17-7.95,8.96-8.01,4.46-.05,8.09,3.29,8.06,7.25-.03,4.12-3.66,7.58-8.13,8.01-1.45,30.42-2.87,60.97-6.99,91.17-.13.91.37,1.75,1.36,2.35,6.93,4.2,10.23,6.11,16.48,9.53.18.1.32.2.45.31,6.09-21.4,7.98-44.1,10.23-66.12-4.09-.12-7.11-2.84-6.83-6.4.3-3.73,4.18-6.97,8.65-7.14,4.47-.17,7.78,2.8,7.42,6.55-.34,3.57-3.84,6.53-7.98,6.94-2.16,20.55-1.48,55.01-13.36,75.3,7.31-1.76,14.5-3.83,21.54-6.21,0-.18.02-.38.09-.58.65-1.75,4.32-3.41,8.13-3.5.9-.02,1.73.05,2.45.19,14.37-5.59,28.1-12.46,41.06-20.46-5.68,1.11-11.37,2.19-17.07,3.25-.98,2.42-4.34,4.67-7.76,5.26-3.6.62-5.94-.78-5.23-3.3.71-2.52,4.25-5.22,7.91-5.88,3.48-.63,5.75.84,5.3,3.18,6.17-1.15,12.32-2.33,18.48-3.54,12.69-7.97,24.64-17.02,35.68-27.04-23.59,5.99-47.71,10.72-71.67,12.88-.83,2.88-4.42,5.17-8.31,5.31-4.09.15-7.02-2.11-6.52-5.18.5-3.07,4.29-5.8,8.45-5.97,3.96-.16,6.77,2.07,6.55,4.95,24.33-2.18,48.82-7.02,72.75-13.14,9.49-8.73,18.31-18.17,26.38-28.24-23.64,6.68-47.75,11.3-71.94,15.51-.84,3.34-4.25,6.37-7.93,6.99-3.91.65-6.66-1.71-6.07-5.34.55-3.39,4.08-6.81,7.82-7.5,3.89-.72,6.63,1.51,6.35,4.85,24.45-4.23,48.81-8.87,72.7-15.65,10.79-13.63,20.21-28.4,28.05-44.1-1.85-3.28-3.39-6.02-7.17-11.05-.66-.87-1.59-1.22-2.6-.97-13.13,3.3-26.43,5.49-39.79,7.56-1.08.16-2.16.71-3.09,1.57-6.26,5.83-9.99,8.49-16.97,14.1-1.04.83-2.22,1.37-3.39,1.52-1.76.23-2.64.35-4.42.57-.04.2-.07.4-.12.59-.73,2.72-2.84,5.29-5.64,6.53-.77.34-1.53.55-2.26.64-3.03.39-5.65-1.21-6.3-4.23-.16-.73-.19-1.49-.1-2.26.36-3.15,2.69-6.32,5.92-7.68.78-.33,1.56-.53,2.31-.61,3.09-.33,5.66,1.36,6.23,4.35.11.59.12,1.19.07,1.79,1.67-.21,2.51-.32,4.16-.53,1.17-.15,2.36-.69,3.4-1.52,6.99-5.61,10.66-8.31,16.92-14.14.93-.87,2.01-1.42,3.1-1.57,13.52-2.08,26.98-4.28,40.26-7.6,1.01-.26,1.94.1,2.59.97,3.8,5.08,5.39,7.87,7.28,11.2,6.13-12.38,11.28-25.32,15.35-38.74-.47.2-.96.4-1.48.61-.22,3.44-1.53,6.6-3.23,7.25-1.82.69-3.38-1.85-3.3-5.69.08-3.83,1.75-7.42,3.56-8,1.75-.57,2.99,1.82,3,5.36.65-.26,1.24-.5,1.81-.74,2.79-9.37,5.05-18.96,6.75-28.75-2.15,1.05-5.3,1.96-10.44,3.2-.67.16-1.34.9-1.85,2.06-3.57,8.08-5.59,12.26-10.07,20.74-.64,1.22-1.51,2.02-2.42,2.23-30.21,6.67-61.3,8.98-92.07,11.29-.51,4.24-3.91,7.76-7.93,8.04-4.27.29-7.64-3.24-7.34-7.88.28-4.32,3.88-8.18,7.87-8.56,4.14-.4,7.35,2.8,7.46,7.1,30.67-2.27,61.64-4.55,91.76-11.07.91-.2,1.78-1,2.43-2.22,4.5-8.48,6.53-12.65,10.11-20.72.22-.51.48-.92.76-1.25-7.59,1.72-12.48,2.52-23.88,3.97-.27,3.9-2.45,7.24-5.17,7.6-2.86.38-5.22-2.75-5.13-7,.09-4.25,2.58-7.93,5.42-8.21,2.71-.27,4.77,2.57,4.9,6.42,10.87-1.59,25.63-1.97,35.94-7.83,1.06-6.41,1.87-12.89,2.44-19.45-.02-.43-.04-.89-.04-1.38-16.59,4.93-35.04,4.55-52.13,5.58-1.18.06-2.33.78-3.2,2.01-6.04,8.56-9.24,12.94-15.98,21.81-.97,1.27-2.27,2.05-3.62,2.15-14.51,1.09-29.03,1.89-43.56,2.63-.43,4.35-3.76,7.92-7.75,8.12-4.24.21-7.71-3.51-7.48-8.28.21-4.45,3.77-8.34,7.73-8.65,4.12-.32,7.37,3.05,7.55,7.47,14.39-.72,28.77-1.49,43.14-2.54,1.36-.1,2.66-.87,3.62-2.14,6.75-8.86,9.96-13.25,16.01-21.8.87-1.23,2.02-1.94,3.2-2,17.23-.98,35.72-.59,52.48-5.34.04-2.58.33-4.79.62-5.64.19-3.51.3-7.04.35-10.59-.04.13-.08.23-.13.26-.33.16-.79-2.34-.83-5.61-5.73-.15-11.47-.24-17.2-.3-4.78-.04-9.57-.08-14.35-.11-6.82-.03-13.63-.05-20.45-.09-1.18,0-2.32.65-3.17,1.84-5.93,8.27-9.07,12.53-15.67,21.21-.95,1.25-2.23,1.97-3.58,2.02-14.47.48-28.94.84-43.41,1.17-.36,4.42-3.61,7.97-7.59,8.08-4.22.11-7.77-3.76-7.64-8.62.13-4.53,3.63-8.4,7.58-8.61,4.1-.22,7.41,3.28,7.66,7.79,14.33-.31,28.66-.64,42.98-1.09,1.35-.04,2.64-.77,3.59-2.01,6.61-8.68,9.76-12.94,15.7-21.2.17-.24.36-.44.55-.63-11.87-.05-23.74-.1-35.6-.13-.37,4.18-3.27,7.44-6.86,7.46-3.86.02-7.06-3.76-7.07-8.45,0-4.69,3.18-8.44,7.04-8.39,3.75.05,6.74,3.62,6.92,8.05,25.11.13,50.22.23,75.32.6v.03c9.24.14,12.49.22,15.25.39.04-3.19.48-5.61.81-5.51.02,0,.03.04.05.06-.02-.48-.04-.95-.05-1.43-.33-.15-.76-2.73-.81-5.91-37.08-8.88-80.1-5.24-117.8-6.06-.25,4.41-3.41,7.85-7.39,7.81-4.18-.05-7.8-3.97-7.86-8.76-.06-4.79,3.46-8.59,7.64-8.48,3.98.1,7.23,3.66,7.59,8.08,37.52.86,80.98-2.94,117.81,6.43.02-1.34.1-2.52.22-3.42-.26-3.31-.59-6.61-.98-9.89-1.91-1.06-4.89-1.79-11.05-2.91-.1,3.53-1.36,6.14-3.1,5.91-1.83-.24-3.48-3.61-3.52-7.54-.04-3.92,1.57-6.81,3.4-6.46,1.75.34,3.06,3.42,3.21,6.99,6.05,1.14,9.01,1.87,10.94,2.94-1.14-9.36-2.79-18.55-4.92-27.57-1.88-.82-4.28-1.64-7.57-2.66-.67-.21-1.33.17-1.82,1.07-3.39,6.26-5.28,9.56-9.46,16.49-.6.99-1.43,1.49-2.33,1.36-30.26-4.09-60.87-5.47-91.35-6.9-.18,4.34-3.3,7.68-7.28,7.54-4.23-.15-7.94-4.17-8-8.96-.06-4.46,3.27-8.08,7.23-8.05,4.11.03,7.58,3.66,8.01,8.13,30.39,1.46,60.92,2.88,91.09,7.04.9.13,1.74-.36,2.34-1.36,4.19-6.92,6.1-10.22,9.51-16.46.1-.18.2-.32.31-.45-21.47-5.97-43.95-8.01-66.04-10.28-.12,4.08-2.84,7.1-6.39,6.82-3.73-.3-6.97-4.18-7.14-8.64-.17-4.47,2.8-7.77,6.54-7.41,3.56.34,6.53,3.85,6.94,7.97,20.42,2.16,54.85,1.5,75.06,13.35-1.77-7.28-3.83-14.45-6.21-21.48-.14,0-.28-.03-.43-.09-1.75-.66-3.41-4.32-3.5-8.13-.02-.78.04-1.5.14-2.15-5.56-14.3-12.38-27.97-20.32-40.88,1.08,5.53,2.13,11.06,3.16,16.6,2.42.98,4.66,4.34,5.26,7.76.62,3.59-.78,5.94-3.29,5.23-2.51-.71-5.21-4.26-5.87-7.91-.63-3.48.84-5.75,3.18-5.29-1.12-6.01-2.27-12.01-3.45-18-7.96-12.71-17-24.68-27.02-35.75,5.94,23.44,10.62,47.4,12.83,71.22,2.88.83,5.16,4.42,5.31,8.31.15,4.09-2.11,7.01-5.17,6.51s-5.79-4.29-5.96-8.45c-.16-3.96,2.07-6.77,4.94-6.54-2.23-24.18-7.02-48.52-13.09-72.31-8.72-9.51-18.16-18.34-28.23-26.43,6.64,23.52,11.25,47.5,15.45,71.56,3.34.84,6.37,4.25,6.98,7.93.65,3.9-1.69,6.66-5.34,6.06-3.39-.55-6.8-4.08-7.5-7.82-.72-3.89,1.5-6.62,4.84-6.35-4.22-24.32-8.85-48.56-15.59-72.32-13.7-10.87-28.55-20.35-44.34-28.23-3.2,1.8-5.92,3.33-10.85,7.03-.87.66-1.22,1.58-.96,2.6,3.31,13.11,5.5,26.39,7.58,39.74.16,1.08.71,2.16,1.57,3.09,5.83,6.25,8.48,10,14.09,16.98.83,1.04,1.37,2.22,1.52,3.39.23,1.75.35,2.64.58,4.42.2.04.39.07.59.12,2.72.73,5.29,2.84,6.53,5.64h0c.34.77.55,1.53.65,2.26.39,3.03-1.21,5.64-4.22,6.29-.73.16-1.49.18-2.26.1-3.14-.36-6.31-2.69-7.67-5.92-.33-.78-.53-1.56-.61-2.31-.33-3.09,1.36-5.66,4.34-6.22.59-.11,1.19-.12,1.79-.07-.21-1.67-.32-2.5-.54-4.15-.15-1.17-.69-2.35-1.52-3.39-5.61-6.99-8.3-10.67-14.13-16.92-.87-.93-1.42-2.01-1.57-3.09-2.08-13.5-4.29-26.94-7.62-40.2-.26-1.01.09-1.93.97-2.59,4.98-3.72,7.76-5.31,11-7.15-12.93-6.4-26.47-11.73-40.53-15.87.29.7.59,1.45.92,2.27,3.45.22,6.6,1.54,7.24,3.25.68,1.84-1.89,3.41-5.73,3.33-3.84-.08-7.42-1.76-7.99-3.58-.56-1.77,1.85-3.01,5.41-3.03-.37-.95-.71-1.81-1.04-2.6-9.32-2.7-18.87-4.87-28.61-6.49,1.09,2.19,2.01,5.47,3.28,10.99.16.67.89,1.35,2.04,1.86,8.07,3.59,12.24,5.62,20.71,10.12,1.22.65,2.02,1.52,2.22,2.43,6.49,30.31,8.75,61.46,11,92.31,4.25.5,7.78,3.9,8.05,7.93.29,4.27-3.27,7.68-7.92,7.38-4.34-.27-8.19-3.9-8.57-7.89-.4-4.14,2.83-7.37,7.14-7.48-2.22-30.74-4.44-61.76-10.78-91.99-.2-.92-.99-1.79-2.21-2.44-8.47-4.52-12.63-6.56-20.69-10.17-.51-.23-.91-.49-1.24-.76,1.66,7.65,2.42,12.57,3.82,24.01,3.91.27,7.25,2.45,7.59,5.18.37,2.87-2.78,5.24-7.04,5.16-4.26-.08-7.93-2.58-8.2-5.44-.26-2.72,2.6-4.79,6.46-4.92-1.55-11.07-1.82-26.15-7.75-36.64-5.89-.93-11.85-1.65-17.87-2.17-.78.08-1.7.14-2.72.15,4.55,16.85,4.21,35.25,5.17,52.52.06,1.18.77,2.34,2,3.21,8.55,6.05,12.93,9.26,21.79,16.01,1.27.97,2.04,2.27,2.14,3.63,1.04,14.54,1.81,29.09,2.53,43.65,4.36.43,7.93,3.76,8.13,7.76.21,4.25-3.53,7.75-8.32,7.54-4.46-.2-8.34-3.8-8.65-7.76-.31-4.12,3.06-7.39,7.5-7.57-.69-14.41-1.43-28.82-2.44-43.22-.1-1.36-.87-2.66-2.14-3.63-8.86-6.76-13.24-9.97-21.78-16.04-1.23-.87-1.94-2.03-1.99-3.21-.91-17.41-.57-35.85-4.92-52.88-3.07-.04-5.59-.46-5.94-.8-3.51-.17-7.03-.26-10.58-.28.31.06.51.13.54.21.15.35-2.38.82-5.65.87-.24,5.15-.4,10.3-.52,15.46h.02c-.14,7.83-.23,15.65-.31,23.48-.03,4.49-.06,8.99-.1,13.48-.01,1.18.64,2.33,1.83,3.18,8.25,5.94,12.51,9.09,21.18,15.71,1.24.95,1.97,2.24,2.01,3.59.44,14.5.76,29,1.06,43.5,4.42.35,7.98,3.61,8.08,7.59.1,4.23-3.79,7.83-8.65,7.7-4.53-.12-8.4-3.67-8.6-7.62-.21-4.11,3.3-7.43,7.82-7.68-.28-14.36-.58-28.72-.99-43.07-.04-1.35-.76-2.64-2.01-3.59-8.67-6.62-12.92-9.78-21.17-15.73-.24-.17-.44-.36-.63-.56-.1,11.9-.18,23.81-.24,35.71,4.18.37,7.44,3.27,7.45,6.87.01,3.87-3.78,7.08-8.47,7.09-4.69.01-8.44-3.17-8.38-7.04.06-3.76,3.64-6.76,8.07-6.94.19-25.21.35-50.43.92-75.64h.03c.22-9.31.34-12.61.6-15.46-3.19-.04-5.61-.49-5.49-.84,0-.02.02-.03.04-.05-.47.02-.94.03-1.41.05-.15.35-2.76.8-5.95.84-9.5,37.01-5.73,80.69-6.62,118.4,4.41.24,7.85,3.41,7.8,7.39-.06,4.18-3.98,7.86-8.77,7.92-4.79.06-8.58-3.5-8.47-7.68.11-3.98,3.67-7.25,8.09-7.61.93-37.54-2.98-81.66,6.99-118.42-1.23-.01-2.33-.09-3.19-.2-3.42.28-6.81.63-10.19,1.05-1.09,1.97-1.85,4.99-3.01,11.15,3.53.09,6.13,1.37,5.89,3.12-.25,1.84-3.64,3.51-7.57,3.55-3.93.04-6.81-1.58-6.44-3.43.35-1.76,3.45-3.09,7.02-3.24,1.18-6.04,1.94-9.04,3.04-11.03-9.42,1.21-18.66,2.95-27.73,5.16-.81,1.87-1.63,4.24-2.63,7.45-.21.68.17,1.34,1.06,1.83,6.24,3.42,9.53,5.33,16.45,9.53.99.6,1.48,1.44,1.35,2.35-4.23,30.36-5.67,61.08-7.15,91.67,4.34.18,7.66,3.3,7.52,7.29-.15,4.24-4.17,7.99-8.96,8.05-4.45.06-8.07-3.3-8.04-7.27.03-4.12,3.67-7.6,8.13-8.04,1.51-30.5,2.99-61.14,7.29-91.41.13-.91-.36-1.75-1.34-2.36-6.9-4.22-10.19-6.14-16.42-9.57-.18-.1-.31-.21-.45-.31-6.08,21.57-8.18,44.17-10.5,66.38,4.08.12,7.09,2.84,6.8,6.4-.3,3.74-4.19,6.99-8.65,7.17-4.46.18-7.76-2.8-7.39-6.55.35-3.57,3.85-6.55,7.98-6.97,2.21-20.6,1.69-54.86,13.53-75.29-7.29,1.83-14.46,3.97-21.48,6.41-.01.03-.01.07-.03.1-.67,1.77-4.34,3.44-8.15,3.53-.54.01-1.04-.01-1.52-.06-14.23,5.61-27.82,12.49-40.66,20.47,5.27-1.03,10.54-2.05,15.82-3.04.99-2.43,4.34-4.7,7.76-5.3,3.59-.63,5.92.79,5.21,3.32-.72,2.53-4.26,5.25-7.91,5.91-3.47.63-5.73-.84-5.27-3.2-5.75,1.09-11.5,2.19-17.24,3.33-12.69,8.02-24.63,17.14-35.67,27.22,23.12-5.82,46.66-10.47,70.19-13.04.84-2.9,4.43-5.19,8.32-5.34,4.08-.15,7,2.11,6.49,5.19-.51,3.08-4.3,5.82-8.45,5.99-3.95.16-6.75-2.07-6.52-4.96-23.9,2.6-47.8,7.35-71.26,13.29-9.4,8.7-18.14,18.1-26.13,28.13,23.11-6.55,46.68-11.11,70.32-15.26.84-3.34,4.26-6.38,7.92-7,3.89-.65,6.64,1.69,6.03,5.34-.56,3.4-4.08,6.81-7.82,7.51-3.88.72-6.6-1.5-6.31-4.84-23.9,4.17-47.73,8.76-71.09,15.41-10.99,13.95-20.54,29.09-28.44,45.18,1.66,2.96,3.22,5.65,6.65,10.27.65.87,1.56,1.22,2.56.96,12.97-3.32,26.11-5.53,39.32-7.61,1.07-.16,2.14-.71,3.07-1.58,6.2-5.84,9.88-8.51,16.83-14.12,1.03-.83,2.21-1.37,3.37-1.53,1.74-.23,2.62-.35,4.39-.58.04-.2.07-.39.12-.59.73-2.72,2.83-5.29,5.63-6.53.76-.34,1.52-.55,2.25-.65,3.02-.4,5.62,1.2,6.25,4.21.15.73.18,1.49.09,2.26-.36,3.14-2.69,6.31-5.91,7.67-.78.33-1.56.53-2.3.61-3.07.33-5.63-1.35-6.18-4.33-.11-.58-.12-1.19-.07-1.79-1.66.21-2.49.32-4.13.54-1.16.15-2.34.69-3.38,1.52-6.96,5.61-10.57,8.32-16.77,14.16-.92.87-2,1.42-3.07,1.57-13.37,2.09-26.66,4.3-39.78,7.66-.99.26-1.91-.09-2.55-.96-3.45-4.68-5.07-7.42-6.77-10.43-5.62,11.55-10.4,23.59-14.23,36.04.48-.2.98-.41,1.52-.62.22-3.44,1.55-6.62,3.27-7.27,1.84-.7,3.42,1.85,3.34,5.68-.08,3.84-1.77,7.43-3.6,8.02-1.77.58-3.03-1.81-3.04-5.36-.66.26-1.27.51-1.85.75-2.84,9.4-5.17,19.02-6.92,28.84,2.2-1.07,5.43-2.01,10.66-3.28.68-.16,1.35-.9,1.87-2.07,3.61-8.11,5.65-12.29,10.17-20.79.65-1.22,1.52-2.02,2.44-2.23,30.34-6.71,61.57-9.05,92.49-11.38.51-4.23,3.92-7.76,7.95-8.03,4.28-.29,7.68,3.24,7.37,7.87-.28,4.32-3.92,8.16-7.92,8.55-4.15.4-7.37-2.8-7.47-7.1-30.81,2.29-61.91,4.6-92.17,11.16-.92.2-1.8,1.01-2.45,2.23-4.54,8.49-6.59,12.67-10.22,20.77-.23.51-.49.92-.77,1.25,7.68-1.75,12.61-2.56,24.08-4.04.27-3.9,2.47-7.25,5.2-7.62,2.88-.38,5.25,2.75,5.16,7-.09,4.25-2.59,7.94-5.46,8.23-2.73.27-4.8-2.56-4.92-6.41-11,1.62-25.93,2.04-36.38,7.98-1.07,6.34-1.91,12.76-2.5,19.25.03.51.05,1.06.06,1.64,16.42-5.13,35.77-4.75,52.68-5.8,1.18-.06,2.34-.79,3.21-2.02,6.07-8.58,9.29-12.97,16.06-21.85.97-1.27,2.28-2.05,3.64-2.15,14.56-1.1,29.12-1.92,43.7-2.67.44-4.35,3.78-7.92,7.78-8.12,4.25-.22,7.76,3.51,7.53,8.28-.21,4.45-3.82,8.33-7.79,8.64-4.13.32-7.39-3.04-7.56-7.47-14.43.73-28.86,1.52-43.27,2.58-1.36.1-2.67.88-3.64,2.15-6.78,8.88-10.01,13.27-16.09,21.84-.87,1.23-2.03,1.95-3.22,2.01-17.07,1.01-36.42.61-53.04,5.56-.04,2.7-.37,5-.69,5.77-.21,3.56-.34,7.14-.4,10.74.05-.27.12-.44.2-.47.36-.18.83,2.33.88,5.6,8.4.11,16.8.16,25.2.19.82,0,1.65,0,2.47,0,8.29.02,16.58.03,24.87.05,1.18,0,2.33-.66,3.19-1.85,5.96-8.29,9.12-12.56,15.75-21.27.95-1.25,2.24-1.98,3.59-2.03,14.51-.5,29.02-.88,43.54-1.22.36-4.42,3.63-7.98,7.61-8.09,4.23-.12,7.84,3.76,7.7,8.62-.13,4.53-3.7,8.4-7.65,8.61-4.11.22-7.42-3.28-7.67-7.79-14.37.32-28.74.67-43.11,1.14-1.36.04-2.65.77-3.6,2.02-6.64,8.7-9.81,12.97-15.78,21.25-.17.24-.36.44-.56.63,11.91.03,23.83.05,35.74.07.38-4.18,3.28-7.46,6.89-7.48,3.87-.03,7.07,3.76,7.08,8.45,0,4.69-3.19,8.46-7.06,8.41-3.76-.04-6.76-3.62-6.93-8.05-25.24-.09-50.49-.16-75.74-.41v-.03c-9.34-.1-12.64-.15-15.52-.26-.04,3.19-.5,5.64-.85,5.55-.06-.02-.12-.12-.17-.28.02.57.05,1.14.06,1.71.03-.04.07-.07.1-.06.35.1.81,2.7.86,5.91,37.93,7.68,80.2,4.91,118.55,5.68.25-4.41,3.43-7.87,7.41-7.83,4.18.04,7.87,3.97,7.92,8.76.06,4.79-3.53,8.6-7.72,8.5-3.99-.1-7.24-3.65-7.6-8.08-38.21-.82-80.83,2.09-118.56-6.06-.02,1.75-.17,3.23-.36,4.17.23,3.02.54,6.02.88,9,1.98,1.11,5,1.82,11.52,2.95.1-3.53,1.38-6.16,3.13-5.94,1.85.23,3.52,3.6,3.55,7.53.04,3.93-1.58,6.84-3.44,6.49-1.76-.33-3.09-3.41-3.24-6.99-6.41-1.15-9.41-1.88-11.4-2.99,1.1,9.33,2.69,18.5,4.77,27.49,1.98.88,4.55,1.75,8.21,2.84.68.2,1.35-.18,1.84-1.09,3.42-6.29,5.34-9.62,9.55-16.58.6-1,1.45-1.5,2.35-1.38,30.4,3.96,61.11,5.31,91.71,6.7.19-4.35,3.31-7.69,7.3-7.56,4.24.14,8,4.16,8.05,8.96.05,4.47-3.33,8.1-7.3,8.08-4.12-.02-7.59-3.66-8.02-8.13-30.51-1.42-61.14-2.81-91.45-6.84-.91-.12-1.76.37-2.36,1.37-4.23,6.95-6.15,10.27-9.6,16.55-.1.18-.21.32-.32.45,21.52,5.99,44.28,7.87,66.4,10.08.12-4.09,2.85-7.12,6.41-6.85,3.74.29,6.98,4.17,7.15,8.65.17,4.48-2.81,7.8-6.57,7.44-3.57-.34-6.54-3.84-6.96-7.98-21-2.17-55.55-1.43-76.09-13.42,1.76,7.43,3.85,14.74,6.25,21.91.31-.14.66-.15,1.03-.02,1.77.65,3.44,4.31,3.53,8.12.03,1.29-.13,2.41-.42,3.31,5.71,14.64,12.76,28.62,20.97,41.79-1.22-6.2-2.4-12.4-3.55-18.61-2.43-.98-4.69-4.33-5.28-7.76-.63-3.6.89-6,3.42-5.3,2.53.7,5.14,4.3,5.8,7.96.63,3.49-.85,5.77-3.2,5.32,1.25,6.69,2.53,13.38,3.85,20.05,8.02,12.64,17.12,24.53,27.18,35.52-6.15-24.08-11.12-48.71-13.15-73.22-2.89-.83-5.19-4.42-5.33-8.32-.15-4.1,2.12-7.03,5.2-6.54,3.08.49,5.82,4.28,5.98,8.45.16,3.97-2.08,6.79-4.97,6.57,2.05,24.88,7.14,49.88,13.42,74.3,8.71,9.39,18.12,18.12,28.15,26.1-6.81-24.04-11.47-48.56-15.72-73.16-3.35-.83-6.39-4.25-7-7.94-.65-3.92,1.8-6.73,5.45-6.14,3.4.55,6.76,4.11,7.45,7.87.72,3.9-1.52,6.65-4.87,6.38,4.21,24.55,8.84,49.01,15.61,73,.1.36.27.73.47,1.09,13.35,10.47,27.78,19.62,43.09,27.27,3.56-2.04,6.35-3.59,11.68-7.6.88-.66,1.23-1.6.98-2.62-3.26-13.19-5.43-26.54-7.49-39.96-.15-1.08-.7-2.17-1.57-3.1-5.84-6.27-8.52-9.96-14.14-16.96-.83-1.04-1.37-2.23-1.52-3.4-.23-1.76-.34-2.65-.57-4.43-.2-.04-.4-.07-.59-.12-2.73-.73-5.3-2.84-6.54-5.65-.34-.77-.55-1.53-.64-2.27-.39-3.04,1.22-5.67,4.25-6.33.73-.16,1.5-.19,2.27-.1,3.15.35,6.33,2.68,7.69,5.92.33.79.53,1.57.61,2.32.33,3.1-1.38,5.69-4.37,6.26-.59.11-1.19.12-1.8.08.21,1.68.31,2.51.53,4.17.15,1.17.68,2.36,1.52,3.41,5.62,7.01,8.34,10.62,14.18,16.9.87.93,1.42,2.02,1.57,3.11,2.06,13.58,4.24,27.09,7.53,40.43.25,1.02-.1,1.95-.98,2.61-5.38,4.03-8.23,5.65-11.83,7.72,12.33,6.11,25.22,11.26,38.58,15.32-.2-.47-.4-.96-.61-1.49-3.44-.22-6.61-1.53-7.25-3.24-.69-1.83,1.85-3.39,5.69-3.31,3.83.08,7.42,1.76,8.01,3.57.57,1.76-1.81,3-5.36,3.01.26.65.5,1.24.74,1.81,9.38,2.8,18.98,5.08,28.77,6.79-1.05-2.16-1.97-5.33-3.22-10.49-.16-.67-.9-1.34-2.06-1.85-8.09-3.58-12.26-5.6-20.75-10.09-1.22-.64-2.02-1.51-2.23-2.43-6.68-30.24-8.99-61.36-11.31-92.17-4.24-.51-7.76-3.91-8.04-7.93-.29-4.27,3.24-7.65,7.88-7.35,4.32.28,8.17,3.89,8.56,7.88.4,4.14-2.8,7.36-7.1,7.46,2.28,30.7,4.56,61.7,11.09,91.85.2.92,1,1.79,2.22,2.43,8.48,4.51,12.65,6.54,20.73,10.13.51.23.92.49,1.25.76-1.73-7.61-2.53-12.51-3.98-23.92-3.9-.27-7.24-2.45-7.61-5.18-.38-2.86,2.75-5.22,7-5.14,4.25.09,7.93,2.58,8.22,5.43.27,2.71-2.57,4.77-6.42,4.9,1.59,10.9,1.99,25.69,7.86,36.04,6.4,1.06,12.88,1.88,19.43,2.46.45-.02.92-.04,1.42-.05-5.04-16.28-4.62-35.5-5.64-52.25-.06-1.18-.78-2.33-2.01-3.2-8.56-6.04-12.95-9.25-21.82-16-1.27-.97-2.05-2.27-2.15-3.62-1.09-14.52-1.89-29.05-2.64-43.6-4.35-.44-7.92-3.76-8.12-7.76-.21-4.24,3.51-7.72,8.28-7.49,4.45.21,8.34,3.78,8.65,7.74.32,4.12-3.04,7.38-7.47,7.55.72,14.4,1.5,28.79,2.55,43.17.1,1.36.87,2.66,2.15,3.63,8.87,6.76,13.25,9.97,21.81,16.02,1.23.87,1.95,2.03,2,3.21.97,16.91.53,36.13,5.39,52.61,2.61.04,4.84.34,5.67.63,3.52.2,7.07.31,10.63.36-.16-.04-.28-.09-.3-.14-.17-.34,2.34-.8,5.61-.84ZM424.8,214.3c.78-.22,1.57-.3,2.36-.25.9.06,1.78.3,2.62.68.78.35,1.52.83,2.19,1.42,6.86-7.36,13.75-14.68,20.67-21.97,1-1.05,1.5-2.56,1.4-4.19-1.89-16.63-4.22-33.21-7.18-49.68-.2-1.1-.74-2.22-1.57-3.22-6.04-7.34-9.08-10.94-15.17-17.91-.42-2.16-.63-3.23-1.06-5.33-.18-.04-.37-.08-.55-.14-2.56-.77-5.08-2.68-6.36-5.01h0c-.35-.64-.58-1.26-.7-1.85-.5-2.42.84-4.27,3.51-4.49.65-.06,1.32-.01,2.01.12,2.82.53,5.77,2.51,7.24,5.08.36.62.6,1.24.73,1.83.55,2.42-.74,4.38-3.43,4.66-.53.06-1.08.02-1.64-.05.41,2.01.62,3.03,1.02,5.1,6.08,6.96,9.12,10.56,15.16,17.89.82,1,1.37,2.12,1.57,3.22,3.02,16.67,5.41,33.43,7.3,50.27.1,1.63-.4,3.14-1.4,4.19-6.98,7.36-13.92,14.76-20.83,22.18.86.95,1.56,2.09,2,3.4.29.86.45,1.73.49,2.58.16,3.49-1.72,6.63-4.89,7.59-.77.23-1.56.32-2.34.28-3.23-.18-6.41-2.6-7.68-6.2-.31-.87-.47-1.75-.51-2.61-.17-3.52,1.85-6.66,5.05-7.59ZM180.18,388.76c-.78.23-1.58.3-2.37.25-.9-.06-1.78-.3-2.62-.68-.79-.35-1.52-.83-2.19-1.42-6.88,7.38-13.78,14.74-20.73,22.06-1,1.06-1.51,2.57-1.4,4.21,1.77,16.72,4.17,33.33,7.04,49.9.19,1.1.74,2.23,1.56,3.24,6.05,7.36,9.09,10.98,15.18,17.97.41,2.18.62,3.25,1.04,5.36.19.04.37.08.56.14,2.56.77,5.09,2.68,6.36,5.03.35.64.58,1.27.7,1.86.5,2.44-.86,4.3-3.53,4.53-.65.06-1.33.01-2.02-.12-2.83-.53-5.78-2.52-7.25-5.1-.36-.63-.6-1.24-.73-1.83-.55-2.43.75-4.4,3.45-4.69.53-.06,1.08-.03,1.65.05-.41-2.02-.61-3.04-1.01-5.12-6.08-6.99-9.13-10.6-15.17-17.95-.82-1-1.37-2.13-1.57-3.23-2.93-16.76-5.38-33.56-7.15-50.49-.1-1.64.4-3.15,1.4-4.21,7-7.39,13.96-14.81,20.89-22.27-.86-.95-1.56-2.09-2-3.4-.29-.86-.45-1.74-.49-2.59-.16-3.5,1.73-6.64,4.91-7.61.77-.24,1.56-.32,2.35-.28,3.23.18,6.45,2.59,7.72,6.19h0c.31.87.47,1.75.51,2.61.16,3.53-1.89,6.69-5.1,7.62ZM413.92,453.91c16.65-1.86,33.24-4.19,49.74-7.15,1.1-.2,2.23-.74,3.23-1.57,7.35-6.04,10.95-9.09,17.93-15.17,2.17-.42,3.23-.63,5.34-1.05.04-.18.08-.37.14-.55.77-2.56,2.68-5.08,5.01-6.36.64-.35,1.26-.58,1.85-.7,2.43-.5,4.27.85,4.5,3.51.06.65.01,1.33-.12,2.01-.53,2.82-2.51,5.77-5.09,7.24-.62.36-1.24.6-1.83.73-2.42.55-4.38-.74-4.67-3.43-.06-.53-.03-1.08.05-1.64-2.01.41-3.03.61-5.1,1.01-6.97,6.08-10.57,9.12-17.91,15.16-1,.82-2.12,1.37-3.22,1.57-16.69,3.01-33.47,5.4-50.32,7.26-1.63.1-3.14-.4-4.2-1.4-7.37-6.98-14.77-13.93-22.2-20.84-.95.86-2.09,1.56-3.4,2-.86.29-1.73.45-2.58.49-3.49.16-6.63-1.72-7.6-4.9-.23-.77-.32-1.56-.28-2.35.18-3.23,2.6-6.42,6.2-7.68h0c.87-.31,1.75-.47,2.61-.51,3.53-.16,6.67,1.85,7.59,5.06.22.78.3,1.58.25,2.36-.06.9-.3,1.78-.68,2.62-.35.79-.83,1.52-1.42,2.19,7.36,6.86,14.69,13.75,21.99,20.69,1.05,1,2.56,1.5,4.2,1.4ZM192.19,152.29c-1.05-1-2.55-1.5-4.18-1.4-16.54,2.05-33.02,4.4-49.44,7.31-1.09.2-2.21.75-3.21,1.57-7.31,6.05-10.89,9.09-17.82,15.17-2.15.42-3.21.63-5.29,1.06-.04.18-.08.37-.14.55-.76,2.56-2.66,5.07-4.97,6.35h0c-.63.35-1.25.58-1.83.71-2.4.51-4.22-.84-4.44-3.5-.05-.65,0-1.32.12-2.01.53-2.82,2.49-5.77,5.04-7.24.62-.36,1.23-.6,1.81-.73,2.39-.55,4.34.74,4.61,3.42.05.53.02,1.08-.05,1.64,1.99-.41,3-.62,5.06-1.02,6.91-6.08,10.5-9.12,17.8-15.17.99-.82,2.11-1.37,3.2-1.57,16.61-2.97,33.28-5.37,50.02-7.43,1.63-.1,3.13.4,4.18,1.39,7.33,6.99,14.7,13.94,22.1,20.85.94-.87,2.09-1.57,3.39-2.01.86-.29,1.73-.45,2.58-.49,3.48-.16,6.61,1.72,7.57,4.89.23.77.32,1.56.27,2.35-.18,3.24-2.6,6.45-6.19,7.72-.87.31-1.75.48-2.6.52-3.52.17-6.65-1.86-7.57-5.07-.22-.78-.3-1.58-.25-2.37.06-.9.31-1.79.68-2.63.35-.79.83-1.52,1.42-2.2-7.33-6.86-14.63-13.76-21.89-20.7ZM201.05,404.55c-3.27-67.37-3.3-134.8-.14-202.17,67.42-3.17,134.89-3.17,202.31,0,3.16,67.37,3.13,134.8-.14,202.17-67.32,3.26-134.71,3.26-202.03,0Z"/>
    <path class="cls-3" d="M344.41,93.4c.12,1.2.94,2.33,2.19,3.16,1.25.83,2.92,1.37,4.71,1.41,1.79.03,3.35-.44,4.42-1.23,1.07-.79,1.65-1.89,1.5-3.09-.15-1.21-1-2.29-2.25-3.09-1.25-.79-2.89-1.29-4.65-1.32-1.76-.03-3.29.41-4.36,1.16-1.07.75-1.69,1.8-1.57,3.01Z"/>
    <path class="cls-3" d="M445.15,422.39c-.66.07-1.35.25-2.04.54-2.85,1.2-4.9,3.99-5.22,6.76-.08.67-.05,1.34.08,1.99.57,2.66,2.87,4.08,5.55,3.73.65-.08,1.32-.27,2-.57,2.79-1.23,4.8-3.95,5.17-6.67.09-.66.08-1.32-.05-1.96-.51-2.64-2.78-4.12-5.5-3.83Z"/>
    <path class="cls-3" d="M398.31,499.03c-.99-.82-2.48-1.3-4.23-1.23-1.75.07-3.42.68-4.71,1.59-1.29.91-2.19,2.13-2.4,3.42-.21,1.29.3,2.42,1.3,3.2.99.79,2.46,1.23,4.19,1.17,1.73-.06,3.37-.63,4.66-1.5,1.28-.87,2.2-2.06,2.44-3.36.24-1.3-.25-2.46-1.24-3.29Z"/>
    <path class="cls-3" d="M309.23,555.31c.04-.15-.5-.31-1.42-.44-.92-.13-2.21-.22-3.64-.22-1.44,0-2.73.09-3.66.22-.93.13-1.49.3-1.47.44,0,.07.16.13.4.18.88,0,1.75.03,2.63.03,2.34,0,4.68-.04,7.01-.1.09-.03.15-.07.16-.11Z"/>
    <path class="cls-3" d="M329.28,433.45c1.33-1.16,2.18-2.75,2.23-4.51.04-1.76-.73-3.35-2.02-4.49-1.29-1.15-3.1-1.93-5.12-1.9-2.02.03-3.85.85-5.18,2.03-1.34,1.18-2.17,2.78-2.19,4.54-.02,1.76.77,3.33,2.06,4.46,1.29,1.13,3.09,1.81,5.08,1.79,2-.02,3.81-.75,5.15-1.91Z"/>
    <path class="cls-3" d="M272.44,171.28c-1.34,1.17-2.19,2.76-2.23,4.52-.05,1.76.72,3.3,2.01,4.51,1.29,1.21,3.1,1.94,5.12,1.92,2.02-.03,3.85-.81,5.18-2.06,1.34-1.25,2.17-2.8,2.2-4.56.03-1.76-.76-3.33-2.05-4.46-1.29-1.13-3.08-1.81-5.08-1.78-2,.03-3.81.76-5.15,1.92Z"/>
    <path class="cls-3" d="M260.52,65.03c-.15.78.37,1.5,1.35,2.03.98.53,2.42.85,4.07.84,1.65-.02,3.19-.37,4.35-.92,1.15-.55,1.91-1.28,2.02-2.05.11-.78-.45-1.45-1.43-1.92-.98-.47-2.38-.75-3.99-.74-1.61.01-3.11.31-4.27.81-1.15.49-1.95,1.18-2.1,1.96Z"/>
    <path class="cls-3" d="M341.61,539.41c.15-.77-.38-1.49-1.37-2.02-.99-.52-2.42-.85-4.07-.83-1.65.02-3.19.37-4.34.91-1.15.54-1.9,1.27-2.01,2.04-.1.77.46,1.44,1.45,1.91.99.47,2.39.75,3.99.73,1.61-.01,3.11-.31,4.26-.8,1.15-.49,1.94-1.17,2.08-1.94Z"/>
    <path class="cls-3" d="M48.92,308.61c.16.03.33-.51.47-1.43.14-.92.23-2.21.23-3.65,0-1.44-.1-2.74-.23-3.67-.14-.93-.31-1.49-.46-1.47-.1.01-.17.25-.24.65-.01,1.02-.04,2.04-.04,3.07,0,2.02.03,4.04.08,6.05.05.27.12.44.2.46Z"/>
    <path class="cls-3" d="M293.19,48.95c-.05.15.49.32,1.4.46.91.13,2.2.23,3.64.23s2.74-.09,3.68-.23c.94-.13,1.5-.31,1.5-.46,0-.1-.28-.18-.74-.25-.2,0-.4,0-.6,0-2.93,0-5.85.07-8.76.17-.06.03-.1.06-.11.09Z"/>
    <path class="cls-3" d="M381.77,466.25c.15-1.58-.47-2.99-1.6-3.99-1.13-1-2.77-1.59-4.65-1.51-1.88.07-3.64.78-4.95,1.88-1.32,1.09-2.19,2.55-2.32,4.12-.13,1.57.52,2.95,1.65,3.93,1.14.97,2.76,1.54,4.62,1.47,1.86-.07,3.59-.75,4.9-1.81,1.31-1.06,2.2-2.5,2.35-4.08Z"/>
    <path class="cls-3" d="M220.09,138.48c-.15,1.58.46,2.99,1.59,3.99,1.13,1,2.76,1.59,4.64,1.51,1.88-.07,3.63-.79,4.95-1.89,1.32-1.1,2.2-2.56,2.33-4.14.13-1.58-.51-2.96-1.64-3.93-1.13-.97-2.75-1.54-4.61-1.47-1.85.07-3.58.76-4.9,1.82-1.31,1.07-2.2,2.51-2.35,4.09Z"/>
    <path class="cls-3" d="M386.88,539.62c-1.24.53-2.14,1.23-2.44,1.96-.04.09-.06.18-.08.26,2.83-.97,5.63-2,8.41-3.06-.47-.06-.96-.1-1.51-.09-1.58.04-3.14.39-4.38.92Z"/>
    <path class="cls-3" d="M511.21,346.27c-1.2.12-2.32.95-3.15,2.2-.83,1.25-1.37,2.92-1.4,4.71-.04,1.79.44,3.34,1.22,4.41.79,1.07,1.88,1.64,3.08,1.49,1.2-.16,2.28-1.01,3.07-2.26.79-1.25,1.28-2.89,1.32-4.64.03-1.75-.4-3.28-1.15-4.35-.74-1.07-1.79-1.67-3-1.55Z"/>
    <path class="cls-2" d="M344.8,348.71c-1.43-1.31-3.13-1.96-5.12-1.95-2.1.02-3.9.69-5.41,2.03-1.51,1.34-2.67,3.23-3.48,5.67-.81,2.44-1.23,5.36-1.25,8.74-.02,3.36.35,6.23,1.12,8.64.77,2.41,1.89,4.25,3.37,5.53,1.48,1.28,3.25,1.91,5.33,1.88,1.96-.02,3.67-.69,5.12-2.01,1.45-1.31,2.58-3.18,3.4-5.6.82-2.42,1.25-5.3,1.29-8.64.04-3.37-.32-6.27-1.08-8.69-.76-2.42-1.86-4.29-3.29-5.6Z"/>
    <path class="cls-1" d="M403.08,404.55c3.27-67.37,3.3-134.8.14-202.17-67.42-3.17-134.89-3.17-202.31,0-3.16,67.37-3.13,134.8.14,202.17,67.32,3.26,134.71,3.26,202.03,0ZM372.7,362.8c-.12,6.54-1.56,12.25-4.29,17.18-2.73,4.93-6.57,8.79-11.55,11.58-4.98,2.8-10.93,4.26-17.91,4.36-6.97.11-12.96-1.17-17.94-3.84-4.99-2.66-8.82-6.44-11.5-11.36-2.68-4.91-4.02-10.66-4.02-17.27,0-6.61,1.36-12.47,4.08-17.53,2.72-5.06,6.63-9.03,11.73-11.88,5.09-2.85,11.21-4.28,18.31-4.31,7.1-.03,13.13,1.35,18.11,4.13,4.97,2.78,8.74,6.67,11.31,11.65,2.57,4.98,3.79,10.74,3.67,17.28ZM234.33,213.9c20.07-.57,40.14-.8,60.22-.9-.02,7.32-.03,11.02-.05,18.49-12.48.03-24.97.13-37.45.3-.08,5.84-.12,8.78-.18,14.7,11.28-.11,22.56-.18,33.84-.23-.02,7.56-.03,11.37-.04,19.01-11.32.03-22.65.08-33.97.15-.07,11.39-.11,22.78-.13,34.18-9.45,0-14.14,0-23.43.01.07-28.58.45-57.14,1.19-85.71ZM294.23,384.35c-2.81,3.83-6.83,6.72-12.03,8.66-5.2,1.94-11.43,2.85-18.67,2.74-7.44-.12-13.9-1.32-19.42-3.58-5.52-2.26-9.82-5.66-12.94-10.2-3.11-4.55-4.77-10.34-4.95-17.43,8.67.19,13.07.27,21.91.4.18,2.61.87,4.81,2.07,6.6,1.2,1.79,2.87,3.15,5.03,4.09s4.71,1.43,7.69,1.47c2.5.03,4.59-.25,6.27-.84,1.68-.59,2.96-1.42,3.82-2.49.86-1.07,1.33-2.33,1.32-3.69-.01-1.28-.48-2.46-1.32-3.46-.84-.99-2.22-1.9-4.12-2.71-1.9-.81-4.46-1.59-7.68-2.32-3.46-.77-5.18-1.16-8.62-1.94-7.65-1.74-13.64-4.59-18.04-8.53-4.39-3.94-6.58-9.3-6.65-16.02-.06-5.47,1.32-10.3,4.23-14.44,2.91-4.13,6.98-7.37,12.24-9.69,5.26-2.32,11.34-3.49,18.24-3.48,7.05,0,13.18,1.2,18.36,3.58,5.18,2.38,9.19,5.73,12.02,10.04,2.83,4.31,4.25,9.34,4.29,15.06-9.14,0-13.71-.02-22.8-.05-.24-2.84-1.31-5.07-3.21-6.67s-4.77-2.41-8.6-2.43c-2.44-.01-4.43.27-5.97.85-1.54.58-2.67,1.36-3.4,2.35-.73.99-1.08,2.14-1.12,3.4-.03,1.03.15,1.99.59,2.83.44.84,1.15,1.6,2.11,2.27.96.67,2.2,1.28,3.7,1.83,1.5.55,3.29,1.04,5.36,1.48,2.86.63,4.29.95,7.16,1.57,4.84,1.05,8.99,2.41,12.45,4.09,3.45,1.68,6.29,3.65,8.49,5.89,2.2,2.25,3.82,4.76,4.87,7.54,1.04,2.78,1.6,5.82,1.61,9.06.02,5.59-1.45,10.34-4.27,14.18ZM299.44,234.15c9.41,0,14.12,0,23.51.06.08,12.18.13,24.36.16,36.55.04,3.25.88,5.81,2.53,7.67,1.65,1.86,3.95,2.79,6.92,2.8,1.97,0,3.67-.41,5.1-1.25,1.43-.84,2.54-2.03,3.31-3.58.77-1.55,1.14-3.41,1.1-5.56-.06-12.15-.17-24.3-.31-36.46,9.31.11,13.95.18,23.12.35.37,21.63.57,43.25.62,64.88-8.79,0-13.23,0-22.16-.01,0-5.01,0-7.51-.02-12.52-.27,0-.41,0-.68,0-1.41,4.19-3.89,7.47-7.45,9.83-3.56,2.36-7.8,3.54-12.72,3.54-4.61,0-8.64-1.06-12.1-3.19-3.46-2.12-6.14-5.05-8.05-8.77-1.91-3.72-2.87-7.99-2.9-12.79,0-13.85.01-27.7.02-41.55Z"/>
    <path class="cls-4" d="M256.7,265.42c11.32-.07,22.65-.12,33.97-.15.01-7.65.02-11.45.04-19.01-11.28.05-22.56.12-33.84.23.06-5.91.1-8.86.18-14.7,12.48-.17,24.97-.27,37.45-.3.02-7.47.03-11.17.05-18.49-20.08.1-40.15.34-60.22.9-.74,28.57-1.11,57.13-1.19,85.71,9.28,0,13.98,0,23.43-.01.02-11.39.06-22.78.13-34.18Z"/>
    <path class="cls-4" d="M310.37,297.26c3.46,2.12,7.49,3.19,12.1,3.19,4.92,0,9.16-1.18,12.72-3.54,3.56-2.36,6.04-5.64,7.45-9.83.27,0,.41,0,.68,0,.01,5,.02,7.51.02,12.52,8.92,0,13.37,0,22.16.01-.05-21.63-.25-43.25-.62-64.88-9.17-.17-13.8-.24-23.12-.35.14,12.15.25,24.3.31,36.46.04,2.16-.33,4.02-1.1,5.56-.77,1.55-1.88,2.74-3.31,3.58-1.43.84-3.13,1.25-5.1,1.25-2.97,0-5.27-.94-6.92-2.8-1.65-1.86-2.49-4.42-2.53-7.67-.03-12.18-.09-24.36-.16-36.55-9.38-.06-14.1-.07-23.51-.06-.01,13.85-.02,27.7-.02,41.55.03,4.8.99,9.07,2.9,12.79,1.91,3.72,4.59,6.65,8.05,8.77Z"/>
    <path class="cls-4" d="M292.03,353.57c-2.2-2.25-5.03-4.21-8.49-5.89-3.45-1.68-7.61-3.04-12.45-4.09-2.87-.63-4.3-.94-7.16-1.57-2.07-.44-3.86-.93-5.36-1.48-1.5-.55-2.73-1.16-3.7-1.83-.96-.67-1.67-1.43-2.11-2.27-.44-.84-.62-1.8-.59-2.83.04-1.26.39-2.41,1.12-3.4.73-.99,1.86-1.77,3.4-2.35,1.54-.57,3.53-.86,5.97-.85,3.83.02,6.7.82,8.6,2.43s2.97,3.83,3.21,6.67c9.09.04,13.66.05,22.8.05-.03-5.73-1.46-10.75-4.29-15.06-2.83-4.31-6.84-7.66-12.02-10.04-5.18-2.38-11.31-3.57-18.36-3.58-6.9,0-12.98,1.16-18.24,3.48-5.26,2.32-9.33,5.56-12.24,9.69-2.91,4.13-4.29,8.97-4.23,14.44.07,6.72,2.26,12.08,6.65,16.02,4.39,3.94,10.39,6.78,18.04,8.53,3.44.78,5.17,1.17,8.62,1.94,3.22.73,5.78,1.5,7.68,2.32,1.9.81,3.27,1.72,4.12,2.71.84,1,1.31,2.18,1.32,3.46.01,1.36-.46,2.62-1.32,3.69-.87,1.07-2.14,1.9-3.82,2.49-1.68.59-3.77.87-6.27.84-2.98-.04-5.54-.53-7.69-1.47s-3.83-2.3-5.03-4.09c-1.2-1.79-1.89-3.98-2.07-6.6-8.84-.13-13.24-.21-21.91-.4.18,7.1,1.84,12.89,4.95,17.43,3.11,4.55,7.41,7.95,12.94,10.2,5.52,2.26,11.98,3.46,19.42,3.58,7.25.12,13.48-.8,18.67-2.74,5.2-1.94,9.21-4.82,12.03-8.66,2.81-3.83,4.28-8.59,4.27-14.18,0-3.24-.57-6.28-1.61-9.06-1.04-2.78-2.66-5.3-4.87-7.54Z"/>
    <path class="cls-4" d="M357.72,333.88c-4.97-2.78-11.01-4.16-18.11-4.13-7.1.03-13.21,1.47-18.31,4.31-5.09,2.85-9,6.81-11.73,11.88-2.72,5.06-4.08,10.92-4.08,17.53,0,6.61,1.34,12.36,4.02,17.27,2.68,4.91,6.51,8.69,11.5,11.36,4.99,2.67,10.97,3.94,17.94,3.84,6.97-.11,12.93-1.57,17.91-4.36,4.98-2.79,8.82-6.65,11.55-11.58,2.73-4.93,4.16-10.64,4.29-17.18.13-6.54-1.09-12.31-3.67-17.28-2.57-4.98-6.34-8.87-11.31-11.65ZM347.87,371.65c-.82,2.42-1.95,4.28-3.4,5.6-1.45,1.31-3.15,1.98-5.12,2.01-2.08.03-3.85-.6-5.33-1.88-1.48-1.28-2.6-3.12-3.37-5.53-.77-2.41-1.14-5.29-1.12-8.64.02-3.38.44-6.3,1.25-8.74.81-2.44,1.97-4.33,3.48-5.67,1.51-1.34,3.32-2.01,5.41-2.03,1.98-.01,3.69.64,5.12,1.95,1.43,1.31,2.53,3.18,3.29,5.6.76,2.42,1.12,5.32,1.08,8.69-.04,3.34-.47,6.22-1.29,8.64Z"/>
    <path class="cls-4" d="M389.16,429.63c.38-.84.62-1.72.68-2.62.05-.79-.03-1.58-.25-2.36-.92-3.21-4.07-5.23-7.59-5.06-.86.04-1.74.21-2.61.51h0c-3.6,1.27-6.01,4.45-6.2,7.68-.04.78.04,1.58.28,2.35.97,3.17,4.11,5.05,7.6,4.9.85-.04,1.72-.2,2.58-.49,1.31-.44,2.46-1.14,3.4-2,7.43,6.91,14.84,13.86,22.2,20.84,1.05,1,2.56,1.5,4.2,1.4,16.85-1.86,33.63-4.25,50.32-7.26,1.1-.2,2.22-.75,3.22-1.57,7.34-6.04,10.94-9.08,17.91-15.16,2.07-.4,3.09-.6,5.1-1.01-.07.56-.1,1.11-.05,1.64.28,2.69,2.25,3.98,4.67,3.43.59-.13,1.2-.38,1.83-.73,2.57-1.47,4.55-4.42,5.09-7.24.13-.69.17-1.36.12-2.01-.23-2.66-2.08-4.02-4.5-3.51-.59.12-1.21.35-1.85.7-2.34,1.28-4.25,3.8-5.01,6.36-.06.18-.09.37-.14.55-2.1.43-3.17.64-5.34,1.05-6.97,6.08-10.58,9.13-17.93,15.17-1,.82-2.13,1.37-3.23,1.57-16.49,2.96-33.08,5.29-49.74,7.15-1.63.1-3.14-.4-4.2-1.4-7.29-6.93-14.63-13.83-21.99-20.69.59-.67,1.07-1.4,1.42-2.19ZM490.75,429.23c.47-2.53,2.31-5.18,4.62-6.45.56-.31,1.11-.51,1.63-.62,2.14-.45,3.78.74,3.98,3.09.05.57.01,1.17-.1,1.77-.47,2.49-2.22,5.1-4.49,6.39-.55.31-1.1.53-1.61.64-2.13.48-3.86-.66-4.11-3.03-.06-.58-.03-1.18.09-1.8Z"/>
    <path class="cls-4" d="M519.39,402.27c-13.28,3.33-26.74,5.52-40.26,7.6-1.08.15-2.17.7-3.1,1.57-6.26,5.84-9.92,8.53-16.92,14.14-1.04.83-2.23,1.37-3.4,1.52-1.65.22-2.48.32-4.16.53.05-.61.04-1.21-.07-1.79-.57-2.99-3.15-4.68-6.23-4.35-.75.08-1.53.28-2.31.61-3.23,1.36-5.56,4.53-5.92,7.68-.09.76-.06,1.53.1,2.26.65,3.02,3.27,4.62,6.3,4.23.74-.09,1.5-.31,2.26-.64,2.8-1.24,4.91-3.81,5.64-6.53.05-.2.09-.39.12-.59,1.78-.23,2.67-.34,4.42-.57,1.17-.16,2.35-.69,3.39-1.52,6.99-5.61,10.72-8.27,16.97-14.1.93-.87,2.01-1.42,3.09-1.57,13.37-2.07,26.66-4.26,39.79-7.56,1.01-.26,1.95.09,2.6.97,3.78,5.03,5.31,7.76,7.17,11.05.12-.25.25-.5.37-.75-1.89-3.33-3.48-6.12-7.28-11.2-.65-.88-1.58-1.23-2.59-.97ZM450.7,428.18c-.36,2.72-2.38,5.44-5.17,6.67-.68.3-1.35.48-2,.57-2.68.34-4.98-1.07-5.55-3.73-.14-.65-.16-1.32-.08-1.99.32-2.77,2.37-5.56,5.22-6.76.69-.29,1.38-.47,2.04-.54,2.72-.29,4.99,1.19,5.5,3.83.12.64.13,1.3.05,1.96Z"/>
    <path class="cls-4" d="M234.02,540.1c-.59-1.81-4.17-3.49-8.01-3.57-3.83-.08-6.38,1.48-5.69,3.31.65,1.7,3.81,3.02,7.25,3.24.21.52.41,1.01.61,1.49.4.12.8.24,1.2.36-.24-.57-.48-1.17-.74-1.81,3.55-.02,5.94-1.26,5.36-3.01Z"/>
    <path class="cls-4" d="M324.79,436.5c4.42-.36,7.97-3.61,8.08-7.59.11-4.18-3.69-7.72-8.49-7.66-4.79.06-8.71,3.7-8.76,7.87-.04,3.98,3.4,7.14,7.81,7.39-.8,37.99,2.16,80.45-5.97,117.97-3.2.04-5.8.49-5.91.82,0,0,0,.01,0,.02,3.51-.13,7.01-.32,10.49-.59-.92-.14-2.17-.24-3.61-.25,8.59-37.31,5.49-80.15,6.34-117.98ZM319.06,433.57c-1.29-1.13-2.09-2.7-2.06-4.46.02-1.76.86-3.37,2.19-4.54,1.34-1.18,3.17-2.01,5.18-2.03,2.02-.02,3.83.76,5.12,1.9,1.29,1.15,2.06,2.73,2.02,4.49-.04,1.76-.89,3.35-2.23,4.51-1.34,1.16-3.15,1.89-5.15,1.91-2,.02-3.79-.66-5.08-1.79Z"/>
    <path class="cls-4" d="M303.55,498.82c-8.26-5.95-12.52-9.1-21.21-15.72-1.24-.95-1.97-2.24-2.02-3.59-.45-14.34-.79-28.67-1.1-43.01,4.51-.25,8.01-3.56,7.79-7.67-.21-3.95-4.08-7.47-8.61-7.6-4.86-.14-8.73,3.42-8.62,7.65.11,3.98,3.66,7.24,8.08,7.6.33,14.48.7,28.96,1.18,43.44.05,1.35.78,2.64,2.02,3.58,8.69,6.61,12.95,9.76,21.23,15.69,1.19.85,1.85,2,1.84,3.17-.03,6.87-.05,13.75-.07,20.63.05-7.87.09-15.75.12-23.62-.19-.19-.4-.38-.63-.55Z"/>
    <path class="cls-4" d="M299.04,555.31c-.02-.15.54-.31,1.47-.44.93-.13,2.23-.22,3.66-.22,1.44,0,2.72.09,3.64.22.92.13,1.45.3,1.42.44-.01.04-.07.08-.16.11.34,0,.69-.03,1.03-.04.04-.02.08-.05.09-.07.1-.33-2.33-.78-5.52-.82.16-2.79.23-6.05.36-15.31-.43,0-.65,0-1.08,0,0-.29,0-.59,0-.88-.06,5.4-.13,10.79-.26,16.19-3.27.04-5.77.5-5.61.84.03.05.15.1.3.14.35,0,.7,0,1.05.01-.24-.05-.39-.11-.4-.18Z"/>
    <path class="cls-4" d="M258.82,511.13c-.28-2.85-3.97-5.35-8.22-5.43-4.25-.09-7.38,2.27-7,5.14.36,2.73,3.71,4.91,7.61,5.18,1.46,11.41,2.25,16.31,3.98,23.92.43.35.71.73.8,1.11,1.27,5.42,2.2,8.67,3.28,10.86.33.06.66.11.99.16-5.88-10.34-6.27-25.14-7.86-36.04,3.85-.13,6.69-2.19,6.42-4.9ZM247.07,513.94c-1.25-.79-2.1-1.87-2.26-3.08-.16-1.21.42-2.3,1.48-3.09,1.07-.79,2.62-1.26,4.41-1.22,1.79.04,3.45.57,4.71,1.41,1.25.83,2.08,1.95,2.21,3.15.12,1.2-.48,2.25-1.55,3-1.07.75-2.6,1.18-4.35,1.15-1.75-.03-3.39-.53-4.64-1.32Z"/>
    <path class="cls-4" d="M394.23,496.88c-4.16.17-7.96,2.9-8.45,5.97-.49,3.07,2.43,5.33,6.52,5.18,3.89-.14,7.48-2.43,8.31-5.31,23.96-2.16,48.08-6.89,71.67-12.88.42-.38.83-.77,1.24-1.15-23.93,6.12-48.42,10.96-72.75,13.14.23-2.88-2.58-5.11-6.55-4.95ZM399.55,502.32c-.24,1.3-1.15,2.48-2.44,3.36-1.28.87-2.93,1.44-4.66,1.5-1.73.06-3.19-.39-4.19-1.17-.99-.79-1.51-1.91-1.3-3.2.21-1.29,1.11-2.51,2.4-3.42,1.29-.91,2.96-1.52,4.71-1.59,1.75-.07,3.24.41,4.23,1.23.99.83,1.48,1.99,1.24,3.29Z"/>
    <path class="cls-4" d="M276.7,501.87c-.06-1.18-.78-2.34-2-3.21-8.56-6.06-12.94-9.27-21.81-16.02-1.27-.97-2.05-2.27-2.15-3.63-1.05-14.38-1.83-28.77-2.55-43.17,4.43-.18,7.79-3.43,7.47-7.55-.31-3.96-4.2-7.54-8.65-7.74-4.78-.22-8.5,3.25-8.28,7.49.2,4,3.77,7.32,8.12,7.76.75,14.54,1.55,29.07,2.64,43.6.1,1.35.88,2.65,2.15,3.62,8.87,6.75,13.26,9.96,21.82,16,1.23.87,1.95,2.02,2.01,3.2,1.02,16.76.59,35.97,5.64,52.25-.5,0-.97.02-1.42.05,2.68.23,5.37.43,8.07.58-.83-.29-3.06-.59-5.67-.63-4.86-16.48-4.42-35.69-5.39-52.61ZM242.37,432.66c-1.34-1.19-2.21-2.8-2.3-4.57-.09-1.77.63-3.35,1.86-4.47s3-1.86,4.98-1.8c1.98.06,3.79.91,5.14,2.12,1.35,1.21,2.21,2.83,2.28,4.6.07,1.76-.67,3.32-1.91,4.43-1.24,1.11-2.99,1.76-4.95,1.7-1.96-.06-3.76-.82-5.1-2.01Z"/>
    <path class="cls-4" d="M363.11,538.99c-6.26-3.42-9.56-5.33-16.48-9.53-.99-.6-1.49-1.44-1.36-2.35,4.13-30.2,5.54-60.75,6.99-91.17,4.47-.43,8.1-3.9,8.13-8.01.03-3.96-3.6-7.3-8.06-7.25-4.79.06-8.81,3.78-8.96,8.01-.14,3.98,3.2,7.1,7.55,7.29-1.42,30.5-2.8,61.14-6.85,91.43-.12.9.37,1.74,1.37,2.34,6.94,4.18,10.25,6.08,16.51,9.48.9.49,1.28,1.15,1.08,1.82-1.03,3.38-1.87,5.82-2.7,7.72.02,0,.04-.01.07-.02.99-2.25,1.95-5.22,3.17-9.45-.14-.11-.28-.22-.45-.31Z"/>
    <path class="cls-4" d="M421.78,470.1c-3.74.69-7.27,4.11-7.82,7.5-.59,3.64,2.17,5.99,6.07,5.34,3.68-.61,7.1-3.64,7.93-6.99,24.19-4.21,48.29-8.83,71.94-15.51.31-.39.63-.77.93-1.16-23.89,6.78-48.25,11.43-72.7,15.65.27-3.34-2.46-5.57-6.35-4.85Z"/>
    <path class="cls-4" d="M412.83,517.23c-3.66.66-7.2,3.36-7.91,5.88-.71,2.52,1.64,3.92,5.23,3.3,3.42-.59,6.78-2.84,7.76-5.26,5.69-1.06,11.38-2.14,17.07-3.25.55-.34,1.09-.68,1.63-1.02-6.15,1.21-12.31,2.39-18.48,3.54.45-2.34-1.82-3.81-5.3-3.18Z"/>
    <path class="cls-4" d="M342.72,539.4c.36-1.84-2.54-3.45-6.46-3.41-3.93.04-7.3,1.7-7.54,3.53-.22,1.74,2.39,3.01,5.92,3.11-1.12,6.24-1.85,9.23-2.92,11.15.35-.04.7-.08,1.05-.12,1.08-1.94,1.81-4.91,2.95-11.04,3.57-.15,6.65-1.47,6.99-3.22ZM331.28,541.42c-.99-.47-1.55-1.14-1.45-1.91.1-.77.86-1.5,2.01-2.04,1.15-.54,2.69-.89,4.34-.91,1.65-.01,3.09.31,4.07.83.99.52,1.51,1.24,1.37,2.02-.15.77-.94,1.45-2.08,1.94-1.15.49-2.65.79-4.26.8-1.61.01-3.01-.26-3.99-.73Z"/>
    <path class="cls-4" d="M255.2,539.93c-.33-.27-.74-.53-1.25-.76-8.08-3.59-12.25-5.63-20.73-10.13-1.22-.65-2.02-1.52-2.22-2.43-6.53-30.15-8.81-61.15-11.09-91.85,4.3-.11,7.51-3.32,7.1-7.46-.39-3.98-4.24-7.6-8.56-7.88-4.64-.3-8.17,3.08-7.88,7.35.28,4.02,3.8,7.42,8.04,7.93,2.32,30.81,4.63,61.93,11.31,92.17.21.91,1.01,1.78,2.23,2.43,8.49,4.49,12.66,6.52,20.75,10.09,1.16.51,1.9,1.18,2.06,1.85,1.25,5.16,2.17,8.33,3.22,10.49.37.06.74.12,1.1.18-1.08-2.19-2.01-5.45-3.28-10.86-.09-.38-.38-.75-.8-1.11ZM219.18,433.56c-1.91-.09-3.67-.88-4.99-2.1-1.32-1.22-2.2-2.85-2.32-4.63-.12-1.78.54-3.35,1.72-4.46,1.18-1.11,2.87-1.79,4.79-1.7,1.92.1,3.7.96,5.03,2.19s2.21,2.88,2.31,4.65c.1,1.77-.58,3.33-1.76,4.42s-2.87,1.72-4.77,1.63Z"/>
    <path class="cls-4" d="M305.62,463.76c4.43-.18,8-3.17,8.05-6.92.05-3.86-3.71-7.05-8.4-7.04-4.69,0-8.47,3.21-8.45,7.07.02,3.6,3.29,6.49,7.47,6.87-.03,11.88-.07,23.76-.12,35.63-.03,7.87-.07,15.75-.12,23.62-.03,5.1-.06,10.21-.11,15.31,0,.29,0,.59,0,.88.43,0,.65,0,1.08,0h.03c.35-25.14.44-50.28.56-75.42Z"/>
    <path class="cls-4" d="M383.04,466.2c.36-3.75-2.95-6.72-7.42-6.55-4.47.17-8.35,3.41-8.65,7.14-.28,3.55,2.74,6.27,6.83,6.4-2.25,22.03-4.14,44.72-10.23,66.12-1.21,4.23-2.18,7.2-3.17,9.45.44-.1.87-.21,1.31-.32,11.88-20.29,11.2-54.74,13.36-75.3,4.13-.41,7.63-3.38,7.98-6.94ZM369.91,470.67c-1.14-.97-1.78-2.35-1.65-3.93.13-1.57,1-3.03,2.32-4.12,1.32-1.09,3.07-1.8,4.95-1.88,1.88-.07,3.52.51,4.65,1.51,1.13,1,1.75,2.41,1.6,3.99-.15,1.58-1.04,3.02-2.35,4.08-1.31,1.06-3.04,1.75-4.9,1.81-1.86.07-3.48-.5-4.62-1.47Z"/>
    <path class="cls-4" d="M383.34,541.66c-.07.2-.1.39-.09.58.37-.13.74-.26,1.11-.39.02-.09.04-.17.08-.26.3-.73,1.21-1.43,2.44-1.96,1.24-.53,2.79-.89,4.38-.92.54-.01,1.04.03,1.51.09.38-.15.77-.29,1.15-.44-.72-.14-1.55-.21-2.45-.19-3.81.09-7.47,1.75-8.13,3.5Z"/>
    <path class="cls-4" d="M184.77,378.53c-1.27-3.6-4.48-6.01-7.72-6.19-.79-.04-1.58.05-2.35.28-3.18.97-5.06,4.12-4.91,7.61.04.85.2,1.72.49,2.59.44,1.31,1.14,2.46,2,3.4-6.93,7.45-13.89,14.88-20.89,22.27-1,1.06-1.5,2.57-1.4,4.21,1.77,16.92,4.22,33.73,7.15,50.49.2,1.1.74,2.23,1.57,3.23,6.04,7.36,9.08,10.97,15.17,17.95.4,2.08.6,3.1,1.01,5.12-.56-.07-1.12-.1-1.65-.05-2.7.29-4,2.26-3.45,4.69.13.59.37,1.21.73,1.83,1.47,2.58,4.42,4.57,7.25,5.1.69.13,1.37.17,2.02.12,2.67-.23,4.03-2.09,3.53-4.53-.12-.59-.35-1.22-.7-1.86-1.28-2.35-3.8-4.26-6.36-5.03-.19-.06-.37-.09-.56-.14-.42-2.11-.63-3.18-1.04-5.36-6.09-6.99-9.13-10.61-15.18-17.97-.82-1-1.37-2.13-1.56-3.24-2.87-16.57-5.27-33.18-7.04-49.9-.1-1.64.4-3.15,1.4-4.21,6.95-7.32,13.86-14.67,20.73-22.06.67.59,1.41,1.07,2.19,1.42.84.38,1.72.62,2.62.68.79.05,1.59-.03,2.37-.25,3.21-.93,5.26-4.08,5.1-7.62-.04-.86-.21-1.74-.51-2.61h0ZM181.88,494.88c.31.56.51,1.12.62,1.64.44,2.14-.75,3.79-3.11,4-.57.05-1.17.01-1.78-.1-2.49-.47-5.11-2.23-6.4-4.51-.31-.55-.53-1.1-.64-1.62-.48-2.14.67-3.88,3.05-4.13.58-.06,1.19-.03,1.8.08,2.53.46,5.19,2.31,6.46,4.64Z"/>
    <path class="cls-4" d="M202.43,518.92c-3.29-13.34-5.47-26.85-7.53-40.43-.15-1.08-.7-2.17-1.57-3.11-5.84-6.28-8.56-9.89-14.18-16.9-.84-1.04-1.37-2.23-1.52-3.41-.21-1.66-.32-2.49-.53-4.17.61.05,1.21.04,1.8-.08,3-.58,4.7-3.17,4.37-6.26-.08-.75-.28-1.53-.61-2.32-1.36-3.24-4.53-5.57-7.69-5.92-.77-.09-1.53-.06-2.27.1-3.03.66-4.64,3.28-4.25,6.33.09.74.31,1.5.64,2.27,1.24,2.81,3.81,4.92,6.54,5.65.2.05.4.09.59.12.22,1.79.34,2.67.57,4.43.15,1.17.69,2.36,1.52,3.4,5.61,7,8.3,10.68,14.14,16.96.87.93,1.42,2.02,1.57,3.1,2.05,13.42,4.22,26.77,7.49,39.96.26,1.02-.1,1.96-.98,2.62-5.33,4.01-8.12,5.56-11.68,7.6.25.13.5.25.76.38,3.61-2.07,6.45-3.69,11.83-7.72.88-.66,1.23-1.59.98-2.61ZM176.57,450.03c-2.73-.36-5.46-2.38-6.68-5.17-.3-.68-.48-1.35-.57-2.01-.34-2.68,1.09-5,3.76-5.58.65-.14,1.32-.17,2-.09,2.78.31,5.57,2.37,6.77,5.22.29.69.47,1.38.54,2.04.29,2.73-1.2,5.01-3.85,5.53-.64.12-1.31.14-1.97.05Z"/>
    <path class="cls-4" d="M64.39,233.2c1.83-.59,3.52-4.18,3.6-8.02.08-3.84-1.5-6.38-3.34-5.68-1.72.65-3.05,3.82-3.27,7.27-.54.22-1.04.42-1.52.62-.12.4-.24.8-.36,1.2.58-.24,1.19-.49,1.85-.75.01,3.55,1.27,5.94,3.04,5.36Z"/>
    <path class="cls-4" d="M168.35,323.89c.35,4.42,3.61,7.98,7.6,8.08,4.19.1,7.77-3.71,7.72-8.5-.06-4.79-3.74-8.72-7.92-8.76-3.98-.04-7.16,3.41-7.41,7.83-38.35-.77-80.62,2-118.55-5.68-.04-3.21-.51-5.8-.86-5.91-.04-.01-.07.02-.1.06.13,3.69.32,7.36.6,11.01.19-.94.34-2.43.36-4.17,37.73,8.15,80.35,5.24,118.56,6.06ZM171.28,318.15c1.13-1.3,2.71-2.09,4.47-2.07s3.33.86,4.57,2.19c1.25,1.33,2.03,3.17,2.05,5.18.02,2.02-.72,3.83-1.93,5.13-1.21,1.3-2.76,2.07-4.52,2.03-1.76-.04-3.36-.89-4.52-2.22-1.16-1.34-1.89-3.15-1.91-5.15-.02-2,.66-3.79,1.79-5.09Z"/>
    <path class="cls-4" d="M105.88,302.7c5.97-8.28,9.13-12.55,15.78-21.25.95-1.25,2.25-1.98,3.6-2.02,14.37-.47,28.74-.82,43.11-1.14.25,4.51,3.56,8.01,7.67,7.79,3.96-.21,7.52-4.09,7.65-8.61.14-4.86-3.46-8.74-7.7-8.62-3.99.11-7.25,3.67-7.61,8.09-14.51.35-29.03.72-43.54,1.22-1.35.05-2.64.78-3.59,2.03-6.64,8.7-9.79,12.98-15.75,21.27-.85,1.19-2,1.85-3.19,1.85-8.29-.02-16.58-.03-24.87-.05,9.29.03,18.58.07,27.87.09.19-.19.39-.4.56-.63Z"/>
    <path class="cls-4" d="M48.92,309.57c.35.09.81-2.35.85-5.55,2.88.11,6.19.17,15.52.26,0-.43,0-.65,0-1.09,3.23.02,6.45.02,9.68.03-8.4-.03-16.8-.08-25.2-.19-.04-3.27-.52-5.78-.88-5.6-.08.04-.14.21-.2.47,0,.38,0,.75-.01,1.13.06-.39.14-.63.24-.65.16-.02.33.54.46,1.47.14.93.23,2.23.23,3.67,0,1.44-.09,2.73-.23,3.65-.14.92-.31,1.46-.47,1.43-.08-.02-.14-.19-.2-.46,0,.38.02.76.03,1.14.05.16.1.27.17.28Z"/>
    <path class="cls-4" d="M93.53,257.96c2.87-.29,5.37-3.98,5.46-8.23.09-4.25-2.28-7.38-5.16-7-2.74.36-4.93,3.72-5.2,7.62-11.47,1.48-16.4,2.28-24.08,4.04-.35.43-.73.72-1.12.81-5.49,1.29-8.8,2.24-11.04,3.34-.06.33-.11.66-.16.99,10.45-5.94,25.38-6.36,36.38-7.98.13,3.85,2.2,6.69,4.92,6.41ZM90.71,246.21c.8-1.25,1.88-2.11,3.09-2.27,1.21-.16,2.31.42,3.1,1.48.79,1.07,1.26,2.62,1.23,4.41-.04,1.79-.58,3.46-1.41,4.71-.84,1.25-1.96,2.09-3.17,2.21-1.21.12-2.26-.48-3.01-1.55-.75-1.07-1.19-2.6-1.15-4.35.03-1.75.53-3.39,1.33-4.65Z"/>
    <path class="cls-4" d="M107.8,393.52c-.17-4.17-2.9-7.96-5.98-8.45-3.08-.49-5.35,2.45-5.2,6.54.14,3.9,2.43,7.49,5.33,8.32,2.02,24.51,7,49.14,13.15,73.22.38.42.77.83,1.16,1.24-6.27-24.42-11.37-49.42-13.42-74.3,2.89.22,5.13-2.6,4.97-6.57ZM102.33,398.86c-1.31-.24-2.49-1.15-3.37-2.43-.88-1.29-1.44-2.93-1.51-4.66-.06-1.73.39-3.2,1.18-4.2.79-1,1.92-1.51,3.22-1.31,1.3.21,2.51,1.1,3.43,2.39.92,1.29,1.52,2.96,1.59,4.72.07,1.75-.41,3.24-1.24,4.24-.83.99-2,1.48-3.3,1.25Z"/>
    <path class="cls-4" d="M102.82,275.84c1.19-.06,2.35-.78,3.22-2.01,6.08-8.57,9.3-12.96,16.09-21.84.97-1.27,2.28-2.05,3.64-2.15,14.41-1.06,28.84-1.85,43.27-2.58.17,4.43,3.43,7.79,7.56,7.47,3.97-.31,7.58-4.19,7.79-8.64.22-4.77-3.28-8.5-7.53-8.28-4,.2-7.34,3.77-7.78,8.12-14.58.76-29.15,1.57-43.7,2.67-1.36.1-2.66.88-3.64,2.15-6.77,8.88-9.99,13.27-16.06,21.85-.87,1.23-2.03,1.95-3.21,2.02-16.91,1.05-36.26.67-52.68,5.8,0-.58-.03-1.13-.06-1.64-.25,2.78-.47,5.58-.63,8.39.32-.77.65-3.06.69-5.77,16.61-4.95,35.97-4.55,53.04-5.56ZM172.23,241.43c1.19-1.34,2.81-2.21,4.58-2.3,1.77-.09,3.32.62,4.5,1.86s1.88,3,1.81,4.98c-.06,1.98-.88,3.8-2.14,5.14-1.27,1.34-2.85,2.21-4.62,2.28-1.77.07-3.33-.67-4.44-1.91-1.11-1.24-1.76-2.99-1.7-4.95.06-1.96.82-3.76,2.02-5.1Z"/>
    <path class="cls-4" d="M65.48,362.47c3.44-6.28,5.37-9.6,9.6-16.55.61-1,1.45-1.49,2.36-1.37,30.3,4.03,60.94,5.42,91.45,6.84.43,4.47,3.9,8.11,8.02,8.13,3.97.02,7.35-3.61,7.3-8.08-.06-4.79-3.82-8.82-8.05-8.96-3.99-.13-7.12,3.21-7.3,7.56-30.6-1.39-61.31-2.74-91.71-6.7-.91-.12-1.75.38-2.35,1.38-4.21,6.96-6.13,10.29-9.55,16.58-.49.9-1.16,1.29-1.84,1.09-3.65-1.09-6.22-1.96-8.21-2.84,0,.02.01.04.02.07,2.32,1.04,5.42,2.03,9.95,3.3.11-.14.22-.28.32-.45Z"/>
    <path class="cls-4" d="M129.69,427.5c3.35.27,5.59-2.48,4.87-6.38-.69-3.75-4.05-7.32-7.45-7.87-3.65-.59-6.09,2.22-5.45,6.14.61,3.69,3.65,7.11,7,7.94,4.25,24.6,8.91,49.12,15.72,73.16.46.37.92.74,1.38,1.11-.2-.36-.37-.73-.47-1.09-6.77-23.99-11.4-48.46-15.61-73Z"/>
    <path class="cls-4" d="M87.25,412.25c-.66-3.66-3.27-7.26-5.8-7.96-2.53-.7-4.04,1.7-3.42,5.3.6,3.43,2.85,6.78,5.28,7.76,1.16,6.21,2.34,12.42,3.55,18.61.34.55.69,1.11,1.04,1.66-1.32-6.68-2.6-13.36-3.85-20.05,2.35.45,3.83-1.84,3.2-5.32Z"/>
    <path class="cls-4" d="M65.07,342.04c1.85.35,3.47-2.56,3.44-6.49-.04-3.93-1.71-7.3-3.55-7.53-1.76-.22-3.04,2.41-3.13,5.94-6.52-1.13-9.54-1.85-11.52-2.95.04.35.08.7.12,1.05,2,1.11,5,1.84,11.4,2.99.15,3.58,1.48,6.65,3.24,6.99ZM63.04,330.58c.48-.99,1.15-1.56,1.92-1.46.78.1,1.51.85,2.06,2,.55,1.15.9,2.69.91,4.34.01,1.65-.31,3.09-.84,4.08-.53.99-1.25,1.52-2.03,1.38-.78-.14-1.47-.93-1.96-2.08-.49-1.15-.79-2.65-.81-4.26-.01-1.61.27-3.01.74-4Z"/>
    <path class="cls-4" d="M64.55,254.39c.28-.33.54-.74.77-1.25,3.63-8.1,5.68-12.28,10.22-20.77.65-1.22,1.53-2.02,2.45-2.23,30.26-6.56,61.36-8.87,92.17-11.16.1,4.3,3.32,7.5,7.47,7.1,3.99-.39,7.63-4.24,7.92-8.55.3-4.63-3.1-8.17-7.37-7.87-4.03.28-7.44,3.8-7.95,8.03-30.92,2.33-62.15,4.67-92.49,11.38-.92.21-1.79,1.01-2.44,2.23-4.52,8.5-6.57,12.68-10.17,20.79-.52,1.16-1.2,1.9-1.87,2.07-5.23,1.27-8.46,2.21-10.66,3.28-.07.37-.12.74-.18,1.11,2.24-1.1,5.55-2.04,11.04-3.34.38-.09.76-.38,1.12-.81ZM171.34,218.26c.09-1.91.89-3.67,2.11-4.99,1.22-1.32,2.86-2.2,4.64-2.32,1.78-.12,3.34.53,4.48,1.72s1.8,2.87,1.71,4.79c-.1,1.92-.93,3.7-2.21,5.03-1.27,1.32-2.9,2.21-4.68,2.31-1.78.11-3.33-.58-4.43-1.76-1.09-1.18-1.72-2.86-1.63-4.77Z"/>
    <path class="cls-4" d="M65.3,304.29v.03c25.24.25,50.49.32,75.74.41.18,4.43,3.17,8.01,6.93,8.05,3.87.05,7.07-3.72,7.06-8.41,0-4.69-3.21-8.47-7.08-8.45-3.61.03-6.51,3.3-6.89,7.48-11.91-.02-23.83-.04-35.74-.07-9.29-.02-18.58-.06-27.87-.09-.82,0-1.65,0-2.47,0-3.23-.01-6.45-.02-9.68-.03,0,.43,0,.65,0,1.09Z"/>
    <path class="cls-4" d="M138.56,382.25c3.76.35,6.74-2.97,6.57-7.44-.17-4.48-3.41-8.36-7.15-8.65-3.56-.28-6.29,2.76-6.41,6.85-22.12-2.22-44.88-4.09-66.4-10.08-4.53-1.27-7.63-2.26-9.95-3.3.1.41.2.82.3,1.24,20.54,11.99,55.09,11.25,76.09,13.42.41,4.14,3.38,7.64,6.96,7.98ZM134.08,369.1c.98-1.14,2.36-1.79,3.94-1.66,1.58.12,3.04,1,4.13,2.32,1.09,1.32,1.81,3.08,1.88,4.96.07,1.88-.52,3.52-1.52,4.66-1,1.13-2.42,1.76-4,1.61-1.58-.15-3.02-1.03-4.09-2.35-1.07-1.31-1.75-3.05-1.82-4.91-.07-1.86.5-3.49,1.48-4.63Z"/>
    <path class="cls-4" d="M62.79,382.74c-.37-.13-.71-.12-1.03.02.11.34.22.67.34,1.01.24-.06.49-.04.76.07.74.3,1.44,1.2,1.98,2.44.53,1.24.89,2.79.93,4.38.02.94-.08,1.76-.27,2.46.13.35.26.7.4,1.05.29-.9.45-2.02.42-3.31-.09-3.82-1.76-7.48-3.53-8.12Z"/>
    <path class="cls-4" d="M212.66,175.18c-.38.84-.62,1.72-.68,2.63-.05.79.02,1.59.25,2.37.91,3.21,4.05,5.24,7.57,5.07.85-.04,1.73-.21,2.6-.52,3.59-1.27,6-4.48,6.19-7.72.04-.79-.04-1.58-.27-2.35-.96-3.18-4.09-5.06-7.57-4.89-.85.04-1.71.2-2.58.49-1.3.44-2.45,1.14-3.39,2.01-7.4-6.91-14.77-13.86-22.1-20.85-1.05-1-2.55-1.5-4.18-1.39-16.74,2.06-33.41,4.46-50.02,7.43-1.09.2-2.21.75-3.2,1.57-7.3,6.04-10.88,9.08-17.8,15.17-2.05.4-3.06.61-5.06,1.02.08-.56.11-1.11.05-1.64-.27-2.69-2.22-3.97-4.61-3.42-.58.13-1.19.38-1.81.73-2.55,1.47-4.51,4.42-5.04,7.24-.13.69-.17,1.36-.12,2.01.22,2.66,2.04,4,4.44,3.5.58-.12,1.2-.36,1.83-.71h0c2.31-1.28,4.21-3.8,4.97-6.35.06-.18.09-.37.14-.55,2.08-.43,3.14-.64,5.29-1.06,6.92-6.08,10.51-9.13,17.82-15.17,1-.82,2.12-1.37,3.21-1.57,16.42-2.91,32.89-5.26,49.44-7.31,1.63-.11,3.13.4,4.18,1.4,7.26,6.94,14.56,13.83,21.89,20.7-.59.67-1.07,1.41-1.42,2.2ZM111.66,175.74c-.47,2.52-2.3,5.17-4.59,6.45-.56.31-1.1.52-1.61.62-2.11.45-3.73-.73-3.93-3.08-.05-.57,0-1.17.11-1.77.47-2.49,2.21-5.09,4.46-6.39.55-.31,1.08-.53,1.6-.65,2.11-.48,3.82.65,4.06,3.02.06.58.02,1.18-.09,1.79Z"/>
    <path class="cls-4" d="M83.4,202.74c13.12-3.36,26.42-5.56,39.78-7.66,1.07-.16,2.15-.71,3.07-1.57,6.2-5.84,9.81-8.55,16.77-14.16,1.04-.83,2.22-1.37,3.38-1.52,1.64-.22,2.47-.33,4.13-.54-.05.6-.04,1.21.07,1.79.56,2.98,3.11,4.67,6.18,4.33.75-.08,1.52-.28,2.3-.61,3.22-1.36,5.54-4.53,5.91-7.67.09-.76.06-1.52-.09-2.26-.64-3.01-3.24-4.61-6.25-4.21-.73.1-1.49.31-2.25.65-2.79,1.24-4.89,3.81-5.63,6.53-.05.2-.09.39-.12.59-1.77.23-2.65.34-4.39.58-1.16.16-2.34.69-3.37,1.53-6.95,5.61-10.63,8.28-16.83,14.12-.92.87-2,1.42-3.07,1.58-13.21,2.08-26.35,4.29-39.32,7.61-1,.26-1.91-.09-2.56-.96-3.43-4.62-4.99-7.31-6.65-10.27-.12.25-.25.49-.37.74,1.69,3.01,3.31,5.75,6.77,10.43.64.87,1.56,1.22,2.55.96ZM151.4,176.74c.37-2.72,2.38-5.44,5.16-6.66.67-.3,1.34-.48,1.99-.57,2.66-.34,4.95,1.07,5.51,3.72.14.65.16,1.32.08,1.99-.32,2.76-2.37,5.55-5.21,6.76-.69.29-1.37.47-2.03.54-2.7.3-4.96-1.18-5.46-3.81-.12-.64-.13-1.3-.04-1.96Z"/>
    <path class="cls-4" d="M368.25,64.29c.57,1.82,4.15,3.5,7.99,3.58,3.84.08,6.41-1.49,5.73-3.33-.63-1.71-3.79-3.03-7.24-3.25-.32-.82-.63-1.57-.92-2.27-.4-.12-.8-.24-1.2-.36.33.79.67,1.65,1.04,2.6-3.56.02-5.96,1.26-5.41,3.03Z"/>
    <path class="cls-4" d="M276.93,168.22c-4.42.36-7.98,3.62-8.09,7.61-.11,4.19,3.68,7.75,8.47,7.68,4.79-.06,8.72-3.74,8.77-7.92.05-3.98-3.39-7.15-7.8-7.39.88-37.71-2.88-81.4,6.62-118.4,3.19-.04,5.8-.5,5.95-.84-3.39.15-6.77.36-10.13.64.87.11,1.96.19,3.19.2-9.97,36.76-6.06,80.88-6.99,118.42ZM282.66,171.14c1.29,1.13,2.08,2.7,2.05,4.46-.03,1.76-.86,3.31-2.2,4.56-1.34,1.25-3.17,2.03-5.18,2.06-2.02.03-3.82-.71-5.12-1.92-1.29-1.21-2.06-2.74-2.01-4.51.05-1.76.9-3.36,2.23-4.52,1.34-1.16,3.15-1.89,5.15-1.92,2-.03,3.78.65,5.08,1.78Z"/>
    <path class="cls-4" d="M298.37,105.76c8.24,5.96,12.5,9.11,21.17,15.73,1.24.95,1.97,2.24,2.01,3.59.41,14.36.71,28.71.99,43.07-4.52.26-8.03,3.57-7.82,7.68.2,3.95,4.07,7.5,8.6,7.62,4.86.13,8.75-3.47,8.65-7.7-.1-3.98-3.65-7.24-8.08-7.59-.3-14.5-.63-29-1.06-43.5-.04-1.35-.77-2.64-2.01-3.59-8.68-6.62-12.93-9.76-21.18-15.71-1.18-.85-1.84-2-1.83-3.18.04-4.49.07-8.98.1-13.48-.06,5.49-.11,10.98-.16,16.48.19.19.39.38.63.56Z"/>
    <path class="cls-4" d="M297.72,49.79c-.26,2.85-.38,6.14-.6,15.46.43,0,.65,0,1.06,0,.11-5.16.27-10.31.52-15.46,3.27-.04,5.8-.52,5.65-.87-.03-.08-.23-.15-.54-.21-.38,0-.77-.01-1.15-.01.45.06.73.14.74.25,0,.15-.56.32-1.5.46-.94.13-2.24.23-3.68.23s-2.72-.09-3.64-.23c-.91-.13-1.44-.31-1.4-.46,0-.03.05-.06.11-.09-.34.01-.69.03-1.03.04-.02.02-.04.03-.04.05-.12.35,2.3.8,5.49.84Z"/>
    <path class="cls-4" d="M343.2,93.38c.27,2.86,3.95,5.36,8.2,5.44,4.26.08,7.4-2.29,7.04-5.16-.35-2.73-3.69-4.92-7.59-5.18-1.4-11.44-2.16-16.36-3.82-24.01-.42-.35-.71-.73-.79-1.11-1.29-5.78-2.22-9.15-3.33-11.37-.34-.05-.67-.11-1.01-.17,5.93,10.49,6.21,25.57,7.75,36.64-3.86.13-6.71,2.2-6.46,4.92ZM354.99,90.55c1.25.79,2.1,1.88,2.25,3.09.15,1.21-.43,2.3-1.5,3.09-1.07.79-2.63,1.26-4.42,1.23-1.79-.04-3.46-.57-4.71-1.41-1.25-.83-2.08-1.95-2.19-3.16-.12-1.2.49-2.26,1.57-3.01,1.08-.75,2.61-1.19,4.36-1.16,1.76.03,3.4.53,4.65,1.32Z"/>
    <path class="cls-4" d="M207.73,107.79c4.16-.17,7.95-2.91,8.45-5.99.5-3.08-2.41-5.35-6.49-5.19-3.89.15-7.48,2.44-8.32,5.34-23.53,2.57-47.07,7.22-70.19,13.04-.41.38-.82.76-1.23,1.14,23.46-5.94,47.36-10.69,71.26-13.29-.24,2.89,2.56,5.12,6.52,4.96ZM202.44,102.34c.24-1.31,1.16-2.49,2.44-3.37,1.29-.88,2.93-1.45,4.65-1.51,1.72-.06,3.19.38,4.18,1.17.99.79,1.5,1.91,1.28,3.21-.22,1.3-1.12,2.52-2.4,3.43-1.29.92-2.96,1.53-4.71,1.6-1.75.07-3.23-.41-4.22-1.23-.98-.83-1.47-2-1.23-3.3Z"/>
    <path class="cls-4" d="M320.33,49.8c4.36,17.02,4.01,35.47,4.92,52.88.05,1.18.77,2.34,1.99,3.21,8.54,6.06,12.92,9.27,21.78,16.04,1.27.97,2.04,2.27,2.14,3.63,1,14.4,1.75,28.8,2.44,43.22-4.44.18-7.82,3.45-7.5,7.57.3,3.97,4.19,7.56,8.65,7.76,4.79.22,8.53-3.29,8.32-7.54-.19-4-3.76-7.33-8.13-7.76-.71-14.56-1.48-29.11-2.53-43.65-.1-1.36-.87-2.66-2.14-3.63-8.86-6.75-13.24-9.96-21.79-16.01-1.23-.87-1.94-2.02-2-3.21-.96-17.27-.62-35.67-5.17-52.52,1.02-.01,1.94-.07,2.72-.15-3.2-.27-6.41-.5-9.64-.66.35.34,2.87.76,5.94.8ZM359.43,171.95c1.34,1.19,2.21,2.8,2.3,4.57s-.63,3.31-1.88,4.49c-1.25,1.18-3.01,1.88-5,1.82-1.99-.06-3.8-.87-5.14-2.13-1.34-1.26-2.21-2.84-2.27-4.6-.06-1.77.68-3.33,1.93-4.44,1.25-1.11,3-1.77,4.96-1.71,1.97.06,3.77.82,5.11,2Z"/>
    <path class="cls-4" d="M239.02,65.46c6.23,3.44,9.52,5.36,16.42,9.57.99.6,1.48,1.45,1.34,2.36-4.3,30.27-5.78,60.91-7.29,91.41-4.46.44-8.1,3.91-8.13,8.04-.03,3.97,3.58,7.33,8.04,7.27,4.78-.06,8.8-3.82,8.96-8.05.14-3.99-3.18-7.11-7.52-7.29,1.48-30.59,2.92-61.31,7.15-91.67.13-.91-.36-1.75-1.35-2.35-6.91-4.2-10.21-6.11-16.45-9.53-.9-.49-1.27-1.16-1.06-1.83,1-3.21,1.82-5.58,2.63-7.45-.03,0-.05.01-.08.02-.97,2.23-1.92,5.14-3.11,9.2.14.11.27.22.45.31Z"/>
    <path class="cls-4" d="M180.29,134.84c3.73-.7,7.26-4.11,7.82-7.51.6-3.65-2.14-6-6.03-5.34-3.67.62-7.08,3.65-7.92,7-23.64,4.15-47.21,8.71-70.32,15.26-.31.39-.63.77-.94,1.16,23.36-6.65,47.18-11.24,71.09-15.41-.28,3.34,2.44,5.56,6.31,4.84Z"/>
    <path class="cls-4" d="M189.37,87.62c3.65-.66,7.2-3.38,7.91-5.91.72-2.53-1.62-3.95-5.21-3.32-3.42.6-6.77,2.86-7.76,5.3-5.28.99-10.55,2.01-15.82,3.04-.55.34-1.1.68-1.64,1.02,5.74-1.14,11.49-2.24,17.24-3.33-.46,2.36,1.8,3.83,5.27,3.2Z"/>
    <path class="cls-4" d="M259.41,65.04c-.37,1.85,2.51,3.47,6.44,3.43,3.93-.04,7.32-1.71,7.57-3.55.24-1.75-2.36-3.03-5.89-3.12,1.16-6.16,1.92-9.18,3.01-11.15-.35.04-.71.08-1.06.13-1.1,1.99-1.86,4.99-3.04,11.03-3.57.15-6.67,1.48-7.02,3.24ZM270.88,63c.98.47,1.54,1.14,1.43,1.92-.11.78-.87,1.51-2.02,2.05-1.15.55-2.7.9-4.35.92-1.65.02-3.08-.31-4.07-.84-.98-.53-1.5-1.25-1.35-2.03.15-.78.95-1.46,2.1-1.96,1.16-.49,2.66-.79,4.27-.81,1.61-.01,3.01.26,3.99.74Z"/>
    <path class="cls-4" d="M347.03,64.46c.33.27.74.54,1.24.76,8.06,3.61,12.22,5.65,20.69,10.17,1.21.65,2.01,1.52,2.21,2.44,6.35,30.23,8.57,61.25,10.78,91.99-4.31.11-7.54,3.33-7.14,7.48.38,3.99,4.24,7.62,8.57,7.89,4.65.29,8.21-3.11,7.92-7.38-.27-4.02-3.8-7.42-8.05-7.93-2.26-30.85-4.51-62-11-92.31-.2-.92-1-1.79-2.22-2.43-8.47-4.5-12.64-6.53-20.71-10.12-1.16-.52-1.89-1.19-2.04-1.86-1.27-5.52-2.19-8.8-3.28-10.99-.37-.06-.73-.12-1.1-.18,1.11,2.22,2.04,5.59,3.33,11.37.08.38.37.76.79,1.11ZM382.69,171.02c1.91.09,3.68.88,5.01,2.1s2.2,2.85,2.32,4.63c.12,1.78-.54,3.33-1.73,4.47s-2.89,1.81-4.81,1.72c-1.93-.09-3.71-.92-5.04-2.2-1.33-1.27-2.21-2.88-2.31-4.66-.1-1.77.59-3.33,1.78-4.43s2.88-1.72,4.79-1.64Z"/>
    <path class="cls-4" d="M297.09,65.25c-.57,25.21-.73,50.43-.92,75.64-4.43.18-8.01,3.19-8.07,6.94-.06,3.87,3.69,7.06,8.38,7.04,4.69-.01,8.48-3.22,8.47-7.09-.01-3.6-3.28-6.5-7.45-6.87.07-11.9.14-23.81.24-35.71.05-5.49.1-10.98.16-16.48.08-7.83.18-15.65.31-23.48h-.02c-.42,0-.64,0-1.06,0h-.03Z"/>
    <path class="cls-4" d="M218.83,138.54c-.37,3.76,2.93,6.73,7.39,6.55,4.46-.18,8.34-3.42,8.65-7.17.29-3.56-2.72-6.28-6.8-6.4,2.32-22.21,4.43-44.8,10.5-66.38,1.19-4.05,2.14-6.96,3.11-9.2-.45.11-.9.22-1.34.33-11.84,20.43-11.31,54.69-13.53,75.29-4.12.42-7.63,3.39-7.98,6.97ZM231.94,134.04c1.13.97,1.77,2.36,1.64,3.93-.13,1.58-1.01,3.04-2.33,4.14-1.32,1.09-3.07,1.81-4.95,1.89-1.88.07-3.51-.51-4.64-1.51-1.13-1-1.74-2.41-1.59-3.99.15-1.58,1.04-3.02,2.35-4.09,1.31-1.07,3.04-1.75,4.9-1.82,1.85-.07,3.47.49,4.61,1.47Z"/>
    <path class="cls-4" d="M218.82,62.79s.02-.07.03-.1c-.43.15-.86.3-1.29.46-.4.63-1.2,1.23-2.28,1.7-1.24.53-2.8.89-4.38.93-.14,0-.27,0-.41-.01-.44.17-.88.33-1.32.5.48.05.98.07,1.52.06,3.81-.09,7.48-1.76,8.15-3.53Z"/>
    <path class="cls-4" d="M427.94,230.69c.78.04,1.57-.04,2.34-.28,3.17-.96,5.05-4.1,4.89-7.59-.04-.85-.2-1.72-.49-2.58-.44-1.31-1.14-2.45-2-3.4,6.91-7.43,13.85-14.82,20.83-22.18,1-1.05,1.5-2.56,1.4-4.19-1.89-16.83-4.27-33.6-7.3-50.27-.2-1.1-.75-2.22-1.57-3.22-6.04-7.33-9.08-10.93-15.16-17.89-.4-2.07-.6-3.09-1.02-5.1.56.07,1.11.11,1.64.05,2.69-.28,3.98-2.24,3.43-4.66-.13-.59-.38-1.2-.73-1.83-1.47-2.57-4.42-4.55-7.24-5.08-.69-.13-1.36-.17-2.01-.12-2.66.23-4.01,2.07-3.51,4.49.12.59.35,1.21.7,1.85h0c1.28,2.33,3.8,4.24,6.36,5.01.18.06.37.09.55.14.43,2.1.64,3.17,1.06,5.33,6.08,6.97,9.13,10.57,15.17,17.91.82,1,1.37,2.13,1.57,3.22,2.96,16.48,5.3,33.05,7.18,49.68.1,1.63-.4,3.14-1.4,4.19-6.93,7.29-13.82,14.61-20.67,21.97-.67-.59-1.4-1.07-2.19-1.42-.84-.38-1.72-.62-2.62-.68-.79-.05-1.58.02-2.36.25-3.2.92-5.22,4.06-5.05,7.59.04.86.21,1.74.51,2.61,1.27,3.59,4.45,6.01,7.68,6.2ZM422.88,108.62c-.31-.56-.51-1.11-.62-1.63-.45-2.13.74-3.77,3.09-3.97.57-.05,1.17-.01,1.77.1,2.49.47,5.1,2.22,6.39,4.49.31.55.53,1.09.64,1.61.48,2.13-.66,3.86-3.03,4.1-.58.06-1.18.03-1.79-.09-2.52-.47-5.18-2.31-6.45-4.62Z"/>
    <path class="cls-4" d="M402.38,84.62c3.34,13.26,5.54,26.7,7.62,40.2.15,1.08.7,2.16,1.57,3.09,5.84,6.25,8.52,9.93,14.13,16.92.83,1.04,1.37,2.22,1.52,3.39.22,1.65.32,2.48.54,4.15-.6-.05-1.21-.04-1.79.07-2.98.57-4.67,3.14-4.34,6.22.08.75.28,1.53.61,2.31,1.36,3.23,4.53,5.56,7.67,5.92.76.09,1.53.06,2.26-.1,3.01-.65,4.61-3.26,4.22-6.29-.1-.74-.31-1.5-.65-2.26h0c-1.24-2.8-3.81-4.91-6.53-5.64-.2-.05-.39-.09-.59-.12-.23-1.78-.34-2.66-.58-4.42-.16-1.17-.69-2.35-1.52-3.39-5.61-6.98-8.26-10.73-14.09-16.98-.87-.93-1.42-2.01-1.57-3.09-2.08-13.35-4.27-26.63-7.58-39.74-.26-1.01.09-1.94.96-2.6,4.93-3.7,7.65-5.23,10.85-7.03-.25-.12-.5-.25-.75-.37-3.24,1.83-6.02,3.42-11,7.15-.87.65-1.23,1.58-.97,2.59ZM428.3,153.24c2.72.36,5.44,2.38,6.67,5.17.3.68.48,1.35.57,2,.34,2.67-1.07,4.98-3.73,5.54-.65.14-1.32.16-1.99.08-2.77-.32-5.56-2.37-6.76-5.21-.29-.69-.47-1.38-.54-2.04-.3-2.72,1.19-4.99,3.82-5.49.64-.12,1.3-.13,1.96-.05Z"/>
    <path class="cls-4" d="M540.15,369.87c-1.8.59-3.48,4.17-3.56,8-.08,3.83,1.48,6.38,3.3,5.69,1.7-.65,3.01-3.81,3.23-7.25.52-.21,1.01-.41,1.48-.61.12-.4.24-.8.36-1.2-.57.24-1.16.48-1.81.74-.02-3.55-1.25-5.94-3-5.36Z"/>
    <path class="cls-4" d="M436.65,279.07c-.36-4.42-3.61-7.97-7.59-8.08-4.18-.11-7.7,3.69-7.64,8.48.06,4.79,3.68,8.71,7.86,8.76,3.97.05,7.14-3.4,7.39-7.81,37.7.81,80.72-2.82,117.8,6.06.04,3.18.48,5.75.81,5.91-.13-3.45-.31-6.89-.58-10.3-.12.9-.21,2.08-.22,3.42-36.84-9.37-80.29-5.57-117.81-6.43ZM433.73,284.81c-1.13,1.29-2.7,2.08-4.46,2.06-1.76-.02-3.37-.86-4.54-2.19s-2-3.17-2.02-5.18c-.02-2.02.75-3.83,1.89-5.12,1.14-1.29,2.73-2.06,4.49-2.02,1.76.04,3.35.89,4.51,2.23s1.89,3.15,1.91,5.14c.02,2-.66,3.79-1.78,5.08Z"/>
    <path class="cls-4" d="M554.47,299.27c-2.76-.17-6.01-.25-15.25-.39,0,.43,0,.65,0,1.08-.65,0-1.31,0-1.96-.02,5.74.06,11.47.15,17.2.3.04,3.26.5,5.77.83,5.61.05-.02.09-.12.13-.26,0-.34,0-.69.01-1.03-.05.2-.1.33-.16.34-.15.01-.31-.54-.44-1.47-.13-.93-.22-2.23-.22-3.66s.09-2.72.22-3.64c.13-.91.29-1.45.44-1.41.03,0,.06.06.08.11,0-.34-.03-.68-.04-1.02-.02-.02-.03-.05-.05-.06-.33-.1-.77,2.33-.81,5.51Z"/>
    <path class="cls-4" d="M498.93,300.34c-5.94,8.26-9.09,12.52-15.7,21.2-.95,1.24-2.24,1.97-3.59,2.01-14.33.45-28.65.78-42.98,1.09-.25-4.51-3.56-8.01-7.66-7.79-3.95.21-7.45,4.08-7.58,8.61-.14,4.86,3.41,8.73,7.64,8.62,3.98-.11,7.23-3.66,7.59-8.08,14.47-.33,28.94-.69,43.41-1.17,1.35-.05,2.63-.77,3.58-2.02,6.6-8.68,9.74-12.95,15.67-21.21.85-1.19,1.99-1.84,3.17-1.84,6.81.04,13.63.06,20.45.09-7.81-.05-15.62-.1-23.43-.14-.19.19-.38.39-.55.63Z"/>
    <path class="cls-4" d="M511.23,345.06c-2.85.28-5.34,3.96-5.42,8.21-.09,4.25,2.27,7.38,5.13,7,2.72-.36,4.9-3.7,5.17-7.6,11.4-1.45,16.29-2.25,23.88-3.97.35-.43.72-.71,1.1-.8,5.4-1.26,8.64-2.18,10.82-3.26.06-.33.11-.66.16-.99-10.31,5.86-25.07,6.24-35.94,7.83-.13-3.85-2.19-6.69-4.9-6.42ZM514.04,356.81c-.79,1.25-1.87,2.1-3.07,2.26-1.2.16-2.3-.42-3.08-1.49-.79-1.07-1.26-2.62-1.22-4.41.04-1.79.57-3.45,1.4-4.71.83-1.25,1.95-2.08,3.15-2.2,1.2-.12,2.25.48,3,1.55.74,1.07,1.18,2.6,1.15,4.35-.03,1.75-.53,3.39-1.32,4.64Z"/>
    <path class="cls-4" d="M496.98,209.69c.17,4.16,2.9,7.95,5.96,8.45s5.32-2.43,5.17-6.51c-.14-3.89-2.43-7.48-5.31-8.31-2.2-23.81-6.89-47.77-12.83-71.22-.38-.42-.77-.83-1.15-1.25,6.07,23.79,10.86,48.12,13.09,72.31-2.88-.23-5.1,2.58-4.94,6.54ZM502.42,204.38c1.3.24,2.48,1.15,3.35,2.44.87,1.28,1.44,2.93,1.5,4.66.06,1.72-.38,3.19-1.17,4.19-.79.99-1.91,1.51-3.2,1.29-1.29-.21-2.5-1.11-3.42-2.4-.91-1.29-1.52-2.96-1.59-4.71-.07-1.75.41-3.24,1.23-4.22.82-.99,1.99-1.47,3.29-1.24Z"/>
    <path class="cls-4" d="M501.98,327.18c-1.18.06-2.34.78-3.2,2-6.05,8.55-9.25,12.93-16.01,21.8-.97,1.27-2.27,2.04-3.62,2.14-14.37,1.05-28.75,1.82-43.14,2.54-.18-4.43-3.43-7.8-7.55-7.47-3.96.31-7.52,4.2-7.73,8.65-.22,4.78,3.24,8.5,7.48,8.28,3.99-.2,7.32-3.77,7.75-8.12,14.53-.74,29.05-1.54,43.56-2.63,1.35-.1,2.65-.88,3.62-2.15,6.74-8.87,9.94-13.25,15.98-21.81.87-1.23,2.02-1.95,3.2-2.01,17.09-1.03,35.54-.65,52.13-5.58,0,.48.02.94.04,1.38.23-2.66.43-5.32.57-8-.29.85-.58,3.06-.62,5.64-16.77,4.74-35.25,4.35-52.48,5.34ZM432.83,361.49c-1.19,1.34-2.8,2.21-4.57,2.3-1.77.09-3.35-.63-4.47-1.87s-1.85-3-1.79-4.98c.06-1.98.9-3.79,2.11-5.14,1.21-1.35,2.83-2.21,4.59-2.28,1.76-.07,3.32.67,4.43,1.91,1.11,1.24,1.76,2.99,1.7,4.95-.06,1.96-.82,3.76-2.01,5.1Z"/>
    <path class="cls-4" d="M539.04,240.83c-3.41,6.25-5.31,9.55-9.51,16.46-.6.99-1.44,1.48-2.34,1.36-30.17-4.16-60.7-5.58-91.09-7.04-.43-4.47-3.9-8.1-8.01-8.13-3.96-.03-7.29,3.59-7.23,8.05.06,4.79,3.77,8.81,8,8.96,3.98.14,7.1-3.2,7.28-7.54,30.48,1.43,61.08,2.81,91.35,6.9.9.12,1.74-.37,2.33-1.36,4.18-6.93,6.07-10.23,9.46-16.49.49-.9,1.15-1.28,1.82-1.07,3.3,1.02,5.7,1.84,7.57,2.66,0-.02-.01-.05-.02-.07-2.23-.98-5.16-1.93-9.3-3.13-.11.14-.22.28-.31.45Z"/>
    <path class="cls-4" d="M470.19,182.15c.69,3.74,4.11,7.27,7.5,7.82,3.64.59,5.99-2.16,5.34-6.06-.61-3.68-3.64-7.09-6.98-7.93-4.2-24.06-8.81-48.04-15.45-71.56-.39-.31-.77-.62-1.16-.93,6.74,23.77,11.37,48,15.59,72.32-3.34-.28-5.56,2.46-4.84,6.35Z"/>
    <path class="cls-4" d="M517.28,191.14c.66,3.66,3.36,7.2,5.87,7.91,2.51.71,3.92-1.63,3.29-5.23-.59-3.42-2.84-6.77-5.26-7.76-1.03-5.54-2.09-11.07-3.16-16.6-.34-.54-.68-1.08-1.02-1.63,1.18,5.99,2.32,12,3.45,18-2.34-.45-3.8,1.82-3.18,5.29Z"/>
    <path class="cls-4" d="M539.45,261.21c-1.84-.36-3.44,2.53-3.4,6.46.04,3.92,1.69,7.3,3.52,7.54,1.74.23,3-2.39,3.1-5.91,6.16,1.12,9.14,1.85,11.05,2.91-.04-.35-.08-.7-.12-1.06-1.93-1.07-4.89-1.81-10.94-2.94-.15-3.57-1.46-6.65-3.21-6.99ZM541.46,272.65c-.47.98-1.13,1.55-1.9,1.44-.77-.1-1.5-.86-2.04-2.01-.54-1.15-.89-2.69-.91-4.34-.02-1.65.31-3.08.83-4.07.52-.98,1.24-1.51,2.01-1.36.77.15,1.45.94,1.94,2.09.49,1.15.78,2.65.8,4.26.01,1.61-.26,3.01-.73,3.99Z"/>
    <path class="cls-4" d="M539.98,348.7c-.27.33-.53.74-.76,1.25-3.58,8.08-5.61,12.24-10.11,20.72-.65,1.22-1.51,2.02-2.43,2.22-30.12,6.52-61.09,8.79-91.76,11.07-.11-4.3-3.32-7.51-7.46-7.1-3.98.39-7.59,4.24-7.87,8.56-.3,4.64,3.07,8.17,7.34,7.88,4.02-.28,7.42-3.8,7.93-8.04,30.77-2.31,61.87-4.62,92.07-11.29.91-.21,1.78-1.01,2.42-2.23,4.48-8.48,6.5-12.66,10.07-20.74.51-1.16,1.18-1.9,1.85-2.06,5.14-1.24,8.3-2.16,10.44-3.2.06-.37.12-.74.18-1.1-2.18,1.08-5.42,2-10.82,3.26-.38.09-.75.38-1.1.8ZM433.74,384.68c-.09,1.91-.88,3.67-2.1,5-1.22,1.32-2.85,2.2-4.63,2.32-1.78.12-3.35-.54-4.46-1.72-1.11-1.18-1.79-2.87-1.69-4.79.09-1.92.95-3.7,2.18-5.03,1.23-1.33,2.88-2.21,4.65-2.31,1.77-.1,3.33.58,4.42,1.76,1.09,1.19,1.72,2.87,1.63,4.77Z"/>
    <path class="cls-4" d="M539.23,298.89v-.03c-25.11-.38-50.22-.48-75.32-.6-.18-4.43-3.17-8-6.92-8.05-3.86-.05-7.04,3.7-7.04,8.39,0,4.69,3.21,8.47,7.07,8.45,3.6-.02,6.49-3.29,6.86-7.46,11.87.04,23.74.08,35.6.13,7.81.04,15.62.08,23.43.14,4.78.03,9.57.07,14.35.11.65,0,1.31,0,1.96.02,0-.43,0-.65,0-1.08Z"/>
    <path class="cls-4" d="M466.33,220.86c-3.75-.36-6.71,2.95-6.54,7.41.17,4.47,3.41,8.35,7.14,8.64,3.55.28,6.27-2.74,6.39-6.82,22.09,2.27,44.57,4.31,66.04,10.28,4.14,1.2,7.07,2.15,9.3,3.13-.1-.44-.22-.88-.32-1.32-20.21-11.85-54.64-11.19-75.06-13.35-.41-4.13-3.38-7.63-6.94-7.97ZM470.8,233.99c-.97,1.14-2.35,1.78-3.92,1.65-1.57-.13-3.03-1-4.12-2.32-1.09-1.32-1.8-3.07-1.87-4.95-.07-1.88.51-3.51,1.51-4.65,1-1.13,2.41-1.75,3.99-1.6,1.58.15,3.01,1.04,4.08,2.35,1.06,1.31,1.75,3.04,1.81,4.9.07,1.86-.5,3.48-1.47,4.62Z"/>
    <path class="cls-4" d="M541.69,220.62c.15.05.29.08.43.09-.13-.39-.27-.77-.41-1.15-.03-.01-.06-.02-.09-.03-.73-.3-1.43-1.21-1.96-2.45-.53-1.24-.88-2.79-.92-4.38,0-.42,0-.82.04-1.19-.15-.39-.29-.78-.44-1.17-.11.65-.16,1.37-.14,2.15.09,3.81,1.75,7.47,3.5,8.13Z"/>
  </g>
</svg>